EnclosedAlnum-Bold.sfdir
StartChar: uF1D87
Encoding: 990599 990599 5
Width: 1000
Flags: MW
LayerCount: 2
Fore
SplineSet
310 205 m 0
 310 254 352 260 363 260 c 0
 379 260 418 251 418 205 c 0
 418 176 397 156 366 152 c 1
 369 152 l 1
 376 145 382 138 390 134 c 0
 423 113 463 114 470 114 c 0
 506 114 529 120 542 132 c 1
 573 158 573 201 573 238 c 0
 573 275 574 318 554 342 c 0
 541 357 524 360 498 360 c 0
 474 360 419 361 385 321 c 0
 379 315 377 311 366 311 c 0
 348 311 348 321 348 335 c 2
 348 555 l 2
 348 567 350 575 360 575 c 0
 362 575 363 574 370 572 c 0
 384 567 426 551 504 551 c 0
 535 551 581 554 631 572 c 0
 640 575 642 575 644 575 c 0
 654 575 655 565 655 560 c 0
 655 539 584 450 448 450 c 0
 417 450 414 450 392 454 c 1
 392 367 l 1
 431 391 483 390 503 390 c 0
 632 390 690 321 690 236 c 0
 690 145 618 79 473 79 c 0
 424 79 384 94 356 115 c 0
 340 128 328 143 320 159 c 0
 313 174 310 190 310 205 c 0
50 300 m 0
 50 584 236 760 501 760 c 0
 758 760 949 589 950 300 c 0
 950 21 769 -160 499 -160 c 0
 230 -160 50 24 50 300 c 0
112 299 m 0
 112 55 269 -97 498 -97 c 0
 724 -97 887 47 887 301 c 0
 887 547 729 697 502 697 c 0
 276 697 112 553 112 299 c 0
EndSplineSet
EndChar
StartChar: uF1D89
Encoding: 990601 990601 7
Width: 1000
Flags: MW
LayerCount: 2
Fore
SplineSet
303 396 m 1
 329 595 l 1
 368 595 l 1
 370 587 370 582 384 579 c 1
 393 576 529 571 543 571 c 2
 697 571 l 1
 697 543 700 541 692 533 c 2
 565 400 l 2
 534 374 512 329 504 271 c 0
 500 239 498 207 498 172 c 2
 498 138 l 2
 498 107 485 95 474 89 c 0
 463 83 451 82 448 82 c 0
 448 82 434 82 422 89 c 0
 411 95 398 106 398 137 c 0
 398 249 453 354 533 433 c 2
 579 468 l 1
 446 468 l 2
 434 468 371 468 362 464 c 0
 361 464 352 464 342 396 c 1
 303 396 l 1
50 300 m 0
 50 584 236 760 501 760 c 0
 758 760 949 589 950 300 c 0
 950 21 769 -160 499 -160 c 0
 230 -160 50 24 50 300 c 0
112 299 m 0
 112 55 269 -97 498 -97 c 0
 724 -97 887 47 887 301 c 0
 887 547 729 697 502 697 c 0
 276 697 112 553 112 299 c 0
EndSplineSet
EndChar
StartChar: uF1D92
Encoding: 990610 990610 16
Width: 1000
Flags: MW
LayerCount: 2
Fore
SplineSet
536 323 m 0
 536 518 646 575 732 575 c 0
 803 575 829 524 829 478 c 0
 829 450 816 427 786 427 c 0
 758 427 744 449 744 476 c 0
 744 495 751 521 777 526 c 1
 762 541 744 542 734 542 c 0
 690 542 656 511 644 479 c 0
 644 473 629 446 629 358 c 2
 629 345 l 1
 660 407 699 397 704 397 c 0
 782 397 848 347 848 239 c 0
 848 139 787 79 694 79 c 0
 647 79 598 97 567 153 c 1
 538 208 536 269 536 323 c 0
631 240 m 0
 631 226 631 173 640 152 c 0
 645 140 662 114 693 114 c 0
 731 114 743 132 747 152 c 0
 754 174 754 205 754 242 c 0
 754 282 754 314 746 336 c 0
 742 352 730 368 697 368 c 0
 669 368 631 343 631 240 c 0
180 488 m 1
 180 527 l 1
 197 527 l 1
 208 527 277 525 329 569 c 0
 336 575 336 575 346 575 c 1
 363 575 362 566 362 550 c 2
 362 115 l 1
 362 122 477 124 460 124 c 1
 454 124 l 1
 454 85 l 1
 426 87 354 88 322 88 c 0
 290 88 218 87 190 85 c 1
 190 124 l 1
 184 124 l 1
 167 124 280 122 280 115 c 1
 280 503 l 1
 241 490 205 488 197 488 c 1
 180 488 l 1
50 300 m 0
 50 584 236 760 501 760 c 0
 758 760 949 589 950 300 c 0
 950 21 769 -160 499 -160 c 0
 230 -160 50 24 50 300 c 0
112 299 m 0
 112 55 269 -97 498 -97 c 0
 724 -97 887 47 887 301 c 0
 887 547 729 697 502 697 c 0
 276 697 112 553 112 299 c 0
EndSplineSet
EndChar
StartChar: uF1D95
Encoding: 990613 990613 19
Width: 1000
Flags: MW
LayerCount: 2
Fore
SplineSet
536 415 m 0
 536 466 554 513 584 539 c 1
 611 562 647 575 692 575 c 0
 868 575 848 344 848 332 c 0
 848 132 742 79 660 79 c 0
 585 79 554 125 554 176 c 0
 554 204 568 227 598 227 c 0
 626 227 639 205 639 178 c 0
 639 139 610 130 608 128 c 1
 628 116 646 114 658 114 c 0
 708 114 734 154 741 179 c 0
 749 203 754 245 754 296 c 2
 754 310 l 1
 727 256 694 258 678 258 c 0
 599 258 536 309 536 415 c 0
629 414 m 0
 629 373 629 339 638 316 c 0
 642 303 654 287 686 287 c 0
 738 287 752 365 752 408 c 0
 752 432 754 473 746 498 c 0
 747 500 733 542 694 542 c 0
 660 542 647 530 639 514 c 0
 629 490 629 454 629 414 c 0
180 488 m 1
 180 527 l 1
 197 527 l 1
 208 527 277 525 329 569 c 0
 336 575 336 575 346 575 c 1
 363 575 362 566 362 550 c 2
 362 115 l 1
 362 122 477 124 460 124 c 1
 454 124 l 1
 454 85 l 1
 426 87 354 88 322 88 c 0
 290 88 218 87 190 85 c 1
 190 124 l 1
 184 124 l 1
 167 124 280 122 280 115 c 1
 280 503 l 1
 241 490 205 488 197 488 c 1
 180 488 l 1
50 300 m 0
 50 584 236 760 501 760 c 0
 758 760 949 589 950 300 c 0
 950 21 769 -160 499 -160 c 0
 230 -160 50 24 50 300 c 0
112 299 m 0
 112 55 269 -97 498 -97 c 0
 724 -97 887 47 887 301 c 0
 887 547 729 697 502 697 c 0
 276 697 112 553 112 299 c 0
EndSplineSet
EndChar
StartChar: uF1F87
Encoding: 991111 991111 993
Width: 1000
Flags: MW
LayerCount: 2
Fore
SplineSet
38 301 m 0
 38 407 61 591 217 746 c 0
 235 763 277 800 294 800 c 0
 302 800 312 797 312 786 c 0
 312 781 311 780 296 765 c 0
 186 654 135 497 135 300 c 0
 135 212 147 120 173 41 c 0
 215 -87 280 -148 309 -175 c 0
 309 -176 312 -180 312 -185 c 0
 312 -196 302 -199 294 -199 c 0
 275 -199 184 -132 118 -17 c 0
 71 66 38 176 38 301 c 0
688 -185 m 0
 688 -180 689 -179 704 -164 c 0
 814 -53 865 104 865 301 c 0
 865 458 831 635 705 763 c 0
 688 779 688 781 688 786 c 0
 688 797 698 800 706 800 c 0
 725 800 816 733 882 618 c 0
 929 535 962 425 962 300 c 0
 962 194 939 10 783 -145 c 0
 765 -162 723 -199 706 -199 c 0
 698 -199 688 -196 688 -185 c 0
334 490 m 1
 334 528 l 1
 353 528 l 1
 366 528 454 526 515 570 c 0
 523 576 524 576 534 576 c 1
 555 576 554 566 554 550 c 2
 554 116 l 1
 554 120 555 122 552 123 c 1
 550 124 680 125 672 125 c 1
 666 125 l 1
 666 87 l 1
 631 89 544 88 506 88 c 0
 468 88 378 89 343 87 c 1
 343 125 l 1
 337 125 l 1
 328 125 460 124 458 122 c 1
 456 120 456 119 456 116 c 1
 456 504 l 1
 403 491 363 490 353 490 c 1
 334 490 l 1
EndSplineSet
EndChar
StartChar: uF1F89
Encoding: 991113 991113 995
Width: 1000
Flags: MW
LayerCount: 2
Fore
SplineSet
38 301 m 0
 38 407 61 591 217 746 c 0
 235 763 277 800 294 800 c 0
 302 800 312 797 312 786 c 0
 312 781 311 780 296 765 c 0
 186 654 135 497 135 300 c 0
 135 212 147 120 173 41 c 0
 215 -87 280 -148 309 -175 c 0
 309 -176 312 -180 312 -185 c 0
 312 -196 302 -199 294 -199 c 0
 275 -199 184 -132 118 -17 c 0
 71 66 38 176 38 301 c 0
688 -185 m 0
 688 -180 689 -179 704 -164 c 0
 814 -53 865 104 865 301 c 0
 865 458 831 635 705 763 c 0
 688 779 688 781 688 786 c 0
 688 797 698 800 706 800 c 0
 725 800 816 733 882 618 c 0
 929 535 962 425 962 300 c 0
 962 194 939 10 783 -145 c 0
 765 -162 723 -199 706 -199 c 0
 698 -199 688 -196 688 -185 c 0
305 191 m 0
 305 230 330 252 366 252 c 0
 402 252 426 228 426 192 c 0
 426 160 410 142 385 132 c 1
 423 116 465 114 483 114 c 0
 593 114 572 205 572 223 c 0
 572 252 581 332 477 332 c 2
 438 332 l 2
 423 332 415 331 415 347 c 0
 415 350 414 359 422 360 c 0
 425 361 422 361 467 363 c 0
 505 365 524 382 534 396 c 1
 559 426 558 468 558 473 c 0
 558 487 570 542 484 542 c 0
 464 542 440 540 416 531 c 0
 410 528 402 525 397 521 c 1
 398 520 442 510 442 464 c 0
 442 434 421 409 384 409 c 0
 354 409 329 432 329 466 c 0
 329 503 350 533 388 554 c 0
 415 566 450 575 490 575 c 0
 618 575 671 528 671 471 c 0
 671 406 613 364 565 349 c 1
 679 324 695 259 695 223 c 0
 695 157 645 79 487 79 c 0
 444 79 405 84 374 96 c 0
 328 116 305 150 305 191 c 0
EndSplineSet
EndChar
StartChar: uF1F8B
Encoding: 991115 991115 997
Width: 1000
Flags: MW
LayerCount: 2
Fore
SplineSet
38 301 m 0
 38 407 61 591 217 746 c 0
 235 763 277 800 294 800 c 0
 302 800 312 797 312 786 c 0
 312 781 311 780 296 765 c 0
 186 654 135 497 135 300 c 0
 135 212 147 120 173 41 c 0
 215 -87 280 -148 309 -175 c 0
 309 -176 312 -180 312 -185 c 0
 312 -196 302 -199 294 -199 c 0
 275 -199 184 -132 118 -17 c 0
 71 66 38 176 38 301 c 0
688 -185 m 0
 688 -180 689 -179 704 -164 c 0
 814 -53 865 104 865 301 c 0
 865 458 831 635 705 763 c 0
 688 779 688 781 688 786 c 0
 688 797 698 800 706 800 c 0
 725 800 816 733 882 618 c 0
 929 535 962 425 962 300 c 0
 962 194 939 10 783 -145 c 0
 765 -162 723 -199 706 -199 c 0
 698 -199 688 -196 688 -185 c 0
310 205 m 0
 310 254 352 260 363 260 c 0
 379 260 418 251 418 205 c 0
 418 176 397 156 366 152 c 1
 369 152 l 1
 376 145 382 138 390 134 c 0
 423 113 463 114 470 114 c 0
 506 114 529 120 542 132 c 1
 573 158 573 201 573 238 c 0
 573 275 574 318 554 342 c 0
 541 357 524 360 498 360 c 0
 474 360 419 361 385 321 c 0
 379 315 377 311 366 311 c 0
 348 311 348 321 348 335 c 2
 348 555 l 2
 348 567 350 575 360 575 c 0
 362 575 363 574 370 572 c 0
 384 567 426 551 504 551 c 0
 535 551 581 554 631 572 c 0
 640 575 642 575 644 575 c 0
 654 575 655 565 655 560 c 0
 655 539 584 450 448 450 c 0
 417 450 414 450 392 454 c 1
 392 367 l 1
 431 391 483 390 503 390 c 0
 632 390 690 321 690 236 c 0
 690 145 618 79 473 79 c 0
 424 79 384 94 356 115 c 0
 340 128 328 143 320 159 c 0
 313 174 310 190 310 205 c 0
EndSplineSet
EndChar
StartChar: uF1F8E
Encoding: 991118 991118 1000
Width: 1000
Flags: MW
LayerCount: 2
Fore
SplineSet
38 301 m 0
 38 407 61 591 217 746 c 0
 235 763 277 800 294 800 c 0
 302 800 312 797 312 786 c 0
 312 781 311 780 296 765 c 0
 186 654 135 497 135 300 c 0
 135 212 147 120 173 41 c 0
 215 -87 280 -148 309 -175 c 0
 309 -176 312 -180 312 -185 c 0
 312 -196 302 -199 294 -199 c 0
 275 -199 184 -132 118 -17 c 0
 71 66 38 176 38 301 c 0
688 -185 m 0
 688 -180 689 -179 704 -164 c 0
 814 -53 865 104 865 301 c 0
 865 458 831 635 705 763 c 0
 688 779 688 781 688 786 c 0
 688 797 698 800 706 800 c 0
 725 800 816 733 882 618 c 0
 929 535 962 425 962 300 c 0
 962 194 939 10 783 -145 c 0
 765 -162 723 -199 706 -199 c 0
 698 -199 688 -196 688 -185 c 0
294 208 m 0
 294 260 317 301 388 331 c 1
 366 340 355 350 345 364 c 0
 327 389 318 417 318 441 c 0
 318 513 368 575 502 575 c 0
 609 575 682 544 682 466 c 0
 682 424 664 391 607 364 c 1
 617 359 646 346 666 325 c 0
 686 305 706 278 706 230 c 0
 706 148 652 79 498 79 c 0
 376 79 294 114 294 208 c 0
366 208 m 0
 366 151 411 114 502 114 c 0
 545 114 634 120 634 185 c 0
 634 219 605 232 562 252 c 1
 497 281 476 291 435 309 c 1
 418 299 366 270 366 208 c 0
384 490 m 0
 384 461 416 452 422 449 c 2
 562 386 l 1
 596 407 616 428 616 464 c 0
 616 514 576 542 498 542 c 0
 470 542 384 544 384 490 c 0
EndSplineSet
EndChar
StartChar: uF1F91
Encoding: 991121 991121 1003
Width: 1000
Flags: MW
LayerCount: 2
Fore
SplineSet
38 301 m 0
 38 407 61 591 217 746 c 0
 235 763 277 800 294 800 c 0
 302 800 312 797 312 786 c 0
 312 781 311 780 296 765 c 0
 186 654 135 497 135 300 c 0
 135 212 147 120 173 41 c 0
 215 -87 280 -148 309 -175 c 0
 309 -176 312 -180 312 -185 c 0
 312 -196 302 -199 294 -199 c 0
 275 -199 184 -132 118 -17 c 0
 71 66 38 176 38 301 c 0
688 -185 m 0
 688 -180 689 -179 704 -164 c 0
 814 -53 865 104 865 301 c 0
 865 458 831 635 705 763 c 0
 688 779 688 781 688 786 c 0
 688 797 698 800 706 800 c 0
 725 800 816 733 882 618 c 0
 929 535 962 425 962 300 c 0
 962 194 939 10 783 -145 c 0
 765 -162 723 -199 706 -199 c 0
 698 -199 688 -196 688 -185 c 0
553 490 m 1
 553 528 l 1
 569 528 l 1
 580 528 650 526 702 570 c 0
 709 576 708 576 718 576 c 1
 735 576 734 566 734 550 c 2
 734 116 l 1
 734 123 848 125 831 125 c 1
 825 125 l 1
 825 87 l 1
 797 89 725 88 693 88 c 0
 661 88 590 89 562 87 c 1
 562 125 l 1
 556 125 l 1
 539 125 651 123 651 116 c 1
 651 504 l 1
 612 491 577 490 569 490 c 1
 553 490 l 1
178 490 m 1
 178 528 l 1
 194 528 l 1
 205 528 274 526 326 570 c 0
 333 576 333 576 343 576 c 1
 360 576 358 566 358 550 c 2
 358 116 l 1
 358 123 473 125 456 125 c 1
 450 125 l 1
 450 87 l 1
 422 89 350 88 318 88 c 0
 286 88 214 89 186 87 c 1
 186 125 l 1
 180 125 l 1
 163 125 276 123 276 116 c 1
 276 504 l 1
 237 491 202 490 194 490 c 1
 178 490 l 1
EndSplineSet
EndChar
StartChar: uF1F93
Encoding: 991123 991123 1005
Width: 1000
Flags: MW
LayerCount: 2
Fore
SplineSet
38 301 m 0
 38 407 61 591 217 746 c 0
 235 763 277 800 294 800 c 0
 302 800 312 797 312 786 c 0
 312 781 311 780 296 765 c 0
 186 654 135 497 135 300 c 0
 135 212 147 120 173 41 c 0
 215 -87 280 -148 309 -175 c 0
 309 -176 312 -180 312 -185 c 0
 312 -196 302 -199 294 -199 c 0
 275 -199 184 -132 118 -17 c 0
 71 66 38 176 38 301 c 0
688 -185 m 0
 688 -180 689 -179 704 -164 c 0
 814 -53 865 104 865 301 c 0
 865 458 831 635 705 763 c 0
 688 779 688 781 688 786 c 0
 688 797 698 800 706 800 c 0
 725 800 816 733 882 618 c 0
 929 535 962 425 962 300 c 0
 962 194 939 10 783 -145 c 0
 765 -162 723 -199 706 -199 c 0
 698 -199 688 -196 688 -185 c 0
536 191 m 0
 536 230 558 252 588 252 c 0
 618 252 638 228 638 192 c 0
 638 160 625 142 604 132 c 1
 638 116 665 114 678 114 c 0
 755 114 742 205 742 223 c 0
 742 252 747 332 674 332 c 2
 648 332 l 2
 636 332 628 331 628 347 c 0
 628 350 630 359 637 360 c 0
 639 361 636 361 668 363 c 0
 694 365 707 382 714 396 c 1
 732 426 732 468 732 473 c 0
 732 487 740 542 680 542 c 0
 662 542 636 538 614 521 c 1
 614 520 650 510 650 464 c 0
 650 434 634 409 604 409 c 0
 578 409 556 432 556 466 c 0
 556 527 606 575 684 575 c 0
 781 575 826 528 826 471 c 0
 826 406 778 364 737 349 c 1
 835 324 848 259 848 223 c 0
 848 157 805 79 682 79 c 0
 598 79 536 123 536 191 c 0
180 488 m 1
 180 527 l 1
 197 527 l 1
 208 527 277 525 329 569 c 0
 336 575 336 575 346 575 c 1
 363 575 362 566 362 550 c 2
 362 115 l 1
 362 122 477 124 460 124 c 1
 454 124 l 1
 454 85 l 1
 426 87 354 88 322 88 c 0
 290 88 218 87 190 85 c 1
 190 124 l 1
 184 124 l 1
 167 124 280 122 280 115 c 1
 280 503 l 1
 241 490 205 488 197 488 c 1
 180 488 l 1
EndSplineSet
EndChar
StartChar: uF1F95
Encoding: 991125 991125 1007
Width: 1000
Flags: MW
LayerCount: 2
Fore
SplineSet
38 301 m 0
 38 407 61 591 217 746 c 0
 235 763 277 800 294 800 c 0
 302 800 312 797 312 786 c 0
 312 781 311 780 296 765 c 0
 186 654 135 497 135 300 c 0
 135 212 147 120 173 41 c 0
 215 -87 280 -148 309 -175 c 0
 309 -176 312 -180 312 -185 c 0
 312 -196 302 -199 294 -199 c 0
 275 -199 184 -132 118 -17 c 0
 71 66 38 176 38 301 c 0
688 -185 m 0
 688 -180 689 -179 704 -164 c 0
 814 -53 865 104 865 301 c 0
 865 458 831 635 705 763 c 0
 688 779 688 781 688 786 c 0
 688 797 698 800 706 800 c 0
 725 800 816 733 882 618 c 0
 929 535 962 425 962 300 c 0
 962 194 939 10 783 -145 c 0
 765 -162 723 -199 706 -199 c 0
 698 -199 688 -196 688 -185 c 0
540 205 m 0
 540 254 575 260 585 260 c 0
 599 260 631 251 631 205 c 0
 631 176 616 159 598 153 c 0
 598 152 594 152 591 152 c 1
 623 109 662 114 668 114 c 0
 694 114 710 120 720 132 c 1
 742 158 741 201 741 238 c 0
 741 275 741 318 727 342 c 0
 719 357 706 360 688 360 c 0
 670 360 632 361 602 321 c 0
 598 315 596 311 587 311 c 0
 572 311 572 321 572 335 c 2
 572 555 l 2
 572 567 571 575 580 575 c 0
 582 575 585 574 591 572 c 0
 603 567 637 551 692 551 c 0
 714 551 746 554 790 572 c 0
 799 575 799 575 801 575 c 0
 810 575 811 565 811 560 c 0
 811 539 749 450 653 450 c 0
 631 450 628 450 609 454 c 1
 609 367 l 1
 641 391 677 390 692 390 c 0
 793 390 840 321 840 236 c 0
 840 145 778 79 670 79 c 0
 590 79 540 141 540 205 c 0
181 488 m 1
 181 527 l 1
 196 527 l 1
 207 527 276 525 328 569 c 0
 335 575 334 575 344 575 c 1
 361 575 361 566 361 550 c 2
 361 115 l 1
 361 122 475 124 458 124 c 1
 452 124 l 1
 452 85 l 1
 424 87 353 88 321 88 c 0
 289 88 216 87 188 85 c 1
 188 124 l 1
 182 124 l 1
 165 124 279 122 279 115 c 1
 279 503 l 1
 240 490 204 488 196 488 c 1
 181 488 l 1
EndSplineSet
EndChar
StartChar: uF1F9A
Encoding: 991130 991130 1012
Width: 1000
Flags: MW
LayerCount: 2
Fore
SplineSet
38 301 m 0
 38 407 61 591 217 746 c 0
 235 763 277 800 294 800 c 0
 302 800 312 797 312 786 c 0
 312 781 311 780 296 765 c 0
 186 654 135 497 135 300 c 0
 135 212 147 120 173 41 c 0
 215 -87 280 -148 309 -175 c 0
 309 -176 312 -180 312 -185 c 0
 312 -196 302 -199 294 -199 c 0
 275 -199 184 -132 118 -17 c 0
 71 66 38 176 38 301 c 0
688 -185 m 0
 688 -180 689 -179 704 -164 c 0
 814 -53 865 104 865 301 c 0
 865 458 831 635 705 763 c 0
 688 779 688 781 688 786 c 0
 688 797 698 800 706 800 c 0
 725 800 816 733 882 618 c 0
 929 535 962 425 962 300 c 0
 962 194 939 10 783 -145 c 0
 765 -162 723 -199 706 -199 c 0
 698 -199 688 -196 688 -185 c 0
531 325 m 0
 531 369 529 468 577 528 c 1
 598 550 630 575 689 575 c 0
 743 575 771 555 791 541 c 0
 848 483 847 373 847 325 c 0
 847 277 847 175 794 117 c 0
 774 100 744 79 689 79 c 0
 633 79 604 100 583 120 c 0
 532 177 531 277 531 325 c 0
620 334 m 0
 620 294 620 213 626 175 c 0
 632 124 667 109 689 109 c 0
 705 109 747 116 755 186 c 0
 758 223 758 296 758 334 c 0
 758 400 759 484 747 508 c 0
 734 531 713 545 689 545 c 0
 674 545 631 538 625 476 c 0
 620 437 620 390 620 334 c 0
164 85 m 1
 164 84 164 101 164 100 c 2
 164 117 164 118 172 128 c 2
 300 279 l 2
 347 334 369 383 369 433 c 0
 369 487 339 536 286 536 c 0
 268 536 247 532 227 522 c 1
 229 520 233 520 234 518 c 0
 244 510 262 499 262 464 c 0
 262 424 235 407 212 407 c 0
 192 407 164 422 164 466 c 0
 164 534 226 575 304 575 c 0
 396 575 464 520 464 434 c 0
 464 364 423 329 360 276 c 1
 324 245 301 224 262 188 c 1
 348 188 l 2
 356 188 405 189 414 193 c 1
 423 197 428 248 430 261 c 1
 464 261 l 1
 444 85 l 1
 164 85 l 1
EndSplineSet
EndChar
StartChar: uF1FAC
Encoding: 991148 991148 28
Width: 1000
Flags: MW
LayerCount: 2
Fore
SplineSet
532 208 m 0
 532 260 552 301 610 331 c 1
 595 340 585 350 576 364 c 0
 559 389 554 417 554 441 c 0
 554 513 595 575 690 575 c 0
 766 575 824 544 824 466 c 0
 824 424 808 391 764 364 c 1
 771 359 793 346 811 325 c 0
 829 305 844 278 844 230 c 0
 844 148 796 79 687 79 c 0
 602 79 532 114 532 208 c 0
594 208 m 0
 594 151 626 114 690 114 c 0
 722 114 784 120 784 185 c 0
 784 219 762 232 732 252 c 1
 687 281 671 291 643 309 c 1
 631 299 594 270 594 208 c 0
606 490 m 0
 606 461 629 452 633 449 c 2
 732 386 l 1
 756 407 771 428 771 464 c 0
 771 514 742 542 687 542 c 0
 668 542 606 544 606 490 c 0
164 85 m 1
 164 84 164 101 164 100 c 2
 164 117 164 118 172 128 c 2
 300 279 l 2
 347 334 369 383 369 433 c 0
 369 487 338 536 285 536 c 0
 267 536 247 532 227 522 c 1
 229 520 233 520 234 518 c 0
 244 510 261 499 261 464 c 0
 261 424 235 407 212 407 c 0
 192 407 164 422 164 466 c 0
 164 534 226 575 304 575 c 0
 396 575 464 520 464 434 c 0
 464 364 421 329 358 276 c 1
 322 245 301 224 262 188 c 1
 348 188 l 2
 356 188 404 189 413 193 c 1
 422 197 428 248 430 261 c 1
 464 261 l 1
 443 85 l 1
 164 85 l 1
50 300 m 0
 50 584 236 760 501 760 c 0
 758 760 949 589 950 300 c 0
 950 21 769 -160 499 -160 c 0
 230 -160 50 24 50 300 c 0
112 299 m 0
 112 55 269 -97 498 -97 c 0
 724 -97 887 47 887 301 c 0
 887 547 729 697 502 697 c 0
 276 697 112 553 112 299 c 0
EndSplineSet
EndChar
StartChar: uF1FB0
Encoding: 991152 991152 1013
Width: 1000
Flags: MW
LayerCount: 2
Fore
SplineSet
38 301 m 0
 38 407 61 591 217 746 c 0
 235 763 277 800 294 800 c 0
 302 800 312 797 312 786 c 0
 312 781 311 780 296 765 c 0
 186 654 135 497 135 300 c 0
 135 212 147 120 173 41 c 0
 215 -87 280 -148 309 -175 c 0
 309 -176 312 -180 312 -185 c 0
 312 -196 302 -199 294 -199 c 0
 275 -199 184 -132 118 -17 c 0
 71 66 38 176 38 301 c 0
688 -185 m 0
 688 -180 689 -179 704 -164 c 0
 814 -53 865 104 865 301 c 0
 865 458 831 635 705 763 c 0
 688 779 688 781 688 786 c 0
 688 797 698 800 706 800 c 0
 725 800 816 733 882 618 c 0
 929 535 962 425 962 300 c 0
 962 194 939 10 783 -145 c 0
 765 -162 723 -199 706 -199 c 0
 698 -199 688 -196 688 -185 c 0
293 140 m 0
 293 204 356 231 416 243 c 1
 468 254 521 255 543 256 c 1
 543 280 l 2
 543 334 521 368 460 368 c 0
 455 368 435 367 414 369 c 1
 408 367 424 357 424 332 c 0
 424 297 398 281 374 281 c 0
 354 281 325 296 325 332 c 0
 325 366 345 382 374 391 c 0
 405 399 446 397 464 397 c 0
 525 397 568 385 594 366 c 0
 621 348 638 318 638 285 c 2
 638 121 l 2
 638 101 637 97 688 96 c 0
 698 96 707 95 707 77 c 0
 707 58 698 58 683 58 c 2
 641 58 l 2
 552 58 557 93 558 114 c 1
 542 83 506 52 444 52 c 0
 391 52 293 65 293 140 c 0
387 141 m 0
 387 109 418 82 456 82 c 0
 471 82 543 88 543 160 c 2
 543 230 l 1
 527 228 387 232 387 141 c 0
EndSplineSet
EndChar
StartChar: uF1FB4
Encoding: 991156 991156 1017
Width: 1000
Flags: MW
LayerCount: 2
Fore
SplineSet
38 301 m 0
 38 407 61 591 217 746 c 0
 235 763 277 800 294 800 c 0
 302 800 312 797 312 786 c 0
 312 781 311 780 296 765 c 0
 186 654 135 497 135 300 c 0
 135 212 147 120 173 41 c 0
 215 -87 280 -148 309 -175 c 0
 309 -176 312 -180 312 -185 c 0
 312 -196 302 -199 294 -199 c 0
 275 -199 184 -132 118 -17 c 0
 71 66 38 176 38 301 c 0
688 -185 m 0
 688 -180 689 -179 704 -164 c 0
 814 -53 865 104 865 301 c 0
 865 458 831 635 705 763 c 0
 688 779 688 781 688 786 c 0
 688 797 698 800 706 800 c 0
 725 800 816 733 882 618 c 0
 929 535 962 425 962 300 c 0
 962 194 939 10 783 -145 c 0
 765 -162 723 -199 706 -199 c 0
 698 -199 688 -196 688 -185 c 0
320 226 m 0
 320 320 384 397 512 397 c 0
 568 397 609 383 639 354 c 0
 678 314 680 257 680 239 c 0
 680 218 671 217 655 217 c 2
 424 217 l 1
 424 194 423 147 450 116 c 0
 466 98 490 85 530 85 c 0
 589 85 624 115 638 141 c 0
 642 155 646 158 660 158 c 0
 664 158 680 160 680 144 c 0
 680 131 646 52 522 52 c 0
 392 52 320 126 320 226 c 0
424 244 m 1
 604 244 l 1
 603 269 603 368 512 368 c 0
 488 368 461 358 441 329 c 0
 424 303 426 270 424 244 c 1
EndSplineSet
EndChar
StartChar: uF1FB7
Encoding: 991159 991159 1020
Width: 1000
Flags: MW
LayerCount: 2
Fore
SplineSet
38 301 m 0
 38 407 61 591 217 746 c 0
 235 763 277 800 294 800 c 0
 302 800 312 797 312 786 c 0
 312 781 311 780 296 765 c 0
 186 654 135 497 135 300 c 0
 135 212 147 120 173 41 c 0
 215 -87 280 -148 309 -175 c 0
 309 -176 312 -180 312 -185 c 0
 312 -196 302 -199 294 -199 c 0
 275 -199 184 -132 118 -17 c 0
 71 66 38 176 38 301 c 0
688 -185 m 0
 688 -180 689 -179 704 -164 c 0
 814 -53 865 104 865 301 c 0
 865 458 831 635 705 763 c 0
 688 779 688 781 688 786 c 0
 688 797 698 800 706 800 c 0
 725 800 816 733 882 618 c 0
 929 535 962 425 962 300 c 0
 962 194 939 10 783 -145 c 0
 765 -162 723 -199 706 -199 c 0
 698 -199 688 -196 688 -185 c 0
280 57 m 1
 280 95 l 1
 273 95 334 96 332 94 c 1
 330 93 330 90 330 86 c 1
 330 508 l 2
 330 535 324 534 280 534 c 1
 280 572 l 1
 419 577 l 1
 419 324 l 1
 420 324 l 1
 437 352 476 396 550 396 c 0
 589 396 622 390 644 368 c 0
 660 354 670 326 670 296 c 2
 670 90 l 1
 670 96 730 95 720 95 c 1
 720 57 l 1
 700 58 653 59 622 59 c 0
 592 59 546 58 526 57 c 1
 526 95 l 1
 519 95 580 96 578 94 c 1
 576 93 576 90 576 86 c 1
 576 296 l 2
 576 356 559 366 538 366 c 0
 491 366 424 331 424 248 c 2
 424 86 l 1
 424 90 424 93 422 94 c 1
 420 95 481 95 474 95 c 1
 474 57 l 1
 454 58 408 59 377 59 c 0
 347 59 300 58 280 57 c 1
EndSplineSet
EndChar
StartChar: uF1FB8
Encoding: 991160 991160 1021
Width: 1000
Flags: MW
LayerCount: 2
Fore
SplineSet
38 301 m 0
 38 407 61 591 217 746 c 0
 235 763 277 800 294 800 c 0
 302 800 312 797 312 786 c 0
 312 781 311 780 296 765 c 0
 186 654 135 497 135 300 c 0
 135 212 147 120 173 41 c 0
 215 -87 280 -148 309 -175 c 0
 309 -176 312 -180 312 -185 c 0
 312 -196 302 -199 294 -199 c 0
 275 -199 184 -132 118 -17 c 0
 71 66 38 176 38 301 c 0
688 -185 m 0
 688 -180 689 -179 704 -164 c 0
 814 -53 865 104 865 301 c 0
 865 458 831 635 705 763 c 0
 688 779 688 781 688 786 c 0
 688 797 698 800 706 800 c 0
 725 800 816 733 882 618 c 0
 929 535 962 425 962 300 c 0
 962 194 939 10 783 -145 c 0
 765 -162 723 -199 706 -199 c 0
 698 -199 688 -196 688 -185 c 0
408 58 m 1
 408 96 l 1
 401 96 462 96 460 94 c 1
 458 93 458 91 458 87 c 1
 458 327 l 2
 458 354 453 353 410 353 c 1
 410 391 l 1
 548 396 l 1
 548 88 l 1
 548 92 547 93 546 94 c 1
 544 96 599 96 592 96 c 1
 592 58 l 1
 565 59 523 60 502 60 c 0
 466 60 431 59 408 58 c 1
430 521 m 0
 430 556 458 584 492 584 c 0
 527 584 556 556 556 521 c 0
 556 486 527 457 492 457 c 0
 458 457 430 486 430 521 c 0
EndSplineSet
EndChar
StartChar: uF1FBC
Encoding: 991164 991164 1025
Width: 1000
Flags: MW
LayerCount: 2
Fore
SplineSet
38 301 m 0
 38 407 61 591 217 746 c 0
 235 763 277 800 294 800 c 0
 302 800 312 797 312 786 c 0
 312 781 311 780 296 765 c 0
 186 654 135 497 135 300 c 0
 135 212 147 120 173 41 c 0
 215 -87 280 -148 309 -175 c 0
 309 -176 312 -180 312 -185 c 0
 312 -196 302 -199 294 -199 c 0
 275 -199 184 -132 118 -17 c 0
 71 66 38 176 38 301 c 0
688 -185 m 0
 688 -180 689 -179 704 -164 c 0
 814 -53 865 104 865 301 c 0
 865 458 831 635 705 763 c 0
 688 779 688 781 688 786 c 0
 688 797 698 800 706 800 c 0
 725 800 816 733 882 618 c 0
 929 535 962 425 962 300 c 0
 962 194 939 10 783 -145 c 0
 765 -162 723 -199 706 -199 c 0
 698 -199 688 -196 688 -185 c 0
156 56 m 1
 156 96 l 1
 150 96 210 95 208 94 c 1
 206 93 206 91 206 87 c 1
 206 326 l 2
 206 353 200 351 156 351 c 1
 156 390 l 1
 291 396 l 1
 291 314 l 1
 316 361 360 396 428 396 c 0
 454 396 528 395 544 324 c 1
 566 360 605 396 674 396 c 0
 713 396 745 390 766 370 c 0
 783 356 794 328 794 296 c 2
 794 90 l 1
 794 96 854 96 844 96 c 1
 844 56 l 1
 824 57 778 58 747 58 c 0
 717 58 670 57 650 56 c 1
 650 96 l 1
 644 96 704 95 702 94 c 1
 700 93 699 91 699 87 c 1
 699 296 l 2
 699 358 681 366 660 366 c 0
 614 366 547 330 547 248 c 2
 547 87 l 1
 547 91 547 93 545 94 c 1
 543 95 602 96 596 96 c 1
 596 56 l 1
 576 57 531 58 500 58 c 0
 470 58 424 57 404 56 c 1
 404 96 l 1
 396 96 456 96 454 94 c 1
 453 93 453 91 453 87 c 1
 453 296 l 2
 453 358 435 366 414 366 c 0
 368 366 301 331 301 248 c 2
 301 87 l 1
 301 91 300 93 298 94 c 1
 296 95 356 96 350 96 c 1
 350 56 l 1
 330 57 284 58 253 58 c 0
 223 58 176 57 156 56 c 1
EndSplineSet
EndChar
StartChar: uF1FBD
Encoding: 991165 991165 1026
Width: 1000
Flags: MW
LayerCount: 2
Fore
SplineSet
38 301 m 0
 38 407 61 591 217 746 c 0
 235 763 277 800 294 800 c 0
 302 800 312 797 312 786 c 0
 312 781 311 780 296 765 c 0
 186 654 135 497 135 300 c 0
 135 212 147 120 173 41 c 0
 215 -87 280 -148 309 -175 c 0
 309 -176 312 -180 312 -185 c 0
 312 -196 302 -199 294 -199 c 0
 275 -199 184 -132 118 -17 c 0
 71 66 38 176 38 301 c 0
688 -185 m 0
 688 -180 689 -179 704 -164 c 0
 814 -53 865 104 865 301 c 0
 865 458 831 635 705 763 c 0
 688 779 688 781 688 786 c 0
 688 797 698 800 706 800 c 0
 725 800 816 733 882 618 c 0
 929 535 962 425 962 300 c 0
 962 194 939 10 783 -145 c 0
 765 -162 723 -199 706 -199 c 0
 698 -199 688 -196 688 -185 c 0
280 56 m 1
 280 96 l 1
 273 96 334 96 332 94 c 1
 330 93 330 91 330 87 c 1
 330 326 l 2
 330 353 324 351 280 351 c 1
 280 390 l 1
 414 396 l 1
 414 314 l 1
 434 350 474 396 550 396 c 0
 588 396 620 389 642 369 c 0
 659 355 670 328 670 296 c 2
 670 90 l 1
 670 96 730 96 720 96 c 1
 720 56 l 1
 700 57 653 58 622 58 c 0
 592 58 546 57 526 56 c 1
 526 96 l 1
 518 96 579 96 577 94 c 1
 576 93 576 91 576 87 c 1
 576 296 l 2
 576 356 559 366 538 366 c 0
 491 366 424 331 424 248 c 2
 424 87 l 1
 424 91 424 93 422 94 c 1
 420 95 481 96 474 96 c 1
 474 56 l 1
 454 57 408 58 377 58 c 0
 347 58 300 57 280 56 c 1
EndSplineSet
EndChar
StartChar: uF1FBF
Encoding: 991167 991167 1028
Width: 1000
Flags: MW
LayerCount: 2
Fore
SplineSet
38 301 m 0
 38 407 61 591 217 746 c 0
 235 763 277 800 294 800 c 0
 302 800 312 797 312 786 c 0
 312 781 311 780 296 765 c 0
 186 654 135 497 135 300 c 0
 135 212 147 120 173 41 c 0
 215 -87 280 -148 309 -175 c 0
 309 -176 312 -180 312 -185 c 0
 312 -196 302 -199 294 -199 c 0
 275 -199 184 -132 118 -17 c 0
 71 66 38 176 38 301 c 0
688 -185 m 0
 688 -180 689 -179 704 -164 c 0
 814 -53 865 104 865 301 c 0
 865 458 831 635 705 763 c 0
 688 779 688 781 688 786 c 0
 688 797 698 800 706 800 c 0
 725 800 816 733 882 618 c 0
 929 535 962 425 962 300 c 0
 962 194 939 10 783 -145 c 0
 765 -162 723 -199 706 -199 c 0
 698 -199 688 -196 688 -185 c 0
281 -50 m 1
 273 -50 336 -49 334 -51 c 1
 333 -52 333 -54 333 -58 c 1
 333 327 l 2
 333 354 325 352 281 352 c 1
 281 391 l 1
 422 397 l 1
 422 363 l 1
 440 377 480 397 536 397 c 0
 650 397 719 326 719 225 c 0
 719 119 641 54 523 54 c 0
 499 54 465 53 426 83 c 1
 426 84 l 1
 426 -58 l 1
 426 -54 426 -52 424 -51 c 1
 422 -50 483 -50 476 -50 c 1
 476 -89 l 1
 456 -88 410 -86 379 -86 c 0
 349 -86 301 -88 281 -89 c 1
 281 -50 l 1
426 146 m 2
 426 132 426 131 434 123 c 0
 472 81 509 83 514 83 c 0
 561 83 614 115 614 225 c 0
 614 321 571 364 522 364 c 0
 512 364 472 363 440 334 c 1
 428 322 426 321 426 303 c 1
 426 146 l 2
EndSplineSet
EndChar
StartChar: uF1FC5
Encoding: 991173 991173 1034
Width: 1000
Flags: MW
LayerCount: 2
Fore
SplineSet
38 301 m 0
 38 407 61 591 217 746 c 0
 235 763 277 800 294 800 c 0
 302 800 312 797 312 786 c 0
 312 781 311 780 296 765 c 0
 186 654 135 497 135 300 c 0
 135 212 147 120 173 41 c 0
 215 -87 280 -148 309 -175 c 0
 309 -176 312 -180 312 -185 c 0
 312 -196 302 -199 294 -199 c 0
 275 -199 184 -132 118 -17 c 0
 71 66 38 176 38 301 c 0
688 -185 m 0
 688 -180 689 -179 704 -164 c 0
 814 -53 865 104 865 301 c 0
 865 458 831 635 705 763 c 0
 688 779 688 781 688 786 c 0
 688 797 698 800 706 800 c 0
 725 800 816 733 882 618 c 0
 929 535 962 425 962 300 c 0
 962 194 939 10 783 -145 c 0
 765 -162 723 -199 706 -199 c 0
 698 -199 688 -196 688 -185 c 0
286 353 m 1
 286 391 l 1
 319 390 354 389 375 389 c 0
 372 389 445 389 471 391 c 1
 471 353 l 1
 475 353 430 353 430 358 c 1
 430 358 431 359 430 361 c 1
 528 157 l 1
 617 344 l 2
 621 352 620 350 620 350 c 0
 620 354 594 353 584 353 c 1
 584 391 l 1
 601 390 634 389 653 389 c 0
 673 389 694 389 714 391 c 1
 714 353 l 1
 666 353 665 354 662 346 c 2
 531 73 l 2
 522 55 514 54 500 54 c 0
 490 54 479 53 469 74 c 2
 331 360 l 1
 332 357 333 355 335 354 c 1
 337 353 280 353 286 353 c 1
EndSplineSet
EndChar
StartChar: uF1FC6
Encoding: 991174 991174 1035
Width: 1000
Flags: MW
LayerCount: 2
Fore
SplineSet
38 301 m 0
 38 407 61 591 217 746 c 0
 235 763 277 800 294 800 c 0
 302 800 312 797 312 786 c 0
 312 781 311 780 296 765 c 0
 186 654 135 497 135 300 c 0
 135 212 147 120 173 41 c 0
 215 -87 280 -148 309 -175 c 0
 309 -176 312 -180 312 -185 c 0
 312 -196 302 -199 294 -199 c 0
 275 -199 184 -132 118 -17 c 0
 71 66 38 176 38 301 c 0
688 -185 m 0
 688 -180 689 -179 704 -164 c 0
 814 -53 865 104 865 301 c 0
 865 458 831 635 705 763 c 0
 688 779 688 781 688 786 c 0
 688 797 698 800 706 800 c 0
 725 800 816 733 882 618 c 0
 929 535 962 425 962 300 c 0
 962 194 939 10 783 -145 c 0
 765 -162 723 -199 706 -199 c 0
 698 -199 688 -196 688 -185 c 0
199 353 m 1
 199 391 l 1
 225 390 255 389 283 389 c 0
 317 389 346 389 379 391 c 1
 379 353 l 1
 383 353 338 353 338 358 c 1
 338 359 337 360 336 362 c 1
 416 169 l 1
 475 304 l 1
 476 306 478 312 478 316 c 1
 479 314 482 310 463 356 c 1
 465 354 412 353 419 353 c 1
 419 391 l 1
 429 390 463 389 497 389 c 0
 520 389 560 390 584 391 c 1
 584 353 l 1
 588 353 542 353 542 358 c 1
 542 359 542 360 541 362 c 1
 629 152 l 1
 711 344 l 2
 711 344 714 349 714 351 c 0
 714 355 673 353 671 353 c 1
 671 391 l 1
 687 390 723 389 743 389 c 0
 761 389 784 389 801 391 c 1
 801 353 l 1
 753 353 756 348 754 345 c 2
 641 76 l 2
 635 62 631 54 610 54 c 0
 589 54 587 62 581 76 c 2
 500 264 l 1
 419 75 l 2
 414 61 411 54 390 54 c 0
 369 54 364 61 359 75 c 2
 240 360 l 1
 242 354 189 353 199 353 c 1
EndSplineSet
EndChar
StartChar: uF1FC9
Encoding: 991177 991177 1038
Width: 1000
Flags: MW
LayerCount: 2
Fore
SplineSet
38 301 m 0
 38 407 61 591 217 746 c 0
 235 763 277 800 294 800 c 0
 302 800 312 797 312 786 c 0
 312 781 311 780 296 765 c 0
 186 654 135 497 135 300 c 0
 135 212 147 120 173 41 c 0
 215 -87 280 -148 309 -175 c 0
 309 -176 312 -180 312 -185 c 0
 312 -196 302 -199 294 -199 c 0
 275 -199 184 -132 118 -17 c 0
 71 66 38 176 38 301 c 0
688 -185 m 0
 688 -180 689 -179 704 -164 c 0
 814 -53 865 104 865 301 c 0
 865 458 831 635 705 763 c 0
 688 779 688 781 688 786 c 0
 688 797 698 800 706 800 c 0
 725 800 816 733 882 618 c 0
 929 535 962 425 962 300 c 0
 962 194 939 10 783 -145 c 0
 765 -162 723 -199 706 -199 c 0
 698 -199 688 -196 688 -185 c 0
334 74 m 0
 334 82 334 82 341 90 c 2
 550 362 l 1
 491 362 l 2
 415 362 389 334 385 257 c 1
 346 257 l 1
 356 391 l 1
 639 391 l 2
 653 391 664 392 664 374 c 0
 664 366 663 364 657 356 c 2
 449 89 l 1
 507 89 l 2
 609 89 620 137 627 210 c 1
 666 210 l 1
 653 56 l 1
 359 56 l 2
 345 56 334 56 334 74 c 0
EndSplineSet
EndChar
StartChar: uF2062
Encoding: 991330 991330 169
Width: 1000
Flags: MW
LayerCount: 2
Fore
SplineSet
50 300 m 0
 50 584 236 760 501 760 c 0
 758 760 949 589 950 300 c 0
 950 21 769 -160 499 -160 c 0
 230 -160 50 24 50 300 c 0
310 205 m 0
 310 190 313 174 320 159 c 0
 328 143 340 128 356 115 c 0
 384 94 424 79 473 79 c 0
 618 79 690 145 690 236 c 0
 690 321 632 390 503 390 c 0
 483 390 431 391 392 367 c 1
 392 454 l 1
 414 450 417 450 448 450 c 0
 584 450 655 539 655 560 c 0
 655 565 654 575 644 575 c 0
 642 575 640 575 631 572 c 0
 581 554 535 551 504 551 c 0
 426 551 384 567 370 572 c 0
 363 574 362 575 360 575 c 0
 350 575 348 567 348 555 c 2
 348 335 l 2
 348 321 348 311 366 311 c 0
 377 311 379 315 385 321 c 0
 419 361 474 360 498 360 c 0
 524 360 541 357 554 342 c 0
 574 318 573 275 573 238 c 0
 573 201 573 158 542 132 c 1
 529 120 506 114 470 114 c 0
 463 114 423 113 390 134 c 0
 382 138 376 145 369 152 c 1
 366 152 l 1
 397 156 418 176 418 205 c 0
 418 251 379 260 363 260 c 0
 352 260 310 254 310 205 c 0
EndSplineSet
EndChar
StartChar: uF2064
Encoding: 991332 991332 171
Width: 1000
Flags: MW
LayerCount: 2
Fore
SplineSet
50 300 m 0
 50 584 236 760 501 760 c 0
 758 760 949 589 950 300 c 0
 950 21 769 -160 499 -160 c 0
 230 -160 50 24 50 300 c 0
303 396 m 1
 342 396 l 1
 352 464 361 464 362 464 c 0
 371 468 434 468 446 468 c 2
 579 468 l 1
 533 433 l 2
 453 354 398 249 398 137 c 0
 398 106 411 95 422 89 c 0
 434 82 448 82 448 82 c 0
 451 82 463 83 474 89 c 0
 485 95 498 107 498 138 c 2
 498 172 l 2
 498 207 500 239 504 271 c 0
 512 329 534 374 565 400 c 2
 692 533 l 2
 700 541 697 543 697 571 c 1
 543 571 l 2
 529 571 393 576 384 579 c 1
 370 582 370 587 368 595 c 1
 329 595 l 1
 303 396 l 1
EndSplineSet
EndChar
StartChar: uF269C
Encoding: 992924 992924 1040
Width: 1000
Flags: MW
LayerCount: 2
Fore
SplineSet
38 301 m 0
 38 407 61 591 217 746 c 0
 235 763 277 800 294 800 c 0
 302 800 312 797 312 786 c 0
 312 781 311 780 296 765 c 0
 186 654 135 497 135 300 c 0
 135 212 147 120 173 41 c 0
 215 -87 280 -148 309 -175 c 0
 309 -176 312 -180 312 -185 c 0
 312 -196 302 -199 294 -199 c 0
 275 -199 184 -132 118 -17 c 0
 71 66 38 176 38 301 c 0
688 -185 m 0
 688 -180 689 -179 704 -164 c 0
 814 -53 865 104 865 301 c 0
 865 458 831 635 705 763 c 0
 688 779 688 781 688 786 c 0
 688 797 698 800 706 800 c 0
 725 800 816 733 882 618 c 0
 929 535 962 425 962 300 c 0
 962 194 939 10 783 -145 c 0
 765 -162 723 -199 706 -199 c 0
 698 -199 688 -196 688 -185 c 0
529 325 m 0
 529 369 528 468 576 528 c 1
 597 550 629 575 688 575 c 0
 742 575 770 555 790 541 c 0
 847 483 846 373 846 325 c 0
 846 277 846 175 793 117 c 0
 773 100 743 79 688 79 c 0
 632 79 601 100 580 120 c 0
 529 177 529 277 529 325 c 0
618 334 m 0
 618 294 618 213 624 175 c 0
 630 124 666 109 688 109 c 0
 704 109 745 116 753 186 c 0
 756 223 757 296 757 334 c 0
 757 400 757 484 745 508 c 0
 732 531 712 545 688 545 c 0
 673 545 629 538 623 476 c 0
 618 437 618 390 618 334 c 0
154 325 m 0
 154 369 153 468 201 528 c 1
 222 550 253 575 312 575 c 0
 366 575 395 555 415 541 c 0
 472 483 471 373 471 325 c 0
 471 277 471 175 418 117 c 0
 398 100 367 79 312 79 c 0
 256 79 227 100 206 120 c 0
 155 177 154 277 154 325 c 0
244 334 m 0
 244 294 243 213 249 175 c 0
 255 124 290 109 312 109 c 0
 328 109 370 116 378 186 c 0
 381 223 382 296 382 334 c 0
 382 400 382 484 370 508 c 0
 357 531 336 545 312 545 c 0
 297 545 256 538 250 476 c 0
 245 437 244 390 244 334 c 0
EndSplineSet
EndChar
StartChar: uF269D
Encoding: 992925 992925 1041
Width: 1000
Flags: MW
LayerCount: 2
Fore
SplineSet
38 301 m 0
 38 407 61 591 217 746 c 0
 235 763 277 800 294 800 c 0
 302 800 312 797 312 786 c 0
 312 781 311 780 296 765 c 0
 186 654 135 497 135 300 c 0
 135 212 147 120 173 41 c 0
 215 -87 280 -148 309 -175 c 0
 309 -176 312 -180 312 -185 c 0
 312 -196 302 -199 294 -199 c 0
 275 -199 184 -132 118 -17 c 0
 71 66 38 176 38 301 c 0
688 -185 m 0
 688 -180 689 -179 704 -164 c 0
 814 -53 865 104 865 301 c 0
 865 458 831 635 705 763 c 0
 688 779 688 781 688 786 c 0
 688 797 698 800 706 800 c 0
 725 800 816 733 882 618 c 0
 929 535 962 425 962 300 c 0
 962 194 939 10 783 -145 c 0
 765 -162 723 -199 706 -199 c 0
 698 -199 688 -196 688 -185 c 0
550 488 m 1
 550 527 l 1
 564 527 l 1
 575 527 645 525 697 569 c 0
 704 575 704 575 714 575 c 1
 731 575 730 566 730 550 c 2
 730 115 l 1
 730 122 845 124 828 124 c 1
 822 124 l 1
 822 85 l 1
 794 87 721 88 689 88 c 0
 657 88 585 87 557 85 c 1
 557 124 l 1
 551 124 l 1
 534 124 648 122 648 115 c 1
 648 503 l 1
 609 490 572 488 564 488 c 1
 550 488 l 1
150 325 m 0
 150 369 149 468 197 528 c 1
 218 550 251 575 310 575 c 0
 364 575 391 555 411 541 c 0
 468 483 468 373 468 325 c 0
 468 277 467 175 414 117 c 0
 394 100 365 79 310 79 c 0
 254 79 223 100 202 120 c 0
 151 177 150 277 150 325 c 0
240 334 m 0
 240 294 239 213 245 175 c 0
 251 124 288 109 310 109 c 0
 326 109 366 116 374 186 c 0
 377 223 378 296 378 334 c 0
 378 400 378 484 366 508 c 0
 353 531 334 545 310 545 c 0
 295 545 252 538 246 476 c 0
 241 437 240 390 240 334 c 0
EndSplineSet
EndChar
StartChar: uF26A6
Encoding: 992934 992934 1050
Width: 1000
Flags: MW
LayerCount: 2
Fore
SplineSet
38 301 m 0
 38 407 61 591 217 746 c 0
 235 763 277 800 294 800 c 0
 302 800 312 797 312 786 c 0
 312 781 311 780 296 765 c 0
 186 654 135 497 135 300 c 0
 135 212 147 120 173 41 c 0
 215 -87 280 -148 309 -175 c 0
 309 -176 312 -180 312 -185 c 0
 312 -196 302 -199 294 -199 c 0
 275 -199 184 -132 118 -17 c 0
 71 66 38 176 38 301 c 0
688 -185 m 0
 688 -180 689 -179 704 -164 c 0
 814 -53 865 104 865 301 c 0
 865 458 831 635 705 763 c 0
 688 779 688 781 688 786 c 0
 688 797 698 800 706 800 c 0
 725 800 816 733 882 618 c 0
 929 535 962 425 962 300 c 0
 962 194 939 10 783 -145 c 0
 765 -162 723 -199 706 -199 c 0
 698 -199 688 -196 688 -185 c 0
550 490 m 1
 550 528 l 1
 567 528 l 1
 578 528 647 526 699 570 c 0
 706 576 705 576 715 576 c 1
 732 576 731 566 731 550 c 2
 731 116 l 1
 731 123 845 125 828 125 c 1
 822 125 l 1
 822 87 l 1
 794 89 722 88 690 88 c 0
 658 88 586 89 558 87 c 1
 558 125 l 1
 552 125 l 1
 535 125 648 123 648 116 c 1
 648 504 l 1
 609 491 575 490 567 490 c 1
 550 490 l 1
160 87 m 1
 160 86 160 101 160 100 c 2
 160 117 160 118 168 128 c 2
 297 281 l 2
 344 336 365 384 365 434 c 0
 365 488 336 538 283 538 c 0
 265 538 243 534 223 524 c 1
 225 522 229 522 230 520 c 0
 240 512 258 501 258 466 c 0
 258 426 231 409 208 409 c 0
 188 409 160 423 160 467 c 0
 160 535 222 576 300 576 c 0
 392 576 460 520 460 434 c 0
 460 364 419 331 356 278 c 1
 320 247 297 226 258 190 c 1
 345 190 l 2
 353 190 401 189 410 193 c 1
 419 197 424 249 426 262 c 1
 460 262 l 1
 441 87 l 1
 160 87 l 1
EndSplineSet
EndChar
StartChar: uF26AA
Encoding: 992938 992938 1054
Width: 1000
Flags: MW
LayerCount: 2
Fore
SplineSet
38 301 m 0
 38 407 61 591 217 746 c 0
 235 763 277 800 294 800 c 0
 302 800 312 797 312 786 c 0
 312 781 311 780 296 765 c 0
 186 654 135 497 135 300 c 0
 135 212 147 120 173 41 c 0
 215 -87 280 -148 309 -175 c 0
 309 -176 312 -180 312 -185 c 0
 312 -196 302 -199 294 -199 c 0
 275 -199 184 -132 118 -17 c 0
 71 66 38 176 38 301 c 0
688 -185 m 0
 688 -180 689 -179 704 -164 c 0
 814 -53 865 104 865 301 c 0
 865 458 831 635 705 763 c 0
 688 779 688 781 688 786 c 0
 688 797 698 800 706 800 c 0
 725 800 816 733 882 618 c 0
 929 535 962 425 962 300 c 0
 962 194 939 10 783 -145 c 0
 765 -162 723 -199 706 -199 c 0
 698 -199 688 -196 688 -185 c 0
538 205 m 0
 538 254 573 260 583 260 c 0
 597 260 627 251 627 205 c 0
 627 176 614 159 596 153 c 0
 596 152 590 152 587 152 c 1
 619 109 658 114 664 114 c 0
 690 114 707 120 717 132 c 1
 739 158 739 201 739 238 c 0
 739 275 739 318 725 342 c 0
 717 357 704 360 686 360 c 0
 668 360 630 361 600 321 c 0
 596 315 594 311 585 311 c 0
 570 311 568 321 568 335 c 2
 568 555 l 2
 568 567 570 575 579 575 c 0
 581 575 581 574 587 572 c 0
 599 567 635 551 690 551 c 0
 712 551 745 554 789 572 c 0
 798 575 797 575 799 575 c 0
 808 575 808 565 808 560 c 0
 808 539 746 450 650 450 c 0
 628 450 625 450 606 454 c 1
 606 367 l 1
 638 391 674 390 689 390 c 0
 790 390 838 321 838 236 c 0
 838 145 777 79 669 79 c 0
 589 79 538 141 538 205 c 0
162 85 m 1
 162 84 162 101 162 100 c 2
 162 117 163 118 171 128 c 2
 299 279 l 2
 346 334 367 383 367 433 c 0
 367 487 337 536 284 536 c 0
 266 536 246 532 226 522 c 1
 228 520 233 520 234 518 c 0
 244 510 260 499 260 464 c 0
 260 424 234 407 211 407 c 0
 191 407 162 422 162 466 c 0
 162 534 225 575 303 575 c 0
 395 575 462 520 462 434 c 0
 462 364 421 329 358 276 c 1
 322 245 299 224 260 188 c 1
 346 188 l 2
 354 188 403 189 412 193 c 1
 421 197 427 248 429 261 c 1
 462 261 l 1
 442 85 l 1
 162 85 l 1
EndSplineSet
EndChar
StartChar: uF26AB
Encoding: 992939 992939 1055
Width: 1000
Flags: MW
LayerCount: 2
Fore
SplineSet
38 301 m 0
 38 407 61 591 217 746 c 0
 235 763 277 800 294 800 c 0
 302 800 312 797 312 786 c 0
 312 781 311 780 296 765 c 0
 186 654 135 497 135 300 c 0
 135 212 147 120 173 41 c 0
 215 -87 280 -148 309 -175 c 0
 309 -176 312 -180 312 -185 c 0
 312 -196 302 -199 294 -199 c 0
 275 -199 184 -132 118 -17 c 0
 71 66 38 176 38 301 c 0
688 -185 m 0
 688 -180 689 -179 704 -164 c 0
 814 -53 865 104 865 301 c 0
 865 458 831 635 705 763 c 0
 688 779 688 781 688 786 c 0
 688 797 698 800 706 800 c 0
 725 800 816 733 882 618 c 0
 929 535 962 425 962 300 c 0
 962 194 939 10 783 -145 c 0
 765 -162 723 -199 706 -199 c 0
 698 -199 688 -196 688 -185 c 0
532 323 m 0
 532 518 643 575 729 575 c 0
 800 575 826 524 826 478 c 0
 826 450 812 427 782 427 c 0
 754 427 741 449 741 476 c 0
 741 495 748 521 774 526 c 1
 759 541 740 542 730 542 c 0
 686 542 653 511 641 479 c 0
 641 473 626 446 626 358 c 2
 626 345 l 1
 657 407 697 397 702 397 c 0
 780 397 844 347 844 239 c 0
 844 139 785 79 692 79 c 0
 645 79 596 97 565 153 c 1
 536 208 532 269 532 323 c 0
627 240 m 0
 627 226 629 173 638 152 c 0
 643 140 659 114 690 114 c 0
 728 114 740 132 744 152 c 0
 751 174 751 205 751 242 c 0
 751 282 751 314 743 336 c 0
 739 352 727 368 694 368 c 0
 666 368 627 343 627 240 c 0
164 85 m 1
 164 84 164 101 164 100 c 2
 164 117 164 118 172 128 c 2
 300 279 l 2
 347 334 369 383 369 433 c 0
 369 487 338 536 285 536 c 0
 267 536 247 532 227 522 c 1
 229 520 233 520 234 518 c 0
 244 510 261 499 261 464 c 0
 261 424 235 407 212 407 c 0
 192 407 164 422 164 466 c 0
 164 534 226 575 304 575 c 0
 396 575 464 520 464 434 c 0
 464 364 421 329 358 276 c 1
 322 245 301 224 262 188 c 1
 348 188 l 2
 356 188 404 189 413 193 c 1
 422 197 428 248 430 261 c 1
 464 261 l 1
 443 85 l 1
 164 85 l 1
EndSplineSet
EndChar
StartChar: uF26AD
Encoding: 992941 992941 1057
Width: 1000
Flags: MW
LayerCount: 2
Fore
SplineSet
38 301 m 0
 38 407 61 591 217 746 c 0
 235 763 277 800 294 800 c 0
 302 800 312 797 312 786 c 0
 312 781 311 780 296 765 c 0
 186 654 135 497 135 300 c 0
 135 212 147 120 173 41 c 0
 215 -87 280 -148 309 -175 c 0
 309 -176 312 -180 312 -185 c 0
 312 -196 302 -199 294 -199 c 0
 275 -199 184 -132 118 -17 c 0
 71 66 38 176 38 301 c 0
688 -185 m 0
 688 -180 689 -179 704 -164 c 0
 814 -53 865 104 865 301 c 0
 865 458 831 635 705 763 c 0
 688 779 688 781 688 786 c 0
 688 797 698 800 706 800 c 0
 725 800 816 733 882 618 c 0
 929 535 962 425 962 300 c 0
 962 194 939 10 783 -145 c 0
 765 -162 723 -199 706 -199 c 0
 698 -199 688 -196 688 -185 c 0
532 208 m 0
 532 260 552 301 610 331 c 1
 595 340 585 350 576 364 c 0
 559 389 554 417 554 441 c 0
 554 513 595 575 690 575 c 0
 766 575 824 544 824 466 c 0
 824 424 808 391 764 364 c 1
 771 359 793 346 811 325 c 0
 829 305 844 278 844 230 c 0
 844 148 796 79 687 79 c 0
 602 79 532 114 532 208 c 0
594 208 m 0
 594 151 626 114 690 114 c 0
 722 114 784 120 784 185 c 0
 784 219 762 232 732 252 c 1
 687 281 671 291 643 309 c 1
 631 299 594 270 594 208 c 0
606 490 m 0
 606 461 629 452 633 449 c 2
 732 386 l 1
 756 407 771 428 771 464 c 0
 771 514 742 542 687 542 c 0
 668 542 606 544 606 490 c 0
164 85 m 1
 164 84 164 101 164 100 c 2
 164 117 164 118 172 128 c 2
 300 279 l 2
 347 334 369 383 369 433 c 0
 369 487 338 536 285 536 c 0
 267 536 247 532 227 522 c 1
 229 520 233 520 234 518 c 0
 244 510 261 499 261 464 c 0
 261 424 235 407 212 407 c 0
 192 407 164 422 164 466 c 0
 164 534 226 575 304 575 c 0
 396 575 464 520 464 434 c 0
 464 364 421 329 358 276 c 1
 322 245 301 224 262 188 c 1
 348 188 l 2
 356 188 404 189 413 193 c 1
 422 197 428 248 430 261 c 1
 464 261 l 1
 443 85 l 1
 164 85 l 1
EndSplineSet
EndChar
StartChar: uF26AE
Encoding: 992942 992942 1058
Width: 1000
Flags: MW
LayerCount: 2
Fore
SplineSet
38 301 m 0
 38 407 61 591 217 746 c 0
 235 763 277 800 294 800 c 0
 302 800 312 797 312 786 c 0
 312 781 311 780 296 765 c 0
 186 654 135 497 135 300 c 0
 135 212 147 120 173 41 c 0
 215 -87 280 -148 309 -175 c 0
 309 -176 312 -180 312 -185 c 0
 312 -196 302 -199 294 -199 c 0
 275 -199 184 -132 118 -17 c 0
 71 66 38 176 38 301 c 0
688 -185 m 0
 688 -180 689 -179 704 -164 c 0
 814 -53 865 104 865 301 c 0
 865 458 831 635 705 763 c 0
 688 779 688 781 688 786 c 0
 688 797 698 800 706 800 c 0
 725 800 816 733 882 618 c 0
 929 535 962 425 962 300 c 0
 962 194 939 10 783 -145 c 0
 765 -162 723 -199 706 -199 c 0
 698 -199 688 -196 688 -185 c 0
532 415 m 0
 532 466 550 513 580 539 c 1
 607 562 645 575 690 575 c 0
 866 575 844 344 844 332 c 0
 844 132 740 79 658 79 c 0
 583 79 551 125 551 176 c 0
 551 204 564 227 594 227 c 0
 622 227 636 205 636 178 c 0
 636 139 608 130 606 128 c 1
 626 116 644 114 656 114 c 0
 706 114 732 154 739 179 c 0
 747 203 751 245 751 296 c 2
 751 310 l 1
 724 256 692 258 676 258 c 0
 597 258 532 309 532 415 c 0
626 414 m 0
 626 373 627 339 636 316 c 0
 640 303 651 287 683 287 c 0
 735 287 750 365 750 408 c 0
 750 432 751 473 743 498 c 0
 744 500 730 542 691 542 c 0
 657 542 644 530 636 514 c 0
 626 490 626 454 626 414 c 0
164 85 m 1
 164 84 164 101 164 100 c 2
 164 117 164 118 172 128 c 2
 300 279 l 2
 347 334 369 383 369 433 c 0
 369 487 338 536 285 536 c 0
 267 536 247 532 227 522 c 1
 229 520 233 520 234 518 c 0
 244 510 261 499 261 464 c 0
 261 424 235 407 212 407 c 0
 192 407 164 422 164 466 c 0
 164 534 226 575 304 575 c 0
 396 575 464 520 464 434 c 0
 464 364 421 329 358 276 c 1
 322 245 301 224 262 188 c 1
 348 188 l 2
 356 188 404 189 413 193 c 1
 422 197 428 248 430 261 c 1
 464 261 l 1
 443 85 l 1
 164 85 l 1
EndSplineSet
EndChar
StartChar: uF26AF
Encoding: 992943 992943 1059
Width: 1000
Flags: MW
LayerCount: 2
Fore
SplineSet
38 301 m 0
 38 407 61 591 217 746 c 0
 235 763 277 800 294 800 c 0
 302 800 312 797 312 786 c 0
 312 781 311 780 296 765 c 0
 186 654 135 497 135 300 c 0
 135 212 147 120 173 41 c 0
 215 -87 280 -148 309 -175 c 0
 309 -176 312 -180 312 -185 c 0
 312 -196 302 -199 294 -199 c 0
 275 -199 184 -132 118 -17 c 0
 71 66 38 176 38 301 c 0
688 -185 m 0
 688 -180 689 -179 704 -164 c 0
 814 -53 865 104 865 301 c 0
 865 458 831 635 705 763 c 0
 688 779 688 781 688 786 c 0
 688 797 698 800 706 800 c 0
 725 800 816 733 882 618 c 0
 929 535 962 425 962 300 c 0
 962 194 939 10 783 -145 c 0
 765 -162 723 -199 706 -199 c 0
 698 -199 688 -196 688 -185 c 0
530 325 m 0
 530 369 528 468 576 528 c 1
 597 550 629 575 688 575 c 0
 742 575 770 555 790 541 c 0
 847 483 846 373 846 325 c 0
 846 277 846 175 793 117 c 0
 773 100 743 79 688 79 c 0
 632 79 603 100 582 120 c 0
 531 177 530 277 530 325 c 0
620 334 m 0
 620 294 619 213 625 175 c 0
 631 124 666 109 688 109 c 0
 704 109 746 116 754 186 c 0
 757 223 757 296 757 334 c 0
 757 400 758 484 746 508 c 0
 733 531 712 545 688 545 c 0
 673 545 630 538 624 476 c 0
 619 437 620 390 620 334 c 0
157 191 m 0
 157 230 179 252 209 252 c 0
 239 252 261 228 261 192 c 0
 261 160 247 142 226 132 c 1
 260 116 287 114 300 114 c 0
 377 114 364 205 364 223 c 0
 364 252 370 332 297 332 c 2
 269 332 l 2
 257 332 251 331 251 347 c 0
 251 350 251 359 258 360 c 0
 260 361 258 361 290 363 c 0
 316 365 330 382 337 396 c 1
 355 426 354 468 354 473 c 0
 354 487 361 542 301 542 c 0
 283 542 258 538 236 521 c 1
 236 520 273 510 273 464 c 0
 273 434 255 409 225 409 c 0
 199 409 178 432 178 466 c 0
 178 527 227 575 305 575 c 0
 402 575 448 528 448 471 c 0
 448 406 400 364 359 349 c 1
 457 324 469 259 469 223 c 0
 469 157 427 79 304 79 c 0
 220 79 157 123 157 191 c 0
EndSplineSet
EndChar
StartChar: uF26B0
Encoding: 992944 992944 1060
Width: 1000
Flags: MW
LayerCount: 2
Fore
SplineSet
38 301 m 0
 38 407 61 591 217 746 c 0
 235 763 277 800 294 800 c 0
 302 800 312 797 312 786 c 0
 312 781 311 780 296 765 c 0
 186 654 135 497 135 300 c 0
 135 212 147 120 173 41 c 0
 215 -87 280 -148 309 -175 c 0
 309 -176 312 -180 312 -185 c 0
 312 -196 302 -199 294 -199 c 0
 275 -199 184 -132 118 -17 c 0
 71 66 38 176 38 301 c 0
688 -185 m 0
 688 -180 689 -179 704 -164 c 0
 814 -53 865 104 865 301 c 0
 865 458 831 635 705 763 c 0
 688 779 688 781 688 786 c 0
 688 797 698 800 706 800 c 0
 725 800 816 733 882 618 c 0
 929 535 962 425 962 300 c 0
 962 194 939 10 783 -145 c 0
 765 -162 723 -199 706 -199 c 0
 698 -199 688 -196 688 -185 c 0
550 488 m 1
 550 527 l 1
 566 527 l 1
 577 527 646 525 698 569 c 0
 705 575 704 575 714 575 c 1
 731 575 731 566 731 550 c 2
 731 115 l 1
 731 122 845 124 828 124 c 1
 822 124 l 1
 822 85 l 1
 794 87 721 88 689 88 c 0
 657 88 586 87 558 85 c 1
 558 124 l 1
 552 124 l 1
 535 124 648 122 648 115 c 1
 648 503 l 1
 609 490 574 488 566 488 c 1
 550 488 l 1
153 191 m 0
 153 230 175 252 205 252 c 0
 235 252 257 228 257 192 c 0
 257 160 243 142 222 132 c 1
 256 116 283 114 296 114 c 0
 373 114 360 205 360 223 c 0
 360 252 367 332 294 332 c 2
 267 332 l 2
 255 332 248 331 248 347 c 0
 248 350 247 359 254 360 c 0
 256 361 254 361 286 363 c 0
 312 365 326 382 333 396 c 1
 351 426 350 468 350 473 c 0
 350 487 357 542 297 542 c 0
 279 542 254 538 232 521 c 1
 232 520 269 510 269 464 c 0
 269 434 251 409 221 409 c 0
 195 409 174 432 174 466 c 0
 174 527 223 575 301 575 c 0
 398 575 444 528 444 471 c 0
 444 406 397 364 356 349 c 1
 454 324 466 259 466 223 c 0
 466 157 423 79 300 79 c 0
 216 79 153 123 153 191 c 0
EndSplineSet
EndChar
StartChar: uF26B2
Encoding: 992946 992946 1062
Width: 1000
Flags: MW
LayerCount: 2
Fore
SplineSet
38 301 m 0
 38 407 61 591 217 746 c 0
 235 763 277 800 294 800 c 0
 302 800 312 797 312 786 c 0
 312 781 311 780 296 765 c 0
 186 654 135 497 135 300 c 0
 135 212 147 120 173 41 c 0
 215 -87 280 -148 309 -175 c 0
 309 -176 312 -180 312 -185 c 0
 312 -196 302 -199 294 -199 c 0
 275 -199 184 -132 118 -17 c 0
 71 66 38 176 38 301 c 0
688 -185 m 0
 688 -180 689 -179 704 -164 c 0
 814 -53 865 104 865 301 c 0
 865 458 831 635 705 763 c 0
 688 779 688 781 688 786 c 0
 688 797 698 800 706 800 c 0
 725 800 816 733 882 618 c 0
 929 535 962 425 962 300 c 0
 962 194 939 10 783 -145 c 0
 765 -162 723 -199 706 -199 c 0
 698 -199 688 -196 688 -185 c 0
532 191 m 0
 532 230 554 252 584 252 c 0
 614 252 635 228 635 192 c 0
 635 160 622 142 601 132 c 1
 635 116 662 114 675 114 c 0
 752 114 739 205 739 223 c 0
 739 252 744 332 671 332 c 2
 644 332 l 2
 632 332 625 331 625 347 c 0
 625 350 627 359 634 360 c 0
 636 361 633 361 665 363 c 0
 691 365 704 382 711 396 c 1
 729 426 728 468 728 473 c 0
 728 487 736 542 676 542 c 0
 658 542 633 538 611 521 c 1
 611 520 647 510 647 464 c 0
 647 434 630 409 600 409 c 0
 574 409 552 432 552 466 c 0
 552 527 602 575 680 575 c 0
 777 575 822 528 822 471 c 0
 822 406 774 364 733 349 c 1
 831 324 844 259 844 223 c 0
 844 157 801 79 678 79 c 0
 594 79 532 123 532 191 c 0
156 191 m 0
 156 230 179 252 209 252 c 0
 239 252 260 228 260 192 c 0
 260 160 247 142 226 132 c 1
 260 116 285 114 298 114 c 0
 375 114 364 205 364 223 c 0
 364 252 370 332 297 332 c 2
 269 332 l 2
 257 332 250 331 250 347 c 0
 250 350 250 359 257 360 c 0
 259 361 258 361 290 363 c 0
 316 365 329 382 336 396 c 1
 354 426 353 468 353 473 c 0
 353 487 361 542 301 542 c 0
 283 542 258 538 236 521 c 1
 236 520 272 510 272 464 c 0
 272 434 254 409 224 409 c 0
 198 409 178 432 178 466 c 0
 178 527 227 575 305 575 c 0
 402 575 448 528 448 471 c 0
 448 406 399 364 358 349 c 1
 456 324 468 259 468 223 c 0
 468 157 426 79 303 79 c 0
 219 79 156 123 156 191 c 0
EndSplineSet
EndChar
StartChar: uF26B3
Encoding: 992947 992947 1063
Width: 1000
Flags: MW
LayerCount: 2
Fore
SplineSet
38 301 m 0
 38 407 61 591 217 746 c 0
 235 763 277 800 294 800 c 0
 302 800 312 797 312 786 c 0
 312 781 311 780 296 765 c 0
 186 654 135 497 135 300 c 0
 135 212 147 120 173 41 c 0
 215 -87 280 -148 309 -175 c 0
 309 -176 312 -180 312 -185 c 0
 312 -196 302 -199 294 -199 c 0
 275 -199 184 -132 118 -17 c 0
 71 66 38 176 38 301 c 0
688 -185 m 0
 688 -180 689 -179 704 -164 c 0
 814 -53 865 104 865 301 c 0
 865 458 831 635 705 763 c 0
 688 779 688 781 688 786 c 0
 688 797 698 800 706 800 c 0
 725 800 816 733 882 618 c 0
 929 535 962 425 962 300 c 0
 962 194 939 10 783 -145 c 0
 765 -162 723 -199 706 -199 c 0
 698 -199 688 -196 688 -185 c 0
523 201 m 1
 523 239 l 1
 750 561 l 2
 758 573 758 574 774 574 c 0
 794 574 796 570 796 549 c 2
 796 239 l 1
 856 239 l 1
 856 201 l 1
 796 201 l 1
 796 115 l 1
 796 122 875 124 861 124 c 1
 857 124 l 1
 857 86 l 1
 837 88 774 88 750 88 c 0
 723 88 659 88 635 86 c 1
 635 124 l 1
 631 124 l 1
 617 124 708 122 708 115 c 1
 708 201 l 1
 523 201 l 1
559 239 m 1
 716 239 l 1
 716 459 l 1
 559 239 l 1
158 190 m 0
 158 229 180 252 210 252 c 0
 240 252 262 227 262 191 c 0
 262 159 248 142 227 132 c 1
 261 116 288 115 301 115 c 0
 378 115 364 204 364 222 c 0
 364 251 371 331 298 331 c 2
 271 331 l 2
 259 331 252 331 252 347 c 0
 252 350 252 359 259 360 c 0
 261 361 260 361 292 363 c 0
 318 365 331 382 338 396 c 1
 356 426 355 468 355 473 c 0
 355 487 363 543 303 543 c 0
 285 543 260 538 238 521 c 1
 238 520 274 510 274 464 c 0
 274 434 256 409 226 409 c 0
 200 409 179 431 179 465 c 0
 179 526 229 575 307 575 c 0
 404 575 449 527 449 470 c 0
 449 405 401 365 360 350 c 1
 458 325 470 258 470 222 c 0
 470 156 428 79 305 79 c 0
 221 79 158 122 158 190 c 0
EndSplineSet
EndChar
StartChar: uF26B4
Encoding: 992948 992948 1064
Width: 1000
Flags: MW
LayerCount: 2
Fore
SplineSet
38 301 m 0
 38 407 61 591 217 746 c 0
 235 763 277 800 294 800 c 0
 302 800 312 797 312 786 c 0
 312 781 311 780 296 765 c 0
 186 654 135 497 135 300 c 0
 135 212 147 120 173 41 c 0
 215 -87 280 -148 309 -175 c 0
 309 -176 312 -180 312 -185 c 0
 312 -196 302 -199 294 -199 c 0
 275 -199 184 -132 118 -17 c 0
 71 66 38 176 38 301 c 0
688 -185 m 0
 688 -180 689 -179 704 -164 c 0
 814 -53 865 104 865 301 c 0
 865 458 831 635 705 763 c 0
 688 779 688 781 688 786 c 0
 688 797 698 800 706 800 c 0
 725 800 816 733 882 618 c 0
 929 535 962 425 962 300 c 0
 962 194 939 10 783 -145 c 0
 765 -162 723 -199 706 -199 c 0
 698 -199 688 -196 688 -185 c 0
536 205 m 0
 536 254 572 260 582 260 c 0
 596 260 627 251 627 205 c 0
 627 176 612 159 594 153 c 0
 594 152 591 152 588 152 c 1
 620 109 659 114 665 114 c 0
 691 114 706 120 716 132 c 1
 738 158 738 201 738 238 c 0
 738 275 738 318 724 342 c 0
 716 357 702 360 684 360 c 0
 666 360 629 361 599 321 c 0
 595 315 593 311 584 311 c 0
 569 311 569 321 569 335 c 2
 569 555 l 2
 569 567 568 575 577 575 c 0
 579 575 581 574 587 572 c 0
 599 567 633 551 688 551 c 0
 710 551 743 554 787 572 c 0
 796 575 796 575 798 575 c 0
 807 575 807 565 807 560 c 0
 807 539 746 450 650 450 c 0
 628 450 625 450 606 454 c 1
 606 367 l 1
 638 391 673 390 688 390 c 0
 789 390 836 321 836 236 c 0
 836 145 775 79 667 79 c 0
 587 79 536 141 536 205 c 0
156 191 m 0
 156 230 178 252 208 252 c 0
 238 252 259 228 259 192 c 0
 259 160 246 142 225 132 c 1
 259 116 286 114 299 114 c 0
 376 114 363 205 363 223 c 0
 363 252 368 332 295 332 c 2
 268 332 l 2
 256 332 249 331 249 347 c 0
 249 350 251 359 258 360 c 0
 260 361 257 361 289 363 c 0
 315 365 328 382 335 396 c 1
 353 426 352 468 352 473 c 0
 352 487 360 542 300 542 c 0
 282 542 257 538 235 521 c 1
 235 520 271 510 271 464 c 0
 271 434 254 409 224 409 c 0
 198 409 176 432 176 466 c 0
 176 527 226 575 304 575 c 0
 401 575 446 528 446 471 c 0
 446 406 398 364 357 349 c 1
 455 324 468 259 468 223 c 0
 468 157 425 79 302 79 c 0
 218 79 156 123 156 191 c 0
EndSplineSet
EndChar
StartChar: uF26B5
Encoding: 992949 992949 1065
Width: 1000
Flags: MW
LayerCount: 2
Fore
SplineSet
38 301 m 0
 38 407 61 591 217 746 c 0
 235 763 277 800 294 800 c 0
 302 800 312 797 312 786 c 0
 312 781 311 780 296 765 c 0
 186 654 135 497 135 300 c 0
 135 212 147 120 173 41 c 0
 215 -87 280 -148 309 -175 c 0
 309 -176 312 -180 312 -185 c 0
 312 -196 302 -199 294 -199 c 0
 275 -199 184 -132 118 -17 c 0
 71 66 38 176 38 301 c 0
688 -185 m 0
 688 -180 689 -179 704 -164 c 0
 814 -53 865 104 865 301 c 0
 865 458 831 635 705 763 c 0
 688 779 688 781 688 786 c 0
 688 797 698 800 706 800 c 0
 725 800 816 733 882 618 c 0
 929 535 962 425 962 300 c 0
 962 194 939 10 783 -145 c 0
 765 -162 723 -199 706 -199 c 0
 698 -199 688 -196 688 -185 c 0
532 323 m 0
 532 518 642 575 728 575 c 0
 799 575 825 524 825 478 c 0
 825 450 813 427 783 427 c 0
 755 427 740 449 740 476 c 0
 740 495 748 521 774 526 c 1
 759 541 740 542 730 542 c 0
 686 542 652 511 640 479 c 0
 640 473 625 446 625 358 c 2
 625 345 l 1
 656 407 695 397 700 397 c 0
 778 397 844 347 844 239 c 0
 844 139 783 79 690 79 c 0
 643 79 595 97 564 153 c 1
 535 208 532 269 532 323 c 0
628 240 m 0
 628 226 627 173 636 152 c 0
 641 140 658 114 689 114 c 0
 727 114 739 132 743 152 c 0
 750 174 750 205 750 242 c 0
 750 282 750 314 742 336 c 0
 738 352 726 368 693 368 c 0
 665 368 628 343 628 240 c 0
156 191 m 0
 156 230 179 252 209 252 c 0
 239 252 260 228 260 192 c 0
 260 160 247 142 226 132 c 1
 260 116 285 114 298 114 c 0
 375 114 364 205 364 223 c 0
 364 252 370 332 297 332 c 2
 269 332 l 2
 257 332 250 331 250 347 c 0
 250 350 250 359 257 360 c 0
 259 361 258 361 290 363 c 0
 316 365 329 382 336 396 c 1
 354 426 353 468 353 473 c 0
 353 487 361 542 301 542 c 0
 283 542 258 538 236 521 c 1
 236 520 272 510 272 464 c 0
 272 434 254 409 224 409 c 0
 198 409 178 432 178 466 c 0
 178 527 227 575 305 575 c 0
 402 575 448 528 448 471 c 0
 448 406 399 364 358 349 c 1
 456 324 468 259 468 223 c 0
 468 157 426 79 303 79 c 0
 219 79 156 123 156 191 c 0
EndSplineSet
EndChar
StartChar: uF26B9
Encoding: 992953 992953 1069
Width: 1000
Flags: MW
LayerCount: 2
Fore
SplineSet
38 301 m 0
 38 407 61 591 217 746 c 0
 235 763 277 800 294 800 c 0
 302 800 312 797 312 786 c 0
 312 781 311 780 296 765 c 0
 186 654 135 497 135 300 c 0
 135 212 147 120 173 41 c 0
 215 -87 280 -148 309 -175 c 0
 309 -176 312 -180 312 -185 c 0
 312 -196 302 -199 294 -199 c 0
 275 -199 184 -132 118 -17 c 0
 71 66 38 176 38 301 c 0
688 -185 m 0
 688 -180 689 -179 704 -164 c 0
 814 -53 865 104 865 301 c 0
 865 458 831 635 705 763 c 0
 688 779 688 781 688 786 c 0
 688 797 698 800 706 800 c 0
 725 800 816 733 882 618 c 0
 929 535 962 425 962 300 c 0
 962 194 939 10 783 -145 c 0
 765 -162 723 -199 706 -199 c 0
 698 -199 688 -196 688 -185 c 0
528 324 m 0
 528 368 527 468 575 528 c 1
 596 550 627 575 686 575 c 0
 740 575 768 555 788 541 c 0
 845 483 844 372 844 324 c 0
 844 276 844 175 791 117 c 0
 771 100 741 79 686 79 c 0
 630 79 601 100 580 120 c 0
 529 177 528 276 528 324 c 0
618 334 m 0
 618 294 617 214 623 176 c 0
 629 125 664 108 686 108 c 0
 702 108 744 116 752 186 c 0
 755 223 755 296 755 334 c 0
 755 400 756 484 744 508 c 0
 731 531 710 545 686 545 c 0
 671 545 628 538 622 476 c 0
 617 437 618 390 618 334 c 0
145 201 m 1
 145 239 l 1
 372 561 l 2
 380 573 380 574 396 574 c 0
 416 574 418 570 418 549 c 2
 418 239 l 1
 478 239 l 1
 478 201 l 1
 418 201 l 1
 418 115 l 1
 418 122 497 124 483 124 c 1
 479 124 l 1
 479 86 l 1
 459 88 396 88 372 88 c 0
 345 88 280 88 256 86 c 1
 256 124 l 1
 252 124 l 1
 238 124 330 122 330 115 c 1
 330 201 l 1
 145 201 l 1
181 239 m 1
 338 239 l 1
 338 459 l 1
 181 239 l 1
EndSplineSet
EndChar
StartChar: uF26BA
Encoding: 992954 992954 1070
Width: 1000
Flags: MW
LayerCount: 2
Fore
SplineSet
38 301 m 0
 38 407 61 591 217 746 c 0
 235 763 277 800 294 800 c 0
 302 800 312 797 312 786 c 0
 312 781 311 780 296 765 c 0
 186 654 135 497 135 300 c 0
 135 212 147 120 173 41 c 0
 215 -87 280 -148 309 -175 c 0
 309 -176 312 -180 312 -185 c 0
 312 -196 302 -199 294 -199 c 0
 275 -199 184 -132 118 -17 c 0
 71 66 38 176 38 301 c 0
688 -185 m 0
 688 -180 689 -179 704 -164 c 0
 814 -53 865 104 865 301 c 0
 865 458 831 635 705 763 c 0
 688 779 688 781 688 786 c 0
 688 797 698 800 706 800 c 0
 725 800 816 733 882 618 c 0
 929 535 962 425 962 300 c 0
 962 194 939 10 783 -145 c 0
 765 -162 723 -199 706 -199 c 0
 698 -199 688 -196 688 -185 c 0
548 489 m 1
 548 527 l 1
 564 527 l 1
 575 527 644 526 696 570 c 0
 703 576 702 575 712 575 c 1
 729 575 729 566 729 550 c 2
 729 115 l 1
 729 122 842 124 825 124 c 1
 819 124 l 1
 819 86 l 1
 791 88 720 88 688 88 c 0
 656 88 584 88 556 86 c 1
 556 124 l 1
 550 124 l 1
 533 124 646 122 646 115 c 1
 646 503 l 1
 607 490 572 489 564 489 c 1
 548 489 l 1
142 202 m 1
 142 240 l 1
 369 562 l 2
 377 574 376 574 392 574 c 0
 412 574 414 570 414 549 c 2
 414 240 l 1
 474 240 l 1
 474 202 l 1
 414 202 l 1
 414 116 l 1
 414 123 493 124 479 124 c 1
 475 124 l 1
 475 86 l 1
 455 88 392 88 368 88 c 0
 341 88 278 88 254 86 c 1
 254 124 l 1
 250 124 l 1
 236 124 326 123 326 116 c 1
 326 202 l 1
 142 202 l 1
178 240 m 1
 334 240 l 1
 334 461 l 1
 178 240 l 1
EndSplineSet
EndChar
StartChar: uF26C0
Encoding: 992960 992960 1076
Width: 1000
Flags: MW
LayerCount: 2
Fore
SplineSet
38 301 m 0
 38 407 61 591 217 746 c 0
 235 763 277 800 294 800 c 0
 302 800 312 797 312 786 c 0
 312 781 311 780 296 765 c 0
 186 654 135 497 135 300 c 0
 135 212 147 120 173 41 c 0
 215 -87 280 -148 309 -175 c 0
 309 -176 312 -180 312 -185 c 0
 312 -196 302 -199 294 -199 c 0
 275 -199 184 -132 118 -17 c 0
 71 66 38 176 38 301 c 0
688 -185 m 0
 688 -180 689 -179 704 -164 c 0
 814 -53 865 104 865 301 c 0
 865 458 831 635 705 763 c 0
 688 779 688 781 688 786 c 0
 688 797 698 800 706 800 c 0
 725 800 816 733 882 618 c 0
 929 535 962 425 962 300 c 0
 962 194 939 10 783 -145 c 0
 765 -162 723 -199 706 -199 c 0
 698 -199 688 -196 688 -185 c 0
544 396 m 1
 566 595 l 1
 600 595 l 1
 602 587 601 582 613 579 c 1
 621 576 736 571 746 571 c 2
 866 571 l 1
 866 543 867 541 860 533 c 2
 758 400 l 2
 739 373 724 334 717 276 c 0
 713 242 712 207 712 172 c 2
 712 138 l 2
 712 78 672 82 668 82 c 0
 672 82 626 74 626 137 c 0
 626 257 678 358 740 438 c 1
 736 432 766 471 764 468 c 1
 665 468 l 2
 654 468 604 468 595 464 c 0
 595 464 585 464 577 396 c 1
 544 396 l 1
148 204 m 1
 148 242 l 1
 376 564 l 2
 384 576 383 576 399 576 c 0
 419 576 421 572 421 551 c 2
 421 242 l 1
 481 242 l 1
 481 204 l 1
 421 204 l 1
 421 118 l 1
 421 125 500 126 486 126 c 1
 482 126 l 1
 482 88 l 1
 462 90 399 90 375 90 c 0
 348 90 283 90 259 88 c 1
 259 126 l 1
 255 126 l 1
 241 126 333 125 333 118 c 1
 333 204 l 1
 148 204 l 1
185 242 m 1
 341 242 l 1
 341 463 l 1
 185 242 l 1
EndSplineSet
EndChar
StartChar: uF26C1
Encoding: 992961 992961 1077
Width: 1000
Flags: MW
LayerCount: 2
Fore
SplineSet
38 301 m 0
 38 407 61 591 217 746 c 0
 235 763 277 800 294 800 c 0
 302 800 312 797 312 786 c 0
 312 781 311 780 296 765 c 0
 186 654 135 497 135 300 c 0
 135 212 147 120 173 41 c 0
 215 -87 280 -148 309 -175 c 0
 309 -176 312 -180 312 -185 c 0
 312 -196 302 -199 294 -199 c 0
 275 -199 184 -132 118 -17 c 0
 71 66 38 176 38 301 c 0
688 -185 m 0
 688 -180 689 -179 704 -164 c 0
 814 -53 865 104 865 301 c 0
 865 458 831 635 705 763 c 0
 688 779 688 781 688 786 c 0
 688 797 698 800 706 800 c 0
 725 800 816 733 882 618 c 0
 929 535 962 425 962 300 c 0
 962 194 939 10 783 -145 c 0
 765 -162 723 -199 706 -199 c 0
 698 -199 688 -196 688 -185 c 0
530 208 m 0
 530 260 549 300 607 330 c 1
 592 339 583 351 574 365 c 0
 557 390 551 418 551 442 c 0
 551 514 592 575 687 575 c 0
 763 575 821 543 821 465 c 0
 821 423 805 391 761 364 c 1
 768 359 790 346 808 325 c 0
 826 305 842 277 842 229 c 0
 842 147 793 79 684 79 c 0
 599 79 530 114 530 208 c 0
591 208 m 0
 591 151 623 115 687 115 c 0
 719 115 782 120 782 185 c 0
 782 219 760 232 730 252 c 1
 685 281 668 290 640 308 c 1
 628 298 591 270 591 208 c 0
604 490 m 0
 604 461 626 452 630 449 c 2
 729 385 l 1
 753 406 768 428 768 464 c 0
 768 514 739 543 684 543 c 0
 665 543 604 544 604 490 c 0
144 201 m 1
 144 239 l 1
 372 561 l 2
 380 573 380 574 396 574 c 0
 416 574 417 570 417 549 c 2
 417 239 l 1
 477 239 l 1
 477 201 l 1
 417 201 l 1
 417 115 l 1
 417 122 496 124 482 124 c 1
 478 124 l 1
 478 86 l 1
 458 88 396 88 372 88 c 0
 345 88 280 88 256 86 c 1
 256 124 l 1
 252 124 l 1
 238 124 329 122 329 115 c 1
 329 201 l 1
 144 201 l 1
181 239 m 1
 337 239 l 1
 337 459 l 1
 181 239 l 1
EndSplineSet
EndChar
StartChar: uF26CE
Encoding: 992974 992974 1090
Width: 1000
Flags: MW
LayerCount: 2
Fore
SplineSet
38 301 m 0
 38 407 61 591 217 746 c 0
 235 763 277 800 294 800 c 0
 302 800 312 797 312 786 c 0
 312 781 311 780 296 765 c 0
 186 654 135 497 135 300 c 0
 135 212 147 120 173 41 c 0
 215 -87 280 -148 309 -175 c 0
 309 -176 312 -180 312 -185 c 0
 312 -196 302 -199 294 -199 c 0
 275 -199 184 -132 118 -17 c 0
 71 66 38 176 38 301 c 0
688 -185 m 0
 688 -180 689 -179 704 -164 c 0
 814 -53 865 104 865 301 c 0
 865 458 831 635 705 763 c 0
 688 779 688 781 688 786 c 0
 688 797 698 800 706 800 c 0
 725 800 816 733 882 618 c 0
 929 535 962 425 962 300 c 0
 962 194 939 10 783 -145 c 0
 765 -162 723 -199 706 -199 c 0
 698 -199 688 -196 688 -185 c 0
550 488 m 1
 550 527 l 1
 566 527 l 1
 577 527 646 525 698 569 c 0
 705 575 704 575 714 575 c 1
 731 575 731 566 731 550 c 2
 731 115 l 1
 731 122 845 124 828 124 c 1
 822 124 l 1
 822 85 l 1
 794 87 721 88 689 88 c 0
 657 88 586 87 558 85 c 1
 558 124 l 1
 552 124 l 1
 535 124 648 122 648 115 c 1
 648 503 l 1
 609 490 574 488 566 488 c 1
 550 488 l 1
153 323 m 0
 153 518 264 575 350 575 c 0
 421 575 446 524 446 478 c 0
 446 450 434 427 404 427 c 0
 376 427 361 449 361 476 c 0
 361 495 370 521 396 526 c 1
 381 541 361 542 351 542 c 0
 307 542 273 511 261 479 c 0
 261 473 248 446 248 358 c 2
 248 345 l 1
 279 407 317 397 322 397 c 0
 400 397 466 347 466 239 c 0
 466 139 405 79 312 79 c 0
 265 79 216 97 185 153 c 1
 156 208 153 269 153 323 c 0
248 240 m 0
 248 226 250 173 259 152 c 0
 264 140 279 114 310 114 c 0
 348 114 360 132 364 152 c 0
 371 174 371 205 371 242 c 0
 371 282 372 314 364 336 c 0
 360 352 347 368 314 368 c 0
 286 368 248 343 248 240 c 0
EndSplineSet
EndChar
StartChar: uF26D0
Encoding: 992976 992976 1092
Width: 1000
Flags: MW
LayerCount: 2
Fore
SplineSet
38 301 m 0
 38 407 61 591 217 746 c 0
 235 763 277 800 294 800 c 0
 302 800 312 797 312 786 c 0
 312 781 311 780 296 765 c 0
 186 654 135 497 135 300 c 0
 135 212 147 120 173 41 c 0
 215 -87 280 -148 309 -175 c 0
 309 -176 312 -180 312 -185 c 0
 312 -196 302 -199 294 -199 c 0
 275 -199 184 -132 118 -17 c 0
 71 66 38 176 38 301 c 0
688 -185 m 0
 688 -180 689 -179 704 -164 c 0
 814 -53 865 104 865 301 c 0
 865 458 831 635 705 763 c 0
 688 779 688 781 688 786 c 0
 688 797 698 800 706 800 c 0
 725 800 816 733 882 618 c 0
 929 535 962 425 962 300 c 0
 962 194 939 10 783 -145 c 0
 765 -162 723 -199 706 -199 c 0
 698 -199 688 -196 688 -185 c 0
532 191 m 0
 532 230 554 252 584 252 c 0
 614 252 635 228 635 192 c 0
 635 160 622 142 601 132 c 1
 635 116 662 114 675 114 c 0
 752 114 739 205 739 223 c 0
 739 252 744 332 671 332 c 2
 644 332 l 2
 632 332 625 331 625 347 c 0
 625 350 627 359 634 360 c 0
 636 361 633 361 665 363 c 0
 691 365 704 382 711 396 c 1
 729 426 728 468 728 473 c 0
 728 487 736 542 676 542 c 0
 658 542 633 538 611 521 c 1
 611 520 647 510 647 464 c 0
 647 434 630 409 600 409 c 0
 574 409 552 432 552 466 c 0
 552 527 602 575 680 575 c 0
 777 575 822 528 822 471 c 0
 822 406 774 364 733 349 c 1
 831 324 844 259 844 223 c 0
 844 157 801 79 678 79 c 0
 594 79 532 123 532 191 c 0
156 323 m 0
 156 518 267 575 353 575 c 0
 424 575 450 524 450 478 c 0
 450 450 436 427 406 427 c 0
 378 427 365 449 365 476 c 0
 365 495 372 521 398 526 c 1
 383 541 364 542 354 542 c 0
 310 542 277 511 265 479 c 0
 265 473 250 446 250 358 c 2
 250 345 l 1
 281 407 321 397 326 397 c 0
 404 397 468 347 468 239 c 0
 468 139 409 79 316 79 c 0
 269 79 220 97 189 153 c 1
 160 208 156 269 156 323 c 0
251 240 m 0
 251 226 253 173 262 152 c 0
 267 140 283 114 314 114 c 0
 352 114 364 132 368 152 c 0
 375 174 375 205 375 242 c 0
 375 282 375 314 367 336 c 0
 363 352 351 368 318 368 c 0
 290 368 251 343 251 240 c 0
EndSplineSet
EndChar
StartChar: uF26D5
Encoding: 992981 992981 1097
Width: 1000
Flags: MW
LayerCount: 2
Fore
SplineSet
38 301 m 0
 38 407 61 591 217 746 c 0
 235 763 277 800 294 800 c 0
 302 800 312 797 312 786 c 0
 312 781 311 780 296 765 c 0
 186 654 135 497 135 300 c 0
 135 212 147 120 173 41 c 0
 215 -87 280 -148 309 -175 c 0
 309 -176 312 -180 312 -185 c 0
 312 -196 302 -199 294 -199 c 0
 275 -199 184 -132 118 -17 c 0
 71 66 38 176 38 301 c 0
688 -185 m 0
 688 -180 689 -179 704 -164 c 0
 814 -53 865 104 865 301 c 0
 865 458 831 635 705 763 c 0
 688 779 688 781 688 786 c 0
 688 797 698 800 706 800 c 0
 725 800 816 733 882 618 c 0
 929 535 962 425 962 300 c 0
 962 194 939 10 783 -145 c 0
 765 -162 723 -199 706 -199 c 0
 698 -199 688 -196 688 -185 c 0
532 208 m 0
 532 260 551 301 609 331 c 1
 594 340 584 350 575 364 c 0
 558 389 552 417 552 441 c 0
 552 513 595 575 690 575 c 0
 766 575 822 544 822 466 c 0
 822 424 806 391 762 364 c 1
 769 359 792 346 810 325 c 0
 828 305 844 278 844 230 c 0
 844 148 795 79 686 79 c 0
 601 79 532 114 532 208 c 0
593 208 m 0
 593 151 626 114 690 114 c 0
 722 114 782 120 782 185 c 0
 782 219 762 232 732 252 c 1
 687 281 670 291 642 309 c 1
 630 299 593 270 593 208 c 0
605 490 m 0
 605 461 628 452 632 449 c 2
 731 386 l 1
 755 407 770 428 770 464 c 0
 770 514 741 542 686 542 c 0
 667 542 605 544 605 490 c 0
156 323 m 0
 156 518 267 575 353 575 c 0
 424 575 450 524 450 478 c 0
 450 450 436 427 406 427 c 0
 378 427 365 449 365 476 c 0
 365 495 372 521 398 526 c 1
 383 541 364 542 354 542 c 0
 310 542 277 511 265 479 c 0
 265 473 250 446 250 358 c 2
 250 345 l 1
 281 407 321 397 326 397 c 0
 404 397 468 347 468 239 c 0
 468 139 409 79 316 79 c 0
 269 79 220 97 189 153 c 1
 160 208 156 269 156 323 c 0
251 240 m 0
 251 226 253 173 262 152 c 0
 267 140 283 114 314 114 c 0
 352 114 364 132 368 152 c 0
 375 174 375 205 375 242 c 0
 375 282 375 314 367 336 c 0
 363 352 351 368 318 368 c 0
 290 368 251 343 251 240 c 0
EndSplineSet
EndChar
StartChar: uF26D8
Encoding: 992984 992984 1100
Width: 1000
Flags: MW
LayerCount: 2
Fore
SplineSet
38 301 m 0
 38 407 61 591 217 746 c 0
 235 763 277 800 294 800 c 0
 302 800 312 797 312 786 c 0
 312 781 311 780 296 765 c 0
 186 654 135 497 135 300 c 0
 135 212 147 120 173 41 c 0
 215 -87 280 -148 309 -175 c 0
 309 -176 312 -180 312 -185 c 0
 312 -196 302 -199 294 -199 c 0
 275 -199 184 -132 118 -17 c 0
 71 66 38 176 38 301 c 0
688 -185 m 0
 688 -180 689 -179 704 -164 c 0
 814 -53 865 104 865 301 c 0
 865 458 831 635 705 763 c 0
 688 779 688 781 688 786 c 0
 688 797 698 800 706 800 c 0
 725 800 816 733 882 618 c 0
 929 535 962 425 962 300 c 0
 962 194 939 10 783 -145 c 0
 765 -162 723 -199 706 -199 c 0
 698 -199 688 -196 688 -185 c 0
552 491 m 1
 552 529 l 1
 566 529 l 1
 577 529 647 528 699 572 c 0
 706 578 706 577 716 577 c 1
 733 577 732 568 732 552 c 2
 732 117 l 1
 732 124 847 126 830 126 c 1
 824 126 l 1
 824 88 l 1
 796 90 723 90 691 90 c 0
 659 90 587 90 559 88 c 1
 559 126 l 1
 553 126 l 1
 536 126 650 124 650 117 c 1
 650 505 l 1
 611 492 574 491 566 491 c 1
 552 491 l 1
165 396 m 1
 188 595 l 1
 221 595 l 1
 223 587 222 582 234 579 c 1
 242 576 357 571 367 571 c 2
 488 571 l 1
 488 543 489 541 482 533 c 2
 380 400 l 2
 361 373 347 334 340 276 c 0
 336 242 333 207 333 172 c 2
 333 138 l 2
 333 78 294 82 290 82 c 0
 294 82 248 74 248 137 c 0
 248 257 300 358 362 438 c 1
 358 432 388 471 386 468 c 1
 286 468 l 2
 275 468 225 468 216 464 c 0
 216 464 207 464 199 396 c 1
 165 396 l 1
EndSplineSet
EndChar
StartChar: uF26D9
Encoding: 992985 992985 1101
Width: 1000
Flags: MW
LayerCount: 2
Fore
SplineSet
38 301 m 0
 38 407 61 591 217 746 c 0
 235 763 277 800 294 800 c 0
 302 800 312 797 312 786 c 0
 312 781 311 780 296 765 c 0
 186 654 135 497 135 300 c 0
 135 212 147 120 173 41 c 0
 215 -87 280 -148 309 -175 c 0
 309 -176 312 -180 312 -185 c 0
 312 -196 302 -199 294 -199 c 0
 275 -199 184 -132 118 -17 c 0
 71 66 38 176 38 301 c 0
688 -185 m 0
 688 -180 689 -179 704 -164 c 0
 814 -53 865 104 865 301 c 0
 865 458 831 635 705 763 c 0
 688 779 688 781 688 786 c 0
 688 797 698 800 706 800 c 0
 725 800 816 733 882 618 c 0
 929 535 962 425 962 300 c 0
 962 194 939 10 783 -145 c 0
 765 -162 723 -199 706 -199 c 0
 698 -199 688 -196 688 -185 c 0
538 88 m 1
 538 87 538 104 538 103 c 2
 538 120 538 120 546 130 c 2
 675 282 l 2
 722 337 743 386 743 436 c 0
 743 490 713 539 660 539 c 0
 642 539 621 536 601 526 c 1
 603 524 609 524 610 522 c 0
 620 514 636 503 636 468 c 0
 636 428 610 410 587 410 c 0
 567 410 538 424 538 468 c 0
 538 536 600 577 678 577 c 0
 770 577 838 523 838 437 c 0
 838 367 797 333 734 280 c 1
 698 249 675 227 636 191 c 1
 722 191 l 2
 730 191 779 191 788 195 c 1
 797 199 803 251 805 264 c 1
 838 264 l 1
 818 88 l 1
 538 88 l 1
168 396 m 1
 190 595 l 1
 224 595 l 1
 226 587 225 582 237 579 c 1
 245 576 360 571 370 571 c 2
 490 571 l 1
 490 543 491 541 484 533 c 2
 382 400 l 2
 363 373 348 334 341 276 c 0
 337 242 336 207 336 172 c 2
 336 138 l 2
 336 78 296 82 292 82 c 0
 296 82 250 74 250 137 c 0
 250 257 302 358 364 438 c 1
 360 432 390 471 388 468 c 1
 289 468 l 2
 278 468 228 468 219 464 c 0
 219 464 209 464 201 396 c 1
 168 396 l 1
EndSplineSet
EndChar
StartChar: uF26DC
Encoding: 992988 992988 1104
Width: 1000
Flags: MW
LayerCount: 2
Fore
SplineSet
38 301 m 0
 38 407 61 591 217 746 c 0
 235 763 277 800 294 800 c 0
 302 800 312 797 312 786 c 0
 312 781 311 780 296 765 c 0
 186 654 135 497 135 300 c 0
 135 212 147 120 173 41 c 0
 215 -87 280 -148 309 -175 c 0
 309 -176 312 -180 312 -185 c 0
 312 -196 302 -199 294 -199 c 0
 275 -199 184 -132 118 -17 c 0
 71 66 38 176 38 301 c 0
688 -185 m 0
 688 -180 689 -179 704 -164 c 0
 814 -53 865 104 865 301 c 0
 865 458 831 635 705 763 c 0
 688 779 688 781 688 786 c 0
 688 797 698 800 706 800 c 0
 725 800 816 733 882 618 c 0
 929 535 962 425 962 300 c 0
 962 194 939 10 783 -145 c 0
 765 -162 723 -199 706 -199 c 0
 698 -199 688 -196 688 -185 c 0
538 207 m 0
 538 256 574 263 584 263 c 0
 598 263 628 254 628 208 c 0
 628 179 614 162 596 156 c 0
 596 155 591 155 588 155 c 1
 620 112 660 117 666 117 c 0
 692 117 708 123 718 135 c 1
 740 161 740 205 740 242 c 0
 740 279 740 320 726 344 c 0
 718 359 705 364 687 364 c 0
 669 364 631 364 601 324 c 0
 597 318 595 315 586 315 c 0
 571 315 570 325 570 339 c 2
 570 557 l 2
 570 569 570 578 579 578 c 0
 581 578 582 576 588 574 c 0
 600 569 634 553 689 553 c 0
 711 553 745 556 789 574 c 0
 798 577 798 577 800 577 c 0
 809 577 809 568 809 563 c 0
 809 542 748 452 652 452 c 0
 630 452 627 454 608 458 c 1
 608 370 l 1
 640 394 674 393 689 393 c 0
 790 393 838 325 838 240 c 0
 838 149 777 82 669 82 c 0
 589 82 538 143 538 207 c 0
168 396 m 1
 190 595 l 1
 224 595 l 1
 226 587 225 582 237 579 c 1
 245 576 360 571 370 571 c 2
 490 571 l 1
 490 543 491 541 484 533 c 2
 382 400 l 2
 363 373 348 334 341 276 c 0
 337 242 336 207 336 172 c 2
 336 138 l 2
 336 78 296 82 292 82 c 0
 296 82 250 74 250 137 c 0
 250 257 302 358 364 438 c 1
 360 432 390 471 388 468 c 1
 289 468 l 2
 278 468 228 468 219 464 c 0
 219 464 209 464 201 396 c 1
 168 396 l 1
EndSplineSet
EndChar
StartChar: uF26E0
Encoding: 992992 992992 1108
Width: 1000
Flags: MW
LayerCount: 2
Fore
SplineSet
38 301 m 0
 38 407 61 591 217 746 c 0
 235 763 277 800 294 800 c 0
 302 800 312 797 312 786 c 0
 312 781 311 780 296 765 c 0
 186 654 135 497 135 300 c 0
 135 212 147 120 173 41 c 0
 215 -87 280 -148 309 -175 c 0
 309 -176 312 -180 312 -185 c 0
 312 -196 302 -199 294 -199 c 0
 275 -199 184 -132 118 -17 c 0
 71 66 38 176 38 301 c 0
688 -185 m 0
 688 -180 689 -179 704 -164 c 0
 814 -53 865 104 865 301 c 0
 865 458 831 635 705 763 c 0
 688 779 688 781 688 786 c 0
 688 797 698 800 706 800 c 0
 725 800 816 733 882 618 c 0
 929 535 962 425 962 300 c 0
 962 194 939 10 783 -145 c 0
 765 -162 723 -199 706 -199 c 0
 698 -199 688 -196 688 -185 c 0
533 418 m 0
 533 469 551 516 581 542 c 1
 608 565 646 577 691 577 c 0
 867 577 845 348 845 336 c 0
 845 136 740 82 658 82 c 0
 583 82 552 129 552 180 c 0
 552 208 565 231 595 231 c 0
 623 231 637 207 637 180 c 0
 637 141 609 134 607 132 c 1
 627 120 644 117 656 117 c 0
 706 117 733 157 740 182 c 0
 748 206 752 249 752 300 c 2
 752 314 l 1
 725 260 693 260 677 260 c 0
 598 260 533 312 533 418 c 0
627 417 m 0
 627 376 627 342 636 319 c 0
 640 306 652 290 684 290 c 0
 736 290 751 367 751 410 c 0
 751 434 752 477 744 502 c 0
 745 504 731 546 692 546 c 0
 658 546 645 532 637 516 c 0
 627 492 627 457 627 417 c 0
169 396 m 1
 190 595 l 1
 224 595 l 1
 226 587 226 582 238 579 c 1
 246 576 360 571 370 571 c 2
 491 571 l 1
 491 543 491 541 484 533 c 2
 383 400 l 2
 364 373 349 334 342 276 c 0
 338 242 336 207 336 172 c 2
 336 138 l 2
 336 78 297 82 293 82 c 0
 297 82 252 74 252 137 c 0
 252 257 303 358 365 438 c 1
 361 432 391 471 389 468 c 1
 290 468 l 2
 279 468 229 468 220 464 c 0
 220 464 211 464 203 396 c 1
 169 396 l 1
EndSplineSet
EndChar
StartChar: uF26E7
Encoding: 992999 992999 1115
Width: 1000
Flags: MW
LayerCount: 2
Fore
SplineSet
38 301 m 0
 38 407 61 591 217 746 c 0
 235 763 277 800 294 800 c 0
 302 800 312 797 312 786 c 0
 312 781 311 780 296 765 c 0
 186 654 135 497 135 300 c 0
 135 212 147 120 173 41 c 0
 215 -87 280 -148 309 -175 c 0
 309 -176 312 -180 312 -185 c 0
 312 -196 302 -199 294 -199 c 0
 275 -199 184 -132 118 -17 c 0
 71 66 38 176 38 301 c 0
688 -185 m 0
 688 -180 689 -179 704 -164 c 0
 814 -53 865 104 865 301 c 0
 865 458 831 635 705 763 c 0
 688 779 688 781 688 786 c 0
 688 797 698 800 706 800 c 0
 725 800 816 733 882 618 c 0
 929 535 962 425 962 300 c 0
 962 194 939 10 783 -145 c 0
 765 -162 723 -199 706 -199 c 0
 698 -199 688 -196 688 -185 c 0
532 323 m 0
 532 518 642 575 728 575 c 0
 799 575 825 524 825 478 c 0
 825 450 813 427 783 427 c 0
 755 427 740 449 740 476 c 0
 740 495 748 521 774 526 c 1
 759 541 740 542 730 542 c 0
 686 542 652 511 640 479 c 0
 640 473 625 446 625 358 c 2
 625 345 l 1
 656 407 695 397 700 397 c 0
 778 397 844 347 844 239 c 0
 844 139 783 79 690 79 c 0
 643 79 595 97 564 153 c 1
 535 208 532 269 532 323 c 0
628 240 m 0
 628 226 627 173 636 152 c 0
 641 140 658 114 689 114 c 0
 727 114 739 132 743 152 c 0
 750 174 750 205 750 242 c 0
 750 282 750 314 742 336 c 0
 738 352 726 368 693 368 c 0
 665 368 628 343 628 240 c 0
156 208 m 0
 156 260 176 301 234 331 c 1
 219 340 209 350 200 364 c 0
 183 389 178 417 178 441 c 0
 178 513 219 575 314 575 c 0
 390 575 448 544 448 466 c 0
 448 424 432 391 388 364 c 1
 395 359 417 346 435 325 c 0
 453 305 468 278 468 230 c 0
 468 148 420 79 311 79 c 0
 226 79 156 114 156 208 c 0
218 208 m 0
 218 151 250 114 314 114 c 0
 346 114 408 120 408 185 c 0
 408 219 386 232 356 252 c 1
 311 281 295 291 267 309 c 1
 255 299 218 270 218 208 c 0
230 490 m 0
 230 461 253 452 257 449 c 2
 356 386 l 1
 380 407 395 428 395 464 c 0
 395 514 366 542 311 542 c 0
 292 542 230 544 230 490 c 0
EndSplineSet
EndChar
StartChar: uF26E9
Encoding: 993001 993001 1117
Width: 1000
Flags: MW
LayerCount: 2
Fore
SplineSet
38 301 m 0
 38 407 61 591 217 746 c 0
 235 763 277 800 294 800 c 0
 302 800 312 797 312 786 c 0
 312 781 311 780 296 765 c 0
 186 654 135 497 135 300 c 0
 135 212 147 120 173 41 c 0
 215 -87 280 -148 309 -175 c 0
 309 -176 312 -180 312 -185 c 0
 312 -196 302 -199 294 -199 c 0
 275 -199 184 -132 118 -17 c 0
 71 66 38 176 38 301 c 0
688 -185 m 0
 688 -180 689 -179 704 -164 c 0
 814 -53 865 104 865 301 c 0
 865 458 831 635 705 763 c 0
 688 779 688 781 688 786 c 0
 688 797 698 800 706 800 c 0
 725 800 816 733 882 618 c 0
 929 535 962 425 962 300 c 0
 962 194 939 10 783 -145 c 0
 765 -162 723 -199 706 -199 c 0
 698 -199 688 -196 688 -185 c 0
532 208 m 0
 532 260 551 301 609 331 c 1
 594 340 584 350 575 364 c 0
 558 389 552 417 552 441 c 0
 552 513 595 575 690 575 c 0
 766 575 822 544 822 466 c 0
 822 424 806 391 762 364 c 1
 769 359 792 346 810 325 c 0
 828 305 844 278 844 230 c 0
 844 148 795 79 686 79 c 0
 601 79 532 114 532 208 c 0
593 208 m 0
 593 151 626 114 690 114 c 0
 722 114 782 120 782 185 c 0
 782 219 762 232 732 252 c 1
 687 281 670 291 642 309 c 1
 630 299 593 270 593 208 c 0
605 490 m 0
 605 461 628 452 632 449 c 2
 731 386 l 1
 755 407 770 428 770 464 c 0
 770 514 741 542 686 542 c 0
 667 542 605 544 605 490 c 0
156 208 m 0
 156 260 176 301 234 331 c 1
 219 340 209 350 200 364 c 0
 183 389 178 417 178 441 c 0
 178 513 219 575 314 575 c 0
 390 575 448 544 448 466 c 0
 448 424 432 391 388 364 c 1
 395 359 417 346 435 325 c 0
 453 305 468 278 468 230 c 0
 468 148 420 79 311 79 c 0
 226 79 156 114 156 208 c 0
218 208 m 0
 218 151 250 114 314 114 c 0
 346 114 408 120 408 185 c 0
 408 219 386 232 356 252 c 1
 311 281 295 291 267 309 c 1
 255 299 218 270 218 208 c 0
230 490 m 0
 230 461 253 452 257 449 c 2
 356 386 l 1
 380 407 395 428 395 464 c 0
 395 514 366 542 311 542 c 0
 292 542 230 544 230 490 c 0
EndSplineSet
EndChar
StartChar: uF26EC
Encoding: 993004 993004 1120
Width: 1000
Flags: MW
LayerCount: 2
Fore
SplineSet
38 301 m 0
 38 407 61 591 217 746 c 0
 235 763 277 800 294 800 c 0
 302 800 312 797 312 786 c 0
 312 781 311 780 296 765 c 0
 186 654 135 497 135 300 c 0
 135 212 147 120 173 41 c 0
 215 -87 280 -148 309 -175 c 0
 309 -176 312 -180 312 -185 c 0
 312 -196 302 -199 294 -199 c 0
 275 -199 184 -132 118 -17 c 0
 71 66 38 176 38 301 c 0
688 -185 m 0
 688 -180 689 -179 704 -164 c 0
 814 -53 865 104 865 301 c 0
 865 458 831 635 705 763 c 0
 688 779 688 781 688 786 c 0
 688 797 698 800 706 800 c 0
 725 800 816 733 882 618 c 0
 929 535 962 425 962 300 c 0
 962 194 939 10 783 -145 c 0
 765 -162 723 -199 706 -199 c 0
 698 -199 688 -196 688 -185 c 0
550 488 m 1
 550 527 l 1
 566 527 l 1
 577 527 646 525 698 569 c 0
 705 575 704 575 714 575 c 1
 731 575 731 566 731 550 c 2
 731 115 l 1
 731 122 845 124 828 124 c 1
 822 124 l 1
 822 85 l 1
 794 87 721 88 689 88 c 0
 657 88 586 87 558 85 c 1
 558 124 l 1
 552 124 l 1
 535 124 648 122 648 115 c 1
 648 503 l 1
 609 490 574 488 566 488 c 1
 550 488 l 1
153 415 m 0
 153 466 171 513 201 539 c 1
 228 562 265 575 310 575 c 0
 486 575 466 344 466 332 c 0
 466 132 361 79 279 79 c 0
 204 79 172 125 172 176 c 0
 172 204 185 227 215 227 c 0
 243 227 258 205 258 178 c 0
 258 139 228 130 226 128 c 1
 246 116 264 114 276 114 c 0
 326 114 353 154 360 179 c 0
 368 203 371 245 371 296 c 2
 371 310 l 1
 344 256 313 258 297 258 c 0
 218 258 153 309 153 415 c 0
248 414 m 0
 248 373 247 339 256 316 c 0
 260 303 272 287 304 287 c 0
 356 287 372 365 372 408 c 0
 372 432 372 473 364 498 c 0
 365 500 350 542 311 542 c 0
 277 542 266 530 258 514 c 0
 248 490 248 454 248 414 c 0
EndSplineSet
EndChar
StartChar: uF26EF
Encoding: 993007 993007 1123
Width: 1000
Flags: MW
LayerCount: 2
Fore
SplineSet
38 301 m 0
 38 407 61 591 217 746 c 0
 235 763 277 800 294 800 c 0
 302 800 312 797 312 786 c 0
 312 781 311 780 296 765 c 0
 186 654 135 497 135 300 c 0
 135 212 147 120 173 41 c 0
 215 -87 280 -148 309 -175 c 0
 309 -176 312 -180 312 -185 c 0
 312 -196 302 -199 294 -199 c 0
 275 -199 184 -132 118 -17 c 0
 71 66 38 176 38 301 c 0
688 -185 m 0
 688 -180 689 -179 704 -164 c 0
 814 -53 865 104 865 301 c 0
 865 458 831 635 705 763 c 0
 688 779 688 781 688 786 c 0
 688 797 698 800 706 800 c 0
 725 800 816 733 882 618 c 0
 929 535 962 425 962 300 c 0
 962 194 939 10 783 -145 c 0
 765 -162 723 -199 706 -199 c 0
 698 -199 688 -196 688 -185 c 0
523 201 m 1
 523 239 l 1
 750 561 l 2
 758 573 758 574 774 574 c 0
 794 574 796 570 796 549 c 2
 796 239 l 1
 856 239 l 1
 856 201 l 1
 796 201 l 1
 796 115 l 1
 796 122 875 124 861 124 c 1
 857 124 l 1
 857 86 l 1
 837 88 774 88 750 88 c 0
 723 88 659 88 635 86 c 1
 635 124 l 1
 631 124 l 1
 617 124 708 122 708 115 c 1
 708 201 l 1
 523 201 l 1
559 239 m 1
 716 239 l 1
 716 459 l 1
 559 239 l 1
158 416 m 0
 158 467 176 513 206 539 c 1
 233 562 271 575 316 575 c 0
 492 575 470 344 470 332 c 0
 470 132 366 79 284 79 c 0
 209 79 177 125 177 176 c 0
 177 204 190 227 220 227 c 0
 248 227 262 205 262 178 c 0
 262 139 233 130 231 128 c 1
 251 116 269 115 281 115 c 0
 331 115 358 154 365 179 c 0
 373 203 377 245 377 296 c 2
 377 311 l 1
 350 257 318 258 302 258 c 0
 223 258 158 310 158 416 c 0
252 413 m 0
 252 372 251 338 260 315 c 0
 264 302 277 287 309 287 c 0
 361 287 376 365 376 408 c 0
 376 432 377 473 369 498 c 0
 370 500 355 543 316 543 c 0
 282 543 270 530 262 514 c 0
 252 490 252 453 252 413 c 0
EndSplineSet
EndChar
StartChar: uF26F0
Encoding: 993008 993008 1124
Width: 1000
Flags: MW
LayerCount: 2
Fore
SplineSet
38 301 m 0
 38 407 61 591 217 746 c 0
 235 763 277 800 294 800 c 0
 302 800 312 797 312 786 c 0
 312 781 311 780 296 765 c 0
 186 654 135 497 135 300 c 0
 135 212 147 120 173 41 c 0
 215 -87 280 -148 309 -175 c 0
 309 -176 312 -180 312 -185 c 0
 312 -196 302 -199 294 -199 c 0
 275 -199 184 -132 118 -17 c 0
 71 66 38 176 38 301 c 0
688 -185 m 0
 688 -180 689 -179 704 -164 c 0
 814 -53 865 104 865 301 c 0
 865 458 831 635 705 763 c 0
 688 779 688 781 688 786 c 0
 688 797 698 800 706 800 c 0
 725 800 816 733 882 618 c 0
 929 535 962 425 962 300 c 0
 962 194 939 10 783 -145 c 0
 765 -162 723 -199 706 -199 c 0
 698 -199 688 -196 688 -185 c 0
536 205 m 0
 536 254 572 260 582 260 c 0
 596 260 627 251 627 205 c 0
 627 176 612 159 594 153 c 0
 594 152 591 152 588 152 c 1
 620 109 659 114 665 114 c 0
 691 114 706 120 716 132 c 1
 738 158 738 201 738 238 c 0
 738 275 738 318 724 342 c 0
 716 357 702 360 684 360 c 0
 666 360 629 361 599 321 c 0
 595 315 593 311 584 311 c 0
 569 311 569 321 569 335 c 2
 569 555 l 2
 569 567 568 575 577 575 c 0
 579 575 581 574 587 572 c 0
 599 567 633 551 688 551 c 0
 710 551 743 554 787 572 c 0
 796 575 796 575 798 575 c 0
 807 575 807 565 807 560 c 0
 807 539 746 450 650 450 c 0
 628 450 625 450 606 454 c 1
 606 367 l 1
 638 391 673 390 688 390 c 0
 789 390 836 321 836 236 c 0
 836 145 775 79 667 79 c 0
 587 79 536 141 536 205 c 0
156 415 m 0
 156 466 174 513 204 539 c 1
 231 562 268 575 313 575 c 0
 489 575 468 344 468 332 c 0
 468 132 362 79 280 79 c 0
 205 79 174 125 174 176 c 0
 174 204 188 227 218 227 c 0
 246 227 259 205 259 178 c 0
 259 139 231 130 229 128 c 1
 249 116 266 114 278 114 c 0
 328 114 355 154 362 179 c 0
 370 203 374 245 374 296 c 2
 374 310 l 1
 347 256 315 258 299 258 c 0
 220 258 156 309 156 415 c 0
249 414 m 0
 249 373 249 339 258 316 c 0
 262 303 274 287 306 287 c 0
 358 287 373 365 373 408 c 0
 373 432 374 473 366 498 c 0
 367 500 353 542 314 542 c 0
 280 542 267 530 259 514 c 0
 249 490 249 454 249 414 c 0
EndSplineSet
EndChar
StartChar: uF26F5
Encoding: 993013 993013 1129
Width: 1000
Flags: MW
LayerCount: 2
Fore
SplineSet
38 301 m 0
 38 407 61 591 217 746 c 0
 235 763 277 800 294 800 c 0
 302 800 312 797 312 786 c 0
 312 781 311 780 296 765 c 0
 186 654 135 497 135 300 c 0
 135 212 147 120 173 41 c 0
 215 -87 280 -148 309 -175 c 0
 309 -176 312 -180 312 -185 c 0
 312 -196 302 -199 294 -199 c 0
 275 -199 184 -132 118 -17 c 0
 71 66 38 176 38 301 c 0
688 -185 m 0
 688 -180 689 -179 704 -164 c 0
 814 -53 865 104 865 301 c 0
 865 458 831 635 705 763 c 0
 688 779 688 781 688 786 c 0
 688 797 698 800 706 800 c 0
 725 800 816 733 882 618 c 0
 929 535 962 425 962 300 c 0
 962 194 939 10 783 -145 c 0
 765 -162 723 -199 706 -199 c 0
 698 -199 688 -196 688 -185 c 0
647 325 m 0
 647 369 646 468 677 528 c 1
 692 550 713 575 752 575 c 0
 788 575 806 555 820 541 c 0
 858 483 858 373 858 325 c 0
 858 277 858 175 822 117 c 0
 808 100 789 79 752 79 c 0
 714 79 694 100 681 120 c 0
 646 177 647 277 647 325 c 0
713 334 m 0
 713 294 714 213 716 175 c 0
 720 124 740 109 752 109 c 0
 761 109 784 116 789 186 c 0
 791 223 791 296 791 334 c 0
 791 400 790 484 784 508 c 0
 777 531 766 545 752 545 c 0
 744 545 719 538 716 476 c 0
 713 437 713 390 713 334 c 0
397 325 m 0
 397 369 397 468 428 528 c 1
 443 550 464 575 503 575 c 0
 539 575 556 555 570 541 c 0
 608 483 608 373 608 325 c 0
 608 277 608 175 572 117 c 0
 558 100 540 79 503 79 c 0
 465 79 444 100 431 120 c 0
 396 177 397 277 397 325 c 0
464 334 m 0
 464 294 464 213 466 175 c 0
 470 124 491 109 503 109 c 0
 512 109 534 116 539 186 c 0
 541 223 542 296 542 334 c 0
 542 400 542 484 536 508 c 0
 529 531 517 545 503 545 c 0
 495 545 469 538 466 476 c 0
 463 437 464 390 464 334 c 0
163 488 m 1
 163 527 l 1
 173 527 l 1
 180 527 220 525 262 569 c 0
 268 575 269 575 276 575 c 1
 290 575 289 566 289 550 c 2
 289 115 l 1
 289 122 357 124 348 124 c 1
 344 124 l 1
 344 85 l 1
 325 87 278 88 256 88 c 0
 235 88 187 87 168 85 c 1
 168 124 l 1
 164 124 l 1
 155 124 222 122 222 115 c 1
 222 503 l 1
 190 490 179 488 173 488 c 1
 163 488 l 1
EndSplineSet
EndChar
StartChar: uF26F8
Encoding: 993016 993016 1132
Width: 1000
Flags: MW
LayerCount: 2
Fore
SplineSet
38 301 m 0
 38 407 61 591 217 746 c 0
 235 763 277 800 294 800 c 0
 302 800 312 797 312 786 c 0
 312 781 311 780 296 765 c 0
 186 654 135 497 135 300 c 0
 135 212 147 120 173 41 c 0
 215 -87 280 -148 309 -175 c 0
 309 -176 312 -180 312 -185 c 0
 312 -196 302 -199 294 -199 c 0
 275 -199 184 -132 118 -17 c 0
 71 66 38 176 38 301 c 0
688 -185 m 0
 688 -180 689 -179 704 -164 c 0
 814 -53 865 104 865 301 c 0
 865 458 831 635 705 763 c 0
 688 779 688 781 688 786 c 0
 688 797 698 800 706 800 c 0
 725 800 816 733 882 618 c 0
 929 535 962 425 962 300 c 0
 962 194 939 10 783 -145 c 0
 765 -162 723 -199 706 -199 c 0
 698 -199 688 -196 688 -185 c 0
553 81 m 1
 553 84 553 85 552 86 c 1
 550 87 610 88 604 88 c 1
 604 88 l 1
 599 88 659 87 657 86 c 1
 655 85 655 84 655 81 c 1
 655 534 l 1
 655 531 655 529 657 528 c 1
 659 527 599 527 604 527 c 1
 604 527 l 1
 610 527 551 528 552 529 c 1
 553 530 553 531 553 534 c 1
 553 81 l 1
345 81 m 1
 345 84 345 85 344 86 c 1
 342 87 402 88 396 88 c 1
 396 88 l 1
 391 88 450 87 448 86 c 1
 446 85 447 84 447 81 c 1
 447 534 l 1
 447 531 446 529 448 528 c 1
 450 527 391 527 396 527 c 1
 396 527 l 1
 402 527 343 528 344 529 c 1
 345 530 345 531 345 534 c 1
 345 81 l 1
175 50 m 1
 175 88 l 1
 171 88 l 1
 166 88 242 87 240 86 c 1
 238 85 238 84 238 81 c 1
 238 534 l 1
 238 531 238 529 240 528 c 1
 242 527 166 527 171 527 c 1
 175 527 l 1
 175 565 l 1
 205 563 259 563 292 563 c 0
 325 563 675 563 708 563 c 0
 741 563 795 563 825 565 c 1
 825 527 l 1
 829 527 l 1
 835 527 759 528 760 529 c 1
 761 530 762 531 762 534 c 1
 762 81 l 1
 762 84 761 85 760 86 c 1
 758 87 835 88 829 88 c 1
 825 88 l 1
 825 50 l 1
 795 52 741 52 708 52 c 0
 675 52 325 52 292 52 c 0
 259 52 205 52 175 50 c 1
EndSplineSet
EndChar
StartChar: uF26F9
Encoding: 993017 993017 1133
Width: 1000
Flags: MW
LayerCount: 2
Fore
SplineSet
38 301 m 0
 38 407 61 591 217 746 c 0
 235 763 277 800 294 800 c 0
 302 800 312 797 312 786 c 0
 312 781 311 780 296 765 c 0
 186 654 135 497 135 300 c 0
 135 212 147 120 173 41 c 0
 215 -87 280 -148 309 -175 c 0
 309 -176 312 -180 312 -185 c 0
 312 -196 302 -199 294 -199 c 0
 275 -199 184 -132 118 -17 c 0
 71 66 38 176 38 301 c 0
688 -185 m 0
 688 -180 689 -179 704 -164 c 0
 814 -53 865 104 865 301 c 0
 865 458 831 635 705 763 c 0
 688 779 688 781 688 786 c 0
 688 797 698 800 706 800 c 0
 725 800 816 733 882 618 c 0
 929 535 962 425 962 300 c 0
 962 194 939 10 783 -145 c 0
 765 -162 723 -199 706 -199 c 0
 698 -199 688 -196 688 -185 c 0
190 50 m 1
 190 88 l 1
 187 88 l 1
 182 88 258 87 256 86 c 1
 254 85 254 84 254 81 c 1
 254 534 l 1
 254 531 254 529 256 528 c 1
 258 527 182 527 187 527 c 1
 190 527 l 1
 190 565 l 1
 220 563 275 563 308 563 c 0
 341 563 484 563 510 563 c 0
 541 563 595 563 622 565 c 1
 622 527 l 1
 626 527 571 528 571 532 c 1
 571 532 571 532 570 534 c 1
 642 202 l 1
 712 516 l 2
 713 518 715 522 715 524 c 0
 715 531 668 527 668 527 c 1
 668 565 l 1
 697 562 716 563 745 563 c 0
 764 563 782 564 810 565 c 1
 810 527 l 1
 811 527 796 527 797 527 c 1
 761 528 759 526 756 518 c 2
 641 65 l 2
 636 44 622 46 611 46 c 0
 589 46 587 53 581 66 c 2
 458 533 l 1
 459 529 400 527 404 527 c 1
 410 527 359 528 360 529 c 1
 361 530 361 531 361 534 c 1
 361 81 l 1
 361 84 360 85 359 86 c 1
 357 87 435 88 429 88 c 1
 425 88 l 1
 425 50 l 1
 395 52 341 52 308 52 c 0
 275 52 220 52 190 50 c 1
EndSplineSet
EndChar
StartChar: uF26FA
Encoding: 993018 993018 1134
Width: 1000
Flags: MW
LayerCount: 2
Fore
SplineSet
38 301 m 0
 38 407 61 591 217 746 c 0
 235 763 277 800 294 800 c 0
 302 800 312 797 312 786 c 0
 312 781 311 780 296 765 c 0
 186 654 135 497 135 300 c 0
 135 212 147 120 173 41 c 0
 215 -87 280 -148 309 -175 c 0
 309 -176 312 -180 312 -185 c 0
 312 -196 302 -199 294 -199 c 0
 275 -199 184 -132 118 -17 c 0
 71 66 38 176 38 301 c 0
688 -185 m 0
 688 -180 689 -179 704 -164 c 0
 814 -53 865 104 865 301 c 0
 865 458 831 635 705 763 c 0
 688 779 688 781 688 786 c 0
 688 797 698 800 706 800 c 0
 725 800 816 733 882 618 c 0
 929 535 962 425 962 300 c 0
 962 194 939 10 783 -145 c 0
 765 -162 723 -199 706 -199 c 0
 698 -199 688 -196 688 -185 c 0
207 527 m 1
 207 565 l 1
 231 562 296 563 322 563 c 0
 353 563 424 563 451 565 c 1
 451 527 l 1
 455 527 383 528 383 532 c 1
 383 532 383 532 382 534 c 1
 534 179 l 1
 679 516 l 2
 680 518 681 522 681 524 c 0
 681 531 618 527 618 527 c 1
 618 565 l 1
 647 562 683 563 712 563 c 0
 731 563 765 564 793 565 c 1
 793 527 l 1
 794 527 779 527 780 527 c 1
 726 528 726 525 723 518 c 2
 530 65 l 2
 521 45 511 46 500 46 c 0
 478 46 476 53 470 66 c 2
 271 533 l 1
 273 527 198 527 207 527 c 1
EndSplineSet
EndChar
StartChar: uF26FC
Encoding: 993020 993020 1136
Width: 1000
Flags: MW
LayerCount: 2
Fore
SplineSet
38 301 m 0
 38 407 61 591 217 746 c 0
 235 763 277 800 294 800 c 0
 302 800 312 797 312 786 c 0
 312 781 311 780 296 765 c 0
 186 654 135 497 135 300 c 0
 135 212 147 120 173 41 c 0
 215 -87 280 -148 309 -175 c 0
 309 -176 312 -180 312 -185 c 0
 312 -196 302 -199 294 -199 c 0
 275 -199 184 -132 118 -17 c 0
 71 66 38 176 38 301 c 0
688 -185 m 0
 688 -180 689 -179 704 -164 c 0
 814 -53 865 104 865 301 c 0
 865 458 831 635 705 763 c 0
 688 779 688 781 688 786 c 0
 688 797 698 800 706 800 c 0
 725 800 816 733 882 618 c 0
 929 535 962 425 962 300 c 0
 962 194 939 10 783 -145 c 0
 765 -162 723 -199 706 -199 c 0
 698 -199 688 -196 688 -185 c 0
628 81 m 1
 628 83 628 85 626 86 c 1
 624 87 652 88 650 88 c 1
 648 88 676 87 674 86 c 1
 672 85 672 83 672 81 c 1
 672 534 l 1
 672 532 672 530 674 529 c 1
 676 528 648 527 650 527 c 1
 652 527 624 528 626 530 c 1
 627 531 628 532 628 534 c 1
 628 81 l 1
172 527 m 1
 172 565 l 1
 198 563 238 562 267 562 c 0
 300 562 340 563 369 565 c 1
 369 527 l 1
 369 527 314 526 314 527 c 1
 314 528 l 1
 388 201 l 1
 456 510 l 2
 457 512 459 516 459 519 c 0
 459 528 415 527 409 527 c 1
 409 565 l 1
 439 563 458 562 488 562 c 0
 508 562 677 563 710 563 c 0
 743 563 798 563 828 565 c 1
 828 527 l 1
 831 527 l 1
 836 527 760 528 762 529 c 1
 764 530 764 531 764 534 c 1
 764 81 l 1
 764 84 763 86 761 87 c 1
 759 88 836 88 831 88 c 1
 828 88 l 1
 828 50 l 1
 798 52 743 52 710 52 c 0
 677 52 623 52 590 52 c 0
 557 52 502 52 472 50 c 1
 472 88 l 1
 469 88 l 1
 464 88 540 87 538 86 c 1
 536 85 536 84 536 81 c 1
 536 534 l 1
 536 532 536 531 537 530 c 1
 521 529 513 527 509 525 c 1
 505 523 502 521 500 519 c 0
 497 517 497 514 496 511 c 2
 395 63 l 2
 390 44 377 44 365 44 c 0
 344 44 337 50 334 64 c 2
 225 528 l 1
 225 527 171 527 172 527 c 1
EndSplineSet
EndChar
StartChar: uF26FE
Encoding: 993022 993022 1138
Width: 1000
Flags: MW
LayerCount: 2
Fore
SplineSet
38 301 m 0
 38 407 61 591 217 746 c 0
 235 763 277 800 294 800 c 0
 302 800 312 797 312 786 c 0
 312 781 311 780 296 765 c 0
 186 654 135 497 135 300 c 0
 135 212 147 120 173 41 c 0
 215 -87 280 -148 309 -175 c 0
 309 -176 312 -180 312 -185 c 0
 312 -196 302 -199 294 -199 c 0
 275 -199 184 -132 118 -17 c 0
 71 66 38 176 38 301 c 0
688 -185 m 0
 688 -180 689 -179 704 -164 c 0
 814 -53 865 104 865 301 c 0
 865 458 831 635 705 763 c 0
 688 779 688 781 688 786 c 0
 688 797 698 800 706 800 c 0
 725 800 816 733 882 618 c 0
 929 535 962 425 962 300 c 0
 962 194 939 10 783 -145 c 0
 765 -162 723 -199 706 -199 c 0
 698 -199 688 -196 688 -185 c 0
351 81 m 1
 351 84 360 85 359 86 c 1
 374 87 389 89 402 90 c 0
 410 91 415 91 418 91 c 0
 420 91 419 92 422 96 c 2
 532 300 l 1
 408 533 l 1
 410 529 372 527 380 527 c 1
 386 527 349 528 350 529 c 1
 351 530 351 531 351 534 c 1
 351 81 l 1
163 50 m 1
 163 88 l 1
 160 88 l 1
 155 88 248 87 246 86 c 1
 244 85 244 84 244 81 c 1
 244 534 l 1
 244 531 244 529 246 528 c 1
 248 527 155 527 160 527 c 1
 163 527 l 1
 163 565 l 1
 193 563 264 563 297 563 c 0
 330 563 431 563 460 563 c 0
 492 563 538 563 568 565 c 1
 568 527 l 1
 574 527 523 530 523 532 c 1
 523 534 l 1
 590 408 l 1
 649 518 l 2
 650 519 653 524 654 524 c 1
 625 530 613 527 603 527 c 1
 603 565 l 1
 628 563 669 563 696 563 c 0
 729 563 762 562 792 565 c 1
 792 527 l 1
 793 527 770 528 771 528 c 1
 751 528 748 529 730 527 c 0
 705 526 705 528 700 518 c 2
 616 359 l 1
 762 82 l 1
 760 87 838 88 831 88 c 1
 828 88 l 1
 828 50 l 1
 804 52 740 52 712 52 c 0
 680 52 617 52 587 50 c 1
 587 88 l 1
 581 88 647 85 647 83 c 1
 647 83 647 83 647 82 c 1
 558 250 l 1
 475 97 l 2
 474 96 471 91 470 91 c 1
 499 84 529 88 538 88 c 1
 538 50 l 1
 513 52 457 52 429 52 c 0
 397 52 330 52 297 52 c 0
 264 52 193 52 163 50 c 1
EndSplineSet
EndChar
StartChar: uF2700
Encoding: 993024 993024 1140
Width: 1000
Flags: MW
LayerCount: 2
Fore
SplineSet
38 301 m 0
 38 407 61 591 217 746 c 0
 235 763 277 800 294 800 c 0
 302 800 312 797 312 786 c 0
 312 781 311 780 296 765 c 0
 186 654 135 497 135 300 c 0
 135 212 147 120 173 41 c 0
 215 -87 280 -148 309 -175 c 0
 309 -176 312 -180 312 -185 c 0
 312 -196 302 -199 294 -199 c 0
 275 -199 184 -132 118 -17 c 0
 71 66 38 176 38 301 c 0
688 -185 m 0
 688 -180 689 -179 704 -164 c 0
 814 -53 865 104 865 301 c 0
 865 458 831 635 705 763 c 0
 688 779 688 781 688 786 c 0
 688 797 698 800 706 800 c 0
 725 800 816 733 882 618 c 0
 929 535 962 425 962 300 c 0
 962 194 939 10 783 -145 c 0
 765 -162 723 -199 706 -199 c 0
 698 -199 688 -196 688 -185 c 0
436 367 m 1
 591 82 l 1
 589 86 662 88 657 88 c 1
 654 88 652 87 651 86 c 1
 649 85 649 84 649 81 c 1
 649 534 l 1
 649 531 649 529 651 528 c 1
 653 527 561 527 565 527 c 1
 568 527 570 528 572 529 c 0
 547 528 526 535 520 524 c 2
 436 367 l 1
164 50 m 1
 164 88 l 1
 162 88 184 87 182 87 c 1
 195 87 194 87 209 87 c 0
 232 87 232 86 237 96 c 2
 349 295 l 1
 223 533 l 1
 225 529 163 527 171 527 c 1
 174 527 l 1
 174 565 l 1
 198 563 246 563 275 563 c 0
 307 563 360 563 390 565 c 1
 390 527 l 1
 396 527 346 530 346 532 c 1
 346 533 345 534 345 534 c 1
 412 410 l 1
 472 518 l 2
 473 519 477 524 478 524 c 1
 449 530 419 527 409 527 c 1
 409 565 l 1
 434 563 492 563 519 563 c 0
 552 563 669 563 702 563 c 0
 735 563 806 563 836 565 c 1
 836 527 l 1
 840 527 l 1
 846 527 753 528 754 529 c 1
 755 530 756 531 756 534 c 1
 756 81 l 1
 756 84 755 85 754 86 c 1
 752 87 846 88 840 88 c 1
 836 88 l 1
 836 50 l 1
 806 52 735 52 702 52 c 0
 669 52 561 52 533 52 c 0
 501 52 449 52 419 50 c 1
 419 88 l 1
 413 88 462 85 462 83 c 1
 462 83 462 83 462 82 c 1
 373 250 l 1
 290 97 l 2
 289 95 286 91 285 91 c 1
 314 84 328 88 337 88 c 1
 337 50 l 1
 312 52 272 52 244 52 c 0
 212 52 194 53 164 50 c 1
EndSplineSet
EndChar
StartChar: uF2704
Encoding: 993028 993028 1144
Width: 1000
Flags: MW
LayerCount: 2
Fore
SplineSet
38 301 m 0
 38 407 61 591 217 746 c 0
 235 763 277 800 294 800 c 0
 302 800 312 797 312 786 c 0
 312 781 311 780 296 765 c 0
 186 654 135 497 135 300 c 0
 135 212 147 120 173 41 c 0
 215 -87 280 -148 309 -175 c 0
 309 -176 312 -180 312 -185 c 0
 312 -196 302 -199 294 -199 c 0
 275 -199 184 -132 118 -17 c 0
 71 66 38 176 38 301 c 0
688 -185 m 0
 688 -180 689 -179 704 -164 c 0
 814 -53 865 104 865 301 c 0
 865 458 831 635 705 763 c 0
 688 779 688 781 688 786 c 0
 688 797 698 800 706 800 c 0
 725 800 816 733 882 618 c 0
 929 535 962 425 962 300 c 0
 962 194 939 10 783 -145 c 0
 765 -162 723 -199 706 -199 c 0
 698 -199 688 -196 688 -185 c 0
153 50 m 1
 153 88 l 1
 151 88 166 87 164 87 c 1
 177 87 173 87 188 87 c 0
 211 87 212 86 217 96 c 2
 311 298 l 1
 203 533 l 1
 205 529 148 527 156 527 c 1
 158 527 l 1
 158 565 l 1
 182 563 225 563 254 563 c 0
 286 563 324 563 354 565 c 1
 354 527 l 1
 360 527 318 529 318 531 c 1
 318 532 317 534 317 534 c 1
 367 423 l 1
 411 518 l 2
 411 519 412 523 413 523 c 1
 392 529 383 527 373 527 c 1
 373 565 l 1
 398 563 431 563 458 563 c 0
 491 563 509 563 535 563 c 0
 566 563 611 563 638 565 c 1
 638 527 l 1
 642 527 596 528 596 532 c 1
 596 532 596 532 595 534 c 1
 679 209 l 1
 760 516 l 2
 761 518 761 522 761 524 c 0
 761 531 724 527 724 527 c 1
 724 565 l 1
 753 562 764 563 793 563 c 0
 812 563 819 564 847 565 c 1
 847 527 l 1
 848 527 833 527 834 527 c 1
 817 528 806 526 804 518 c 2
 677 65 l 2
 672 45 658 46 647 46 c 0
 625 46 621 52 617 66 c 2
 483 530 l 1
 484 527 485 525 487 525 c 1
 476 524 473 524 469 524 c 0
 467 524 464 523 462 518 c 2
 394 367 l 1
 523 82 l 1
 521 87 576 88 569 88 c 1
 567 88 l 1
 567 50 l 1
 543 52 499 52 471 52 c 0
 439 52 396 52 366 50 c 1
 366 88 l 1
 360 88 409 86 409 84 c 1
 409 84 409 83 409 82 c 1
 336 242 l 1
 270 97 l 2
 269 95 269 92 268 92 c 1
 295 85 307 88 316 88 c 1
 316 50 l 1
 291 52 251 52 223 52 c 0
 191 52 183 53 153 50 c 1
EndSplineSet
EndChar
StartChar: uF2705
Encoding: 993029 993029 1145
Width: 1000
Flags: MW
LayerCount: 2
Fore
SplineSet
38 301 m 0
 38 407 61 591 217 746 c 0
 235 763 277 800 294 800 c 0
 302 800 312 797 312 786 c 0
 312 781 311 780 296 765 c 0
 186 654 135 497 135 300 c 0
 135 212 147 120 173 41 c 0
 215 -87 280 -148 309 -175 c 0
 309 -176 312 -180 312 -185 c 0
 312 -196 302 -199 294 -199 c 0
 275 -199 184 -132 118 -17 c 0
 71 66 38 176 38 301 c 0
688 -185 m 0
 688 -180 689 -179 704 -164 c 0
 814 -53 865 104 865 301 c 0
 865 458 831 635 705 763 c 0
 688 779 688 781 688 786 c 0
 688 797 698 800 706 800 c 0
 725 800 816 733 882 618 c 0
 929 535 962 425 962 300 c 0
 962 194 939 10 783 -145 c 0
 765 -162 723 -199 706 -199 c 0
 698 -199 688 -196 688 -185 c 0
414 50 m 1
 414 88 l 1
 409 88 464 87 463 86 c 1
 462 85 462 84 462 81 c 1
 462 319 l 2
 462 347 457 346 417 346 c 1
 417 383 l 1
 544 389 l 1
 544 81 l 1
 544 84 543 85 542 86 c 1
 541 87 591 88 586 88 c 1
 586 50 l 1
 561 51 521 52 501 52 c 0
 469 52 436 51 414 50 c 1
435 513 m 0
 435 548 461 575 493 575 c 0
 524 575 551 548 551 513 c 0
 551 478 524 451 493 451 c 0
 461 451 435 478 435 513 c 0
EndSplineSet
EndChar
StartChar: uF2708
Encoding: 993032 993032 1148
Width: 1000
Flags: MW
LayerCount: 2
Fore
SplineSet
38 301 m 0
 38 407 61 591 217 746 c 0
 235 763 277 800 294 800 c 0
 302 800 312 797 312 786 c 0
 312 781 311 780 296 765 c 0
 186 654 135 497 135 300 c 0
 135 212 147 120 173 41 c 0
 215 -87 280 -148 309 -175 c 0
 309 -176 312 -180 312 -185 c 0
 312 -196 302 -199 294 -199 c 0
 275 -199 184 -132 118 -17 c 0
 71 66 38 176 38 301 c 0
688 -185 m 0
 688 -180 689 -179 704 -164 c 0
 814 -53 865 104 865 301 c 0
 865 458 831 635 705 763 c 0
 688 779 688 781 688 786 c 0
 688 797 698 800 706 800 c 0
 725 800 816 733 882 618 c 0
 929 535 962 425 962 300 c 0
 962 194 939 10 783 -145 c 0
 765 -162 723 -199 706 -199 c 0
 698 -199 688 -196 688 -185 c 0
244 50 m 1
 244 88 l 1
 239 88 294 87 293 86 c 1
 292 85 291 84 291 81 c 1
 291 319 l 2
 291 347 286 346 246 346 c 1
 246 383 l 1
 373 389 l 1
 373 81 l 1
 373 84 373 85 372 86 c 1
 371 87 420 88 415 88 c 1
 415 50 l 1
 390 51 351 52 331 52 c 0
 299 52 266 51 244 50 c 1
265 513 m 0
 265 548 290 575 322 575 c 0
 353 575 381 548 381 513 c 0
 381 478 353 451 322 451 c 0
 290 451 265 478 265 513 c 0
415 347 m 1
 415 385 l 1
 445 384 478 383 498 383 c 0
 496 383 563 383 587 385 c 1
 587 347 l 1
 590 347 549 347 549 351 c 1
 549 351 549 352 548 354 c 1
 611 168 l 1
 667 337 l 2
 670 345 670 344 670 344 c 0
 670 348 647 347 636 347 c 1
 636 385 l 1
 651 384 683 383 701 383 c 0
 719 383 738 383 756 385 c 1
 756 347 l 1
 711 347 710 347 707 338 c 2
 614 67 l 2
 610 48 599 48 587 48 c 0
 578 48 567 48 558 68 c 2
 458 353 l 1
 459 351 460 349 461 348 c 1
 462 347 411 347 415 347 c 1
EndSplineSet
EndChar
StartChar: uF270C
Encoding: 993036 993036 1152
Width: 1000
Flags: MW
LayerCount: 2
Fore
SplineSet
38 301 m 0
 38 407 61 591 217 746 c 0
 235 763 277 800 294 800 c 0
 302 800 312 797 312 786 c 0
 312 781 311 780 296 765 c 0
 186 654 135 497 135 300 c 0
 135 212 147 120 173 41 c 0
 215 -87 280 -148 309 -175 c 0
 309 -176 312 -180 312 -185 c 0
 312 -196 302 -199 294 -199 c 0
 275 -199 184 -132 118 -17 c 0
 71 66 38 176 38 301 c 0
688 -185 m 0
 688 -180 689 -179 704 -164 c 0
 814 -53 865 104 865 301 c 0
 865 458 831 635 705 763 c 0
 688 779 688 781 688 786 c 0
 688 797 698 800 706 800 c 0
 725 800 816 733 882 618 c 0
 929 535 962 425 962 300 c 0
 962 194 939 10 783 -145 c 0
 765 -162 723 -199 706 -199 c 0
 698 -199 688 -196 688 -185 c 0
153 347 m 1
 153 385 l 1
 183 384 185 383 205 383 c 0
 203 383 244 383 268 385 c 1
 268 347 l 1
 271 347 248 347 248 351 c 1
 248 351 248 352 247 354 c 1
 282 177 l 1
 315 337 l 2
 317 345 316 344 316 344 c 0
 316 348 312 347 301 347 c 1
 301 385 l 1
 316 384 331 383 349 383 c 0
 367 383 356 383 374 385 c 1
 374 347 l 1
 358 347 358 347 355 338 c 2
 292 67 l 2
 288 48 275 48 263 48 c 0
 254 48 238 46 234 68 c 2
 165 353 l 1
 166 351 167 349 168 348 c 1
 169 347 149 347 153 347 c 1
390 50 m 1
 390 88 l 1
 385 88 426 87 425 86 c 1
 424 85 424 84 424 81 c 1
 424 319 l 2
 424 347 420 346 392 346 c 1
 392 383 l 1
 505 389 l 1
 505 81 l 1
 505 84 505 85 504 86 c 1
 503 87 538 88 533 88 c 1
 533 50 l 1
 508 51 483 52 463 52 c 0
 431 52 412 51 390 50 c 1
397 513 m 0
 397 548 423 575 455 575 c 0
 486 575 513 548 513 513 c 0
 513 478 486 451 455 451 c 0
 423 451 397 478 397 513 c 0
546 50 m 1
 546 88 l 1
 541 88 583 87 582 86 c 1
 581 85 580 84 580 81 c 1
 580 319 l 2
 580 347 577 346 549 346 c 1
 549 383 l 1
 662 389 l 1
 662 81 l 1
 662 84 662 85 661 86 c 1
 660 87 695 88 690 88 c 1
 690 50 l 1
 665 51 640 52 620 52 c 0
 588 52 568 51 546 50 c 1
553 513 m 0
 553 548 580 575 612 575 c 0
 643 575 670 548 670 513 c 0
 670 478 643 451 612 451 c 0
 580 451 553 478 553 513 c 0
703 50 m 1
 703 88 l 1
 698 88 740 87 739 86 c 1
 738 85 737 84 737 81 c 1
 737 319 l 2
 737 347 732 346 706 346 c 1
 706 383 l 1
 819 389 l 1
 819 81 l 1
 819 84 819 85 818 86 c 1
 817 87 852 88 847 88 c 1
 847 50 l 1
 822 51 796 52 776 52 c 0
 744 52 725 51 703 50 c 1
710 513 m 0
 710 548 737 575 769 575 c 0
 800 575 826 548 826 513 c 0
 826 478 800 451 769 451 c 0
 737 451 710 478 710 513 c 0
EndSplineSet
EndChar
StartChar: uF2711
Encoding: 993041 993041 1157
Width: 1000
Flags: MW
LayerCount: 2
Fore
SplineSet
38 301 m 0
 38 407 61 591 217 746 c 0
 235 763 277 800 294 800 c 0
 302 800 312 797 312 786 c 0
 312 781 311 780 296 765 c 0
 186 654 135 497 135 300 c 0
 135 212 147 120 173 41 c 0
 215 -87 280 -148 309 -175 c 0
 309 -176 312 -180 312 -185 c 0
 312 -196 302 -199 294 -199 c 0
 275 -199 184 -132 118 -17 c 0
 71 66 38 176 38 301 c 0
688 -185 m 0
 688 -180 689 -179 704 -164 c 0
 814 -53 865 104 865 301 c 0
 865 458 831 635 705 763 c 0
 688 779 688 781 688 786 c 0
 688 797 698 800 706 800 c 0
 725 800 816 733 882 618 c 0
 929 535 962 425 962 300 c 0
 962 194 939 10 783 -145 c 0
 765 -162 723 -199 706 -199 c 0
 698 -199 688 -196 688 -185 c 0
152 50 m 1
 152 88 l 1
 189 88 193 88 192 96 c 1
 230 206 l 1
 170 356 l 1
 173 352 175 350 177 349 c 1
 179 347 151 347 156 347 c 1
 156 385 l 1
 180 384 183 383 207 383 c 0
 232 383 250 384 268 385 c 1
 268 347 l 1
 271 347 256 349 256 351 c 1
 256 352 256 352 255 354 c 1
 269 314 l 1
 276 337 l 2
 277 341 277 340 278 343 c 1
 278 346 279 347 270 347 c 1
 270 385 l 1
 292 384 310 383 327 383 c 0
 328 383 338 383 364 385 c 1
 364 347 l 1
 325 347 325 346 323 336 c 1
 326 340 294 251 294 251 c 1
 359 83 l 1
 355 87 387 88 379 88 c 1
 379 50 l 1
 355 51 351 52 328 52 c 0
 303 52 285 51 267 50 c 1
 267 88 l 1
 263 88 277 85 277 84 c 1
 277 83 279 81 280 79 c 1
 255 143 l 1
 255 143 240 96 242 99 c 1
 241 96 238 93 238 93 c 0
 238 90 238 88 247 88 c 1
 247 50 l 1
 234 51 206 52 189 52 c 0
 188 52 178 52 152 50 c 1
391 50 m 1
 391 88 l 1
 386 88 427 87 426 86 c 1
 425 85 425 84 425 81 c 1
 425 319 l 2
 425 347 423 346 394 346 c 1
 394 383 l 1
 506 389 l 1
 506 81 l 1
 506 84 506 85 505 86 c 1
 504 87 539 88 534 88 c 1
 534 50 l 1
 509 51 484 52 464 52 c 0
 432 52 413 51 391 50 c 1
398 513 m 0
 398 548 424 575 456 575 c 0
 487 575 514 548 514 513 c 0
 514 478 487 451 456 451 c 0
 424 451 398 478 398 513 c 0
548 50 m 1
 548 88 l 1
 543 88 584 87 583 86 c 1
 582 85 581 84 581 81 c 1
 581 319 l 2
 581 347 578 346 550 346 c 1
 550 383 l 1
 663 389 l 1
 663 81 l 1
 663 84 663 85 662 86 c 1
 661 87 696 88 691 88 c 1
 691 50 l 1
 666 51 641 52 621 52 c 0
 589 52 570 51 548 50 c 1
555 513 m 0
 555 548 581 575 613 575 c 0
 644 575 671 548 671 513 c 0
 671 478 644 451 613 451 c 0
 581 451 555 478 555 513 c 0
704 50 m 1
 704 88 l 1
 699 88 741 87 740 86 c 1
 739 85 738 84 738 81 c 1
 738 319 l 2
 738 347 735 346 707 346 c 1
 707 383 l 1
 820 389 l 1
 820 81 l 1
 820 84 820 85 819 86 c 1
 818 87 853 88 848 88 c 1
 848 50 l 1
 823 51 797 52 777 52 c 0
 745 52 726 51 704 50 c 1
711 513 m 0
 711 548 738 575 770 575 c 0
 801 575 828 548 828 513 c 0
 828 478 801 451 770 451 c 0
 738 451 711 478 711 513 c 0
EndSplineSet
EndChar
StartChar: uF2716
Encoding: 993046 993046 1162
Width: 1000
Flags: MW
LayerCount: 2
Fore
SplineSet
38 301 m 0
 38 407 61 591 217 746 c 0
 235 763 277 800 294 800 c 0
 302 800 312 797 312 786 c 0
 312 781 311 780 296 765 c 0
 186 654 135 497 135 300 c 0
 135 212 147 120 173 41 c 0
 215 -87 280 -148 309 -175 c 0
 309 -176 312 -180 312 -185 c 0
 312 -196 302 -199 294 -199 c 0
 275 -199 184 -132 118 -17 c 0
 71 66 38 176 38 301 c 0
688 -185 m 0
 688 -180 689 -179 704 -164 c 0
 814 -53 865 104 865 301 c 0
 865 458 831 635 705 763 c 0
 688 779 688 781 688 786 c 0
 688 797 698 800 706 800 c 0
 725 800 816 733 882 618 c 0
 929 535 962 425 962 300 c 0
 962 194 939 10 783 -145 c 0
 765 -162 723 -199 706 -199 c 0
 698 -199 688 -196 688 -185 c 0
228 293 m 0
 228 447 340 556 539 556 c 0
 585 556 640 551 690 510 c 1
 743 551 l 2
 749 555 749 556 757 556 c 0
 773 556 772 550 772 536 c 2
 772 378 l 2
 772 357 772 356 750 356 c 0
 731 356 730 358 728 373 c 0
 712 464 638 518 557 518 c 0
 515 518 452 513 402 466 c 1
 350 413 353 326 353 294 c 0
 353 228 360 171 397 127 c 1
 434 87 495 68 560 68 c 0
 634 68 727 110 732 208 c 0
 733 222 742 222 752 222 c 0
 766 222 772 222 772 205 c 0
 772 119 683 30 539 30 c 0
 340 30 228 139 228 293 c 0
EndSplineSet
EndChar
StartChar: uF2718
Encoding: 993048 993048 1164
Width: 1000
Flags: MW
LayerCount: 2
Fore
SplineSet
38 301 m 0
 38 407 61 591 217 746 c 0
 235 763 277 800 294 800 c 0
 302 800 312 797 312 786 c 0
 312 781 311 780 296 765 c 0
 186 654 135 497 135 300 c 0
 135 212 147 120 173 41 c 0
 215 -87 280 -148 309 -175 c 0
 309 -176 312 -180 312 -185 c 0
 312 -196 302 -199 294 -199 c 0
 275 -199 184 -132 118 -17 c 0
 71 66 38 176 38 301 c 0
688 -185 m 0
 688 -180 689 -179 704 -164 c 0
 814 -53 865 104 865 301 c 0
 865 458 831 635 705 763 c 0
 688 779 688 781 688 786 c 0
 688 797 698 800 706 800 c 0
 725 800 816 733 882 618 c 0
 929 535 962 425 962 300 c 0
 962 194 939 10 783 -145 c 0
 765 -162 723 -199 706 -199 c 0
 698 -199 688 -196 688 -185 c 0
238 35 m 1
 238 73 l 1
 234 73 l 1
 227 73 323 72 321 71 c 1
 319 70 318 68 318 64 c 1
 318 516 l 1
 318 512 318 510 320 509 c 1
 322 507 227 507 234 507 c 1
 238 507 l 1
 238 545 l 1
 714 545 l 1
 737 361 l 1
 698 361 l 1
 686 449 667 507 545 507 c 2
 426 507 l 1
 435 507 436 508 436 514 c 1
 436 318 l 1
 470 318 l 2
 543 318 550 352 550 406 c 1
 589 406 l 1
 589 192 l 1
 550 192 l 1
 550 246 542 280 470 280 c 2
 436 280 l 1
 436 66 l 1
 436 72 435 73 426 73 c 1
 544 73 l 2
 686 73 708 142 723 243 c 1
 762 243 l 1
 727 35 l 1
 238 35 l 1
EndSplineSet
EndChar
StartChar: uF271A
Encoding: 993050 993050 1166
Width: 1000
Flags: MW
LayerCount: 2
Fore
SplineSet
38 301 m 0
 38 407 61 591 217 746 c 0
 235 763 277 800 294 800 c 0
 302 800 312 797 312 786 c 0
 312 781 311 780 296 765 c 0
 186 654 135 497 135 300 c 0
 135 212 147 120 173 41 c 0
 215 -87 280 -148 309 -175 c 0
 309 -176 312 -180 312 -185 c 0
 312 -196 302 -199 294 -199 c 0
 275 -199 184 -132 118 -17 c 0
 71 66 38 176 38 301 c 0
688 -185 m 0
 688 -180 689 -179 704 -164 c 0
 814 -53 865 104 865 301 c 0
 865 458 831 635 705 763 c 0
 688 779 688 781 688 786 c 0
 688 797 698 800 706 800 c 0
 725 800 816 733 882 618 c 0
 929 535 962 425 962 300 c 0
 962 194 939 10 783 -145 c 0
 765 -162 723 -199 706 -199 c 0
 698 -199 688 -196 688 -185 c 0
199 293 m 0
 199 448 313 556 508 556 c 0
 538 556 595 559 658 510 c 1
 712 551 l 2
 718 555 717 556 725 556 c 0
 741 556 740 550 740 536 c 2
 740 378 l 2
 740 357 741 356 719 356 c 0
 700 356 698 358 696 373 c 0
 680 464 606 518 526 518 c 0
 443 518 388 488 362 454 c 1
 335 417 322 377 322 294 c 0
 322 229 330 175 364 133 c 0
 398 93 460 68 532 68 c 0
 558 68 574 72 592 76 c 0
 626 94 624 120 624 132 c 2
 624 215 l 1
 624 211 623 208 627 207 c 1
 629 206 499 206 506 206 c 1
 512 206 l 1
 512 244 l 1
 555 242 626 240 674 240 c 0
 705 240 775 242 801 244 c 1
 801 206 l 1
 807 206 736 206 738 208 c 1
 739 209 740 210 740 214 c 1
 740 58 l 2
 740 47 739 36 728 36 c 0
 724 36 674 53 648 74 c 1
 607 28 527 30 509 30 c 0
 302 30 199 145 199 293 c 0
EndSplineSet
EndChar
StartChar: uF271B
Encoding: 993051 993051 1167
Width: 1000
Flags: MW
LayerCount: 2
Fore
SplineSet
38 301 m 0
 38 407 61 591 217 746 c 0
 235 763 277 800 294 800 c 0
 302 800 312 797 312 786 c 0
 312 781 311 780 296 765 c 0
 186 654 135 497 135 300 c 0
 135 212 147 120 173 41 c 0
 215 -87 280 -148 309 -175 c 0
 309 -176 312 -180 312 -185 c 0
 312 -196 302 -199 294 -199 c 0
 275 -199 184 -132 118 -17 c 0
 71 66 38 176 38 301 c 0
688 -185 m 0
 688 -180 689 -179 704 -164 c 0
 814 -53 865 104 865 301 c 0
 865 458 831 635 705 763 c 0
 688 779 688 781 688 786 c 0
 688 797 698 800 706 800 c 0
 725 800 816 733 882 618 c 0
 929 535 962 425 962 300 c 0
 962 194 939 10 783 -145 c 0
 765 -162 723 -199 706 -199 c 0
 698 -199 688 -196 688 -185 c 0
179 36 m 1
 179 74 l 1
 174 74 l 1
 167 74 266 73 264 72 c 1
 262 71 262 69 262 65 c 1
 262 522 l 1
 262 518 263 515 265 514 c 1
 267 513 168 513 174 513 c 1
 179 513 l 1
 179 550 l 1
 207 548 286 549 319 549 c 0
 352 549 432 548 460 550 c 1
 460 513 l 1
 464 513 l 1
 472 513 374 513 376 515 c 1
 378 516 378 519 378 522 c 1
 378 323 l 1
 622 323 l 1
 622 522 l 1
 622 518 622 515 625 514 c 1
 627 513 530 513 536 513 c 1
 540 513 l 1
 540 550 l 1
 568 548 648 549 681 549 c 0
 714 549 793 548 821 550 c 1
 821 513 l 1
 826 513 l 1
 833 513 734 513 736 514 c 1
 738 515 738 518 738 522 c 1
 738 65 l 1
 738 68 738 71 736 72 c 1
 734 74 834 74 826 74 c 1
 821 74 l 1
 821 36 l 1
 793 38 714 38 681 38 c 0
 648 38 568 38 540 36 c 1
 540 74 l 1
 536 74 l 1
 529 74 626 74 624 72 c 1
 622 71 622 69 622 65 c 1
 622 285 l 1
 378 285 l 1
 378 65 l 1
 378 69 378 71 376 72 c 1
 374 73 471 74 464 74 c 1
 460 74 l 1
 460 36 l 1
 432 38 352 38 319 38 c 0
 286 38 207 38 179 36 c 1
EndSplineSet
EndChar
StartChar: uF271D
Encoding: 993053 993053 1169
Width: 1000
Flags: MW
LayerCount: 2
Fore
SplineSet
38 301 m 0
 38 407 61 591 217 746 c 0
 235 763 277 800 294 800 c 0
 302 800 312 797 312 786 c 0
 312 781 311 780 296 765 c 0
 186 654 135 497 135 300 c 0
 135 212 147 120 173 41 c 0
 215 -87 280 -148 309 -175 c 0
 309 -176 312 -180 312 -185 c 0
 312 -196 302 -199 294 -199 c 0
 275 -199 184 -132 118 -17 c 0
 71 66 38 176 38 301 c 0
688 -185 m 0
 688 -180 689 -179 704 -164 c 0
 814 -53 865 104 865 301 c 0
 865 458 831 635 705 763 c 0
 688 779 688 781 688 786 c 0
 688 797 698 800 706 800 c 0
 725 800 816 733 882 618 c 0
 929 535 962 425 962 300 c 0
 962 194 939 10 783 -145 c 0
 765 -162 723 -199 706 -199 c 0
 698 -199 688 -196 688 -185 c 0
304 121 m 0
 304 161 335 182 366 182 c 0
 392 182 426 163 426 120 c 0
 426 75 384 64 394 64 c 1
 416 62 435 58 450 58 c 0
 532 58 523 146 523 146 c 2
 523 521 l 1
 523 517 523 515 526 514 c 1
 528 513 401 512 409 512 c 1
 416 512 l 1
 416 550 l 1
 454 548 530 548 572 548 c 0
 600 548 672 548 696 550 c 1
 696 512 l 1
 703 512 631 512 633 514 c 1
 634 515 635 517 635 520 c 1
 635 144 l 2
 635 139 633 128 631 120 c 0
 614 56 546 28 455 28 c 0
 391 28 343 44 319 73 c 0
 309 86 304 103 304 121 c 0
EndSplineSet
EndChar
StartChar: uF271E
Encoding: 993054 993054 1170
Width: 1000
Flags: MW
LayerCount: 2
Fore
SplineSet
38 301 m 0
 38 407 61 591 217 746 c 0
 235 763 277 800 294 800 c 0
 302 800 312 797 312 786 c 0
 312 781 311 780 296 765 c 0
 186 654 135 497 135 300 c 0
 135 212 147 120 173 41 c 0
 215 -87 280 -148 309 -175 c 0
 309 -176 312 -180 312 -185 c 0
 312 -196 302 -199 294 -199 c 0
 275 -199 184 -132 118 -17 c 0
 71 66 38 176 38 301 c 0
688 -185 m 0
 688 -180 689 -179 704 -164 c 0
 814 -53 865 104 865 301 c 0
 865 458 831 635 705 763 c 0
 688 779 688 781 688 786 c 0
 688 797 698 800 706 800 c 0
 725 800 816 733 882 618 c 0
 929 535 962 425 962 300 c 0
 962 194 939 10 783 -145 c 0
 765 -162 723 -199 706 -199 c 0
 698 -199 688 -196 688 -185 c 0
186 36 m 1
 186 74 l 1
 182 74 l 1
 175 74 271 73 269 72 c 1
 267 71 266 69 266 65 c 1
 266 522 l 1
 266 518 267 515 269 514 c 1
 271 513 175 513 182 513 c 1
 186 513 l 1
 186 550 l 1
 214 548 291 549 324 549 c 0
 357 549 438 548 466 550 c 1
 466 513 l 1
 470 513 l 1
 478 513 380 513 382 515 c 1
 384 516 384 519 384 522 c 1
 384 281 l 1
 671 515 l 1
 661 516 670 513 655 514 c 0
 631 517 614 513 609 513 c 1
 609 550 l 1
 636 548 695 549 723 549 c 0
 723 549 770 548 802 550 c 1
 802 513 l 1
 804 513 790 513 792 513 c 1
 777 515 745 524 726 508 c 2
 534 352 l 1
 744 84 l 2
 750 76 751 74 793 74 c 1
 792 74 815 74 814 74 c 1
 814 36 l 1
 787 38 731 38 700 38 c 0
 664 38 593 38 561 36 c 1
 561 74 l 1
 590 74 601 74 619 76 c 1
 617 79 618 80 614 83 c 2
 456 287 l 1
 384 229 l 1
 384 65 l 1
 384 68 383 71 382 72 c 1
 380 74 478 74 470 74 c 1
 466 74 l 1
 466 36 l 1
 438 38 357 38 324 38 c 0
 291 38 214 38 186 36 c 1
EndSplineSet
EndChar
StartChar: uF2724
Encoding: 993060 993060 1176
Width: 1000
Flags: MW
LayerCount: 2
Fore
SplineSet
38 301 m 0
 38 407 61 591 217 746 c 0
 235 763 277 800 294 800 c 0
 302 800 312 797 312 786 c 0
 312 781 311 780 296 765 c 0
 186 654 135 497 135 300 c 0
 135 212 147 120 173 41 c 0
 215 -87 280 -148 309 -175 c 0
 309 -176 312 -180 312 -185 c 0
 312 -196 302 -199 294 -199 c 0
 275 -199 184 -132 118 -17 c 0
 71 66 38 176 38 301 c 0
688 -185 m 0
 688 -180 689 -179 704 -164 c 0
 814 -53 865 104 865 301 c 0
 865 458 831 635 705 763 c 0
 688 779 688 781 688 786 c 0
 688 797 698 800 706 800 c 0
 725 800 816 733 882 618 c 0
 929 535 962 425 962 300 c 0
 962 194 939 10 783 -145 c 0
 765 -162 723 -199 706 -199 c 0
 698 -199 688 -196 688 -185 c 0
216 317 m 0
 216 476 316 584 498 584 c 0
 672 584 779 481 779 317 c 0
 779 243 756 128 624 78 c 1
 656 35 682 41 694 41 c 0
 702 41 750 37 754 62 c 0
 755 66 757 77 769 77 c 0
 785 77 784 63 784 57 c 0
 784 3 756 -83 680 -83 c 0
 610 -83 593 -26 569 62 c 1
 537 56 512 57 498 57 c 0
 314 57 216 164 216 317 c 0
334 318 m 0
 334 288 315 158 420 107 c 1
 418 111 422 120 422 120 c 0
 422 157 459 180 497 180 c 0
 522 180 542 172 557 160 c 0
 573 147 586 131 594 120 c 1
 664 168 662 280 662 318 c 0
 662 356 660 424 630 477 c 0
 594 539 535 552 497 552 c 0
 466 552 402 543 362 472 c 1
 332 415 334 339 334 318 c 0
452 120 m 0
 452 112 456 90 498 90 c 0
 519 90 542 94 559 100 c 1
 553 120 544 131 536 137 c 0
 522 149 509 150 498 150 c 0
 474 150 452 140 452 120 c 0
EndSplineSet
EndChar
StartChar: uF2727
Encoding: 993063 993063 1179
Width: 1000
Flags: MW
LayerCount: 2
Fore
SplineSet
38 301 m 0
 38 407 61 591 217 746 c 0
 235 763 277 800 294 800 c 0
 302 800 312 797 312 786 c 0
 312 781 311 780 296 765 c 0
 186 654 135 497 135 300 c 0
 135 212 147 120 173 41 c 0
 215 -87 280 -148 309 -175 c 0
 309 -176 312 -180 312 -185 c 0
 312 -196 302 -199 294 -199 c 0
 275 -199 184 -132 118 -17 c 0
 71 66 38 176 38 301 c 0
688 -185 m 0
 688 -180 689 -179 704 -164 c 0
 814 -53 865 104 865 301 c 0
 865 458 831 635 705 763 c 0
 688 779 688 781 688 786 c 0
 688 797 698 800 706 800 c 0
 725 800 816 733 882 618 c 0
 929 535 962 425 962 300 c 0
 962 194 939 10 783 -145 c 0
 765 -162 723 -199 706 -199 c 0
 698 -199 688 -196 688 -185 c 0
226 356 m 1
 242 541 l 1
 758 541 l 1
 774 356 l 1
 734 356 l 1
 726 433 722 502 616 502 c 1
 620 502 554 502 556 502 c 1
 560 503 559 505 559 509 c 1
 559 64 l 1
 559 68 559 69 556 71 c 1
 554 72 692 73 682 73 c 1
 674 73 l 1
 674 34 l 1
 632 36 546 37 500 37 c 0
 454 37 368 36 326 34 c 1
 326 73 l 1
 318 73 l 1
 307 73 447 72 445 70 c 1
 443 68 443 67 443 64 c 1
 443 509 l 1
 443 505 444 503 448 502 c 1
 450 502 380 502 384 502 c 1
 277 502 272 432 266 356 c 1
 226 356 l 1
EndSplineSet
EndChar
StartChar: uF272D
Encoding: 993069 993069 1185
Width: 1000
Flags: MW
LayerCount: 2
Fore
SplineSet
38 301 m 0
 38 407 61 591 217 746 c 0
 235 763 277 800 294 800 c 0
 302 800 312 797 312 786 c 0
 312 781 311 780 296 765 c 0
 186 654 135 497 135 300 c 0
 135 212 147 120 173 41 c 0
 215 -87 280 -148 309 -175 c 0
 309 -176 312 -180 312 -185 c 0
 312 -196 302 -199 294 -199 c 0
 275 -199 184 -132 118 -17 c 0
 71 66 38 176 38 301 c 0
688 -185 m 0
 688 -180 689 -179 704 -164 c 0
 814 -53 865 104 865 301 c 0
 865 458 831 635 705 763 c 0
 688 779 688 781 688 786 c 0
 688 797 698 800 706 800 c 0
 725 800 816 733 882 618 c 0
 929 535 962 425 962 300 c 0
 962 194 939 10 783 -145 c 0
 765 -162 723 -199 706 -199 c 0
 698 -199 688 -196 688 -185 c 0
275 57 m 0
 275 65 275 69 281 78 c 2
 583 513 l 1
 491 513 l 2
 391 513 332 472 326 368 c 1
 287 368 l 1
 298 550 l 1
 695 550 l 2
 711 550 720 552 720 531 c 0
 720 522 720 521 714 512 c 2
 412 77 l 1
 512 77 l 2
 670 77 680 174 686 252 c 1
 725 252 l 1
 711 36 l 1
 300 36 l 2
 284 36 275 35 275 57 c 0
EndSplineSet
EndChar
StartChar: uF27AB
Encoding: 993195 993195 1203
Width: 1000
Flags: MW
LayerCount: 2
Fore
SplineSet
542 139 m 0
 542 190 572 217 609 217 c 0
 647 217 675 186 675 141 c 0
 675 100 654 75 625 66 c 1
 667 36 711 32 734 32 c 0
 825 32 825 134 825 181 c 0
 825 232 825 330 730 330 c 2
 692 330 l 2
 676 330 667 330 667 348 c 0
 667 354 669 364 678 365 c 0
 682 366 684 367 720 369 c 0
 753 371 773 390 787 414 c 4
 811 455 811 511 811 519 c 0
 811 552 808 616 736 616 c 0
 709 616 670 608 640 580 c 1
 643 579 691 568 691 510 c 0
 691 473 669 441 630 441 c 0
 597 441 570 468 570 511 c 0
 570 591 637 655 741 655 c 0
 864 655 930 593 930 516 c 0
 930 430 867 373 807 352 c 1
 933 321 958 235 958 180 c 0
 958 89 895 -11 739 -11 c 0
 627 -11 542 49 542 139 c 0
180 251 m 0
 180 357 200 541 336 696 c 0
 352 713 389 750 404 750 c 0
 411 750 420 747 420 736 c 0
 420 731 419 730 406 715 c 0
 310 604 266 447 266 250 c 0
 266 162 275 70 298 -9 c 0
 335 -137 391 -198 416 -225 c 0
 416 -226 420 -230 420 -235 c 0
 420 -246 411 -249 404 -249 c 0
 387 -249 307 -182 250 -67 c 0
 209 16 180 126 180 251 c 0
EndSplineSet
EndChar
StartChar: uF27AF
Encoding: 993199 993199 1207
Width: 1000
Flags: MW
LayerCount: 2
Fore
SplineSet
556 422 m 1
 586 676 l 1
 627 676 l 1
 629 666 630 657 648 653 c 1
 660 649 788 644 808 644 c 2
 986 644 l 1
 986 609 986 607 977 596 c 2
 842 416 l 2
 812 375 794 316 786 249 c 0
 780 202 777 154 777 106 c 2
 777 60 l 2
 777 -6 736 -11 722 -11 c 0
 717 -11 668 -11 668 59 c 0
 668 207 730 342 814 454 c 2
 862 519 l 1
 715 519 l 2
 700 519 630 519 620 513 c 0
 617 511 606 498 597 422 c 1
 556 422 l 1
180 251 m 0
 180 357 200 541 336 696 c 0
 352 713 389 750 404 750 c 0
 411 750 420 747 420 736 c 0
 420 731 419 730 406 715 c 0
 310 604 266 447 266 250 c 0
 266 162 275 70 298 -9 c 0
 335 -137 391 -198 416 -225 c 0
 416 -226 420 -230 420 -235 c 0
 420 -246 411 -249 404 -249 c 0
 387 -249 307 -182 250 -67 c 0
 209 16 180 126 180 251 c 0
EndSplineSet
EndChar
StartChar: uF27B1
Encoding: 993201 993201 1209
Width: 1000
Flags: MW
LayerCount: 2
Fore
SplineSet
542 440 m 0
 542 510 566 567 606 604 c 5
 643 637 694 655 752 655 c 0
 958 655 958 396 958 329 c 0
 958 73 821 -11 708 -11 c 0
 611 -11 567 46 567 114 c 0
 567 152 588 178 622 178 c 0
 656 178 676 150 676 116 c 0
 676 71 643 57 633 54 c 1
 659 34 690 32 706 32 c 0
 766 32 804 77 819 116 c 0
 832 150 840 209 840 282 c 2
 840 304 l 1
 807 234 765 227 735 227 c 0
 628 227 542 302 542 440 c 0
660 438 m 0
 660 384 660 338 673 306 c 0
 684 279 705 263 743 263 c 0
 816 263 839 365 839 428 c 0
 839 462 838 520 828 553 c 0
 825 563 804 616 753 616 c 0
 710 616 688 599 675 572 c 0
 660 539 660 491 660 438 c 0
180 251 m 0
 180 357 200 541 336 696 c 0
 352 713 389 750 404 750 c 0
 411 750 420 747 420 736 c 0
 420 731 419 730 406 715 c 0
 310 604 266 447 266 250 c 0
 266 162 275 70 298 -9 c 0
 335 -137 391 -198 416 -225 c 0
 416 -226 420 -230 420 -235 c 0
 420 -246 411 -249 404 -249 c 0
 387 -249 307 -182 250 -67 c 0
 209 16 180 126 180 251 c 0
EndSplineSet
EndChar
StartChar: uF27B2
Encoding: 993202 993202 1210
Width: 1000
Flags: MW
LayerCount: 2
Fore
SplineSet
581 -235 m 0
 581 -230 582 -229 595 -214 c 0
 691 -103 735 54 735 251 c 0
 735 408 706 585 596 713 c 0
 581 729 581 731 581 736 c 0
 581 747 589 750 596 750 c 0
 613 750 693 683 750 568 c 0
 791 485 819 375 819 250 c 0
 819 144 800 -40 664 -195 c 0
 648 -212 611 -249 596 -249 c 0
 589 -249 581 -246 581 -235 c 0
39 319 m 0
 39 382 39 504 96 582 c 0
 127 625 176 655 250 655 c 0
 316 655 362 631 393 596 c 0
 461 519 461 385 461 319 c 0
 461 252 460 128 397 52 c 0
 366 14 320 -11 250 -11 c 0
 180 -11 134 14 103 52 c 0
 40 128 39 253 39 319 c 0
151 331 m 0
 151 276 151 172 159 120 c 0
 170 47 219 25 250 25 c 0
 276 25 331 39 343 132 c 0
 349 184 349 275 349 331 c 0
 349 413 350 519 335 556 c 0
 318 600 282 619 250 619 c 0
 229 619 168 609 158 520 c 0
 151 468 151 403 151 331 c 0
EndSplineSet
EndChar
StartChar: uF27B7
Encoding: 993207 993207 1215
Width: 1000
Flags: MW
LayerCount: 2
Fore
SplineSet
581 -235 m 0
 581 -230 582 -229 595 -214 c 0
 691 -103 735 54 735 251 c 0
 735 408 706 585 596 713 c 0
 581 729 581 731 581 736 c 0
 581 747 589 750 596 750 c 0
 613 750 693 683 750 568 c 0
 791 485 819 375 819 250 c 0
 819 144 800 -40 664 -195 c 0
 648 -212 611 -249 596 -249 c 0
 589 -249 581 -246 581 -235 c 0
50 159 m 0
 50 220 95 229 108 229 c 0
 129 229 166 214 166 161 c 0
 166 125 147 103 122 96 c 0
 119 95 114 94 110 94 c 1
 147 37 201 32 222 32 c 0
 259 32 283 44 299 64 c 5
 327 100 327 158 327 205 c 0
 327 254 326 307 308 340 c 0
 297 360 279 373 249 373 c 0
 213 373 166 363 132 317 c 0
 126 309 124 305 113 305 c 0
 94 305 94 318 94 336 c 2
 94 628 l 2
 94 644 94 655 106 655 c 0
 109 655 110 654 118 651 c 0
 141 642 187 623 253 623 c 0
 290 623 336 629 386 651 c 0
 396 655 396 655 399 655 c 0
 409 655 411 644 411 637 c 0
 411 612 331 499 204 499 c 0
 174 499 164 501 140 506 c 1
 140 374 l 1
 181 406 228 409 253 409 c 0
 382 409 450 316 450 201 c 0
 450 79 365 -11 226 -11 c 0
 118 -11 50 74 50 159 c 0
EndSplineSet
EndChar
StartChar: uF2801
Encoding: 993281 993281 39
Width: 1000
Flags: MW
LayerCount: 2
Fore
SplineSet
545 396 m 1
 568 595 l 1
 600 595 l 1
 602 587 602 582 614 579 c 1
 622 576 736 571 746 571 c 2
 868 571 l 1
 868 543 868 541 861 533 c 2
 760 400 l 2
 741 373 727 334 720 276 c 0
 716 242 713 207 713 172 c 2
 713 138 l 2
 713 78 674 82 670 82 c 0
 674 82 628 74 628 137 c 0
 628 257 680 358 742 438 c 1
 738 432 768 471 766 468 c 1
 666 468 l 2
 655 468 605 468 596 464 c 0
 596 464 587 464 579 396 c 1
 545 396 l 1
157 327 m 0
 157 371 156 472 204 532 c 1
 225 554 257 577 316 577 c 0
 370 577 398 557 418 543 c 0
 475 485 474 375 474 327 c 0
 474 279 474 178 421 120 c 0
 401 103 371 82 316 82 c 0
 260 82 229 102 208 122 c 0
 157 179 157 279 157 327 c 0
246 336 m 0
 246 296 246 216 252 178 c 0
 258 127 294 112 316 112 c 0
 332 112 373 118 381 188 c 0
 384 225 385 298 385 336 c 0
 385 402 385 487 373 511 c 0
 360 534 340 548 316 548 c 0
 301 548 258 541 252 479 c 0
 247 440 246 392 246 336 c 0
50 300 m 0
 50 584 236 760 501 760 c 0
 758 760 949 589 950 300 c 0
 950 21 769 -160 499 -160 c 0
 230 -160 50 24 50 300 c 0
112 299 m 0
 112 55 269 -97 498 -97 c 0
 724 -97 887 47 887 301 c 0
 887 547 729 697 502 697 c 0
 276 697 112 553 112 299 c 0
EndSplineSet
EndChar
StartChar: uF280D
Encoding: 993293 993293 51
Width: 1000
Flags: MW
LayerCount: 2
Fore
SplineSet
548 489 m 1
 548 527 l 1
 564 527 l 1
 575 527 644 526 696 570 c 0
 703 576 702 575 712 575 c 1
 729 575 729 566 729 550 c 2
 729 115 l 1
 729 122 842 124 825 124 c 1
 819 124 l 1
 819 86 l 1
 791 88 720 88 688 88 c 0
 656 88 584 88 556 86 c 1
 556 124 l 1
 550 124 l 1
 533 124 646 122 646 115 c 1
 646 503 l 1
 607 490 572 489 564 489 c 1
 548 489 l 1
142 202 m 1
 142 240 l 1
 369 562 l 2
 377 574 376 574 392 574 c 0
 412 574 414 570 414 549 c 2
 414 240 l 1
 474 240 l 1
 474 202 l 1
 414 202 l 1
 414 116 l 1
 414 123 493 124 479 124 c 1
 475 124 l 1
 475 86 l 1
 455 88 392 88 368 88 c 0
 341 88 278 88 254 86 c 1
 254 124 l 1
 250 124 l 1
 236 124 326 123 326 116 c 1
 326 202 l 1
 142 202 l 1
178 240 m 1
 334 240 l 1
 334 461 l 1
 178 240 l 1
50 300 m 0
 50 584 236 760 501 760 c 0
 758 760 949 589 950 300 c 0
 950 21 769 -160 499 -160 c 0
 230 -160 50 24 50 300 c 0
112 299 m 0
 112 55 269 -97 498 -97 c 0
 724 -97 887 47 887 301 c 0
 887 547 729 697 502 697 c 0
 276 697 112 553 112 299 c 0
EndSplineSet
EndChar
StartChar: uF2813
Encoding: 993299 993299 57
Width: 1000
Flags: MW
LayerCount: 2
Fore
SplineSet
544 396 m 1
 566 595 l 1
 600 595 l 1
 602 587 601 582 613 579 c 1
 621 576 736 571 746 571 c 2
 866 571 l 1
 866 543 867 541 860 533 c 2
 758 400 l 2
 739 373 724 334 717 276 c 0
 713 242 712 207 712 172 c 2
 712 138 l 2
 712 78 672 82 668 82 c 0
 672 82 626 74 626 137 c 0
 626 257 678 358 740 438 c 1
 736 432 766 471 764 468 c 1
 665 468 l 2
 654 468 604 468 595 464 c 0
 595 464 585 464 577 396 c 1
 544 396 l 1
148 204 m 1
 148 242 l 1
 376 564 l 2
 384 576 383 576 399 576 c 0
 419 576 421 572 421 551 c 2
 421 242 l 1
 481 242 l 1
 481 204 l 1
 421 204 l 1
 421 118 l 1
 421 125 500 126 486 126 c 1
 482 126 l 1
 482 88 l 1
 462 90 399 90 375 90 c 0
 348 90 283 90 259 88 c 1
 259 126 l 1
 255 126 l 1
 241 126 333 125 333 118 c 1
 333 204 l 1
 148 204 l 1
185 242 m 1
 341 242 l 1
 341 463 l 1
 185 242 l 1
50 300 m 0
 50 584 236 760 501 760 c 0
 758 760 949 589 950 300 c 0
 950 21 769 -160 499 -160 c 0
 230 -160 50 24 50 300 c 0
112 299 m 0
 112 55 269 -97 498 -97 c 0
 724 -97 887 47 887 301 c 0
 887 547 729 697 502 697 c 0
 276 697 112 553 112 299 c 0
EndSplineSet
EndChar
StartChar: uF2822
Encoding: 993314 993314 72
Width: 1000
Flags: MW
LayerCount: 2
Fore
SplineSet
536 85 m 1
 536 84 536 101 536 100 c 2
 536 117 537 118 545 128 c 2
 673 279 l 2
 720 334 741 383 741 433 c 0
 741 487 711 536 658 536 c 0
 640 536 620 532 600 522 c 1
 602 520 607 520 608 518 c 0
 618 510 634 499 634 464 c 0
 634 424 608 407 585 407 c 0
 565 407 536 422 536 466 c 0
 536 534 599 575 677 575 c 0
 769 575 836 520 836 434 c 0
 836 364 795 329 732 276 c 1
 696 245 673 224 634 188 c 1
 720 188 l 2
 728 188 777 189 786 193 c 1
 795 197 801 248 803 261 c 1
 836 261 l 1
 816 85 l 1
 536 85 l 1
156 323 m 0
 156 518 266 575 352 575 c 0
 423 575 449 524 449 478 c 0
 449 450 437 427 407 427 c 0
 379 427 364 449 364 476 c 0
 364 495 372 521 398 526 c 1
 383 541 364 542 354 542 c 0
 310 542 276 511 264 479 c 0
 264 473 249 446 249 358 c 2
 249 345 l 1
 280 407 319 397 324 397 c 0
 402 397 468 347 468 239 c 0
 468 139 407 79 314 79 c 0
 267 79 219 97 188 153 c 1
 159 208 156 269 156 323 c 0
252 240 m 0
 252 226 251 173 260 152 c 0
 265 140 282 114 313 114 c 0
 351 114 363 132 367 152 c 0
 374 174 374 205 374 242 c 0
 374 282 374 314 366 336 c 0
 362 352 350 368 317 368 c 0
 289 368 252 343 252 240 c 0
50 300 m 0
 50 584 236 760 501 760 c 0
 758 760 949 589 950 300 c 0
 950 21 769 -160 499 -160 c 0
 230 -160 50 24 50 300 c 0
112 299 m 0
 112 55 269 -97 498 -97 c 0
 724 -97 887 47 887 301 c 0
 887 547 729 697 502 697 c 0
 276 697 112 553 112 299 c 0
EndSplineSet
EndChar
StartChar: uF2837
Encoding: 993335 993335 93
Width: 1000
Flags: MW
LayerCount: 2
Fore
SplineSet
532 191 m 0
 532 230 554 252 584 252 c 0
 614 252 635 228 635 192 c 0
 635 160 622 142 601 132 c 1
 635 116 662 114 675 114 c 0
 752 114 739 205 739 223 c 0
 739 252 744 332 671 332 c 2
 644 332 l 2
 632 332 625 331 625 347 c 0
 625 350 627 359 634 360 c 0
 636 361 633 361 665 363 c 0
 691 365 704 382 711 396 c 1
 729 426 728 468 728 473 c 0
 728 487 736 542 676 542 c 0
 658 542 633 538 611 521 c 1
 611 520 647 510 647 464 c 0
 647 434 630 409 600 409 c 0
 574 409 552 432 552 466 c 0
 552 527 602 575 680 575 c 0
 777 575 822 528 822 471 c 0
 822 406 774 364 733 349 c 1
 831 324 844 259 844 223 c 0
 844 157 801 79 678 79 c 0
 594 79 532 123 532 191 c 0
156 208 m 0
 156 260 176 301 234 331 c 1
 219 340 209 350 200 364 c 0
 183 389 178 417 178 441 c 0
 178 513 219 575 314 575 c 0
 390 575 448 544 448 466 c 0
 448 424 432 391 388 364 c 1
 395 359 417 346 435 325 c 0
 453 305 468 278 468 230 c 0
 468 148 420 79 311 79 c 0
 226 79 156 114 156 208 c 0
218 208 m 0
 218 151 250 114 314 114 c 0
 346 114 408 120 408 185 c 0
 408 219 386 232 356 252 c 1
 311 281 295 291 267 309 c 1
 255 299 218 270 218 208 c 0
230 490 m 0
 230 461 253 452 257 449 c 2
 356 386 l 1
 380 407 395 428 395 464 c 0
 395 514 366 542 311 542 c 0
 292 542 230 544 230 490 c 0
50 300 m 0
 50 584 236 760 501 760 c 0
 758 760 949 589 950 300 c 0
 950 21 769 -160 499 -160 c 0
 230 -160 50 24 50 300 c 0
112 299 m 0
 112 55 269 -97 498 -97 c 0
 724 -97 887 47 887 301 c 0
 887 547 729 697 502 697 c 0
 276 697 112 553 112 299 c 0
EndSplineSet
EndChar
StartChar: uF2848
Encoding: 993352 993352 110
Width: 1000
Flags: MW
LayerCount: 2
Fore
SplineSet
647 325 m 0
 647 369 646 468 677 528 c 1
 692 550 713 575 752 575 c 0
 788 575 806 555 820 541 c 0
 858 483 858 373 858 325 c 0
 858 277 858 175 822 117 c 0
 808 100 789 79 752 79 c 0
 714 79 694 100 681 120 c 0
 646 177 647 277 647 325 c 0
713 334 m 0
 713 294 714 213 716 175 c 0
 720 124 740 109 752 109 c 0
 761 109 784 116 789 186 c 0
 791 223 791 296 791 334 c 0
 791 400 790 484 784 508 c 0
 777 531 766 545 752 545 c 0
 744 545 719 538 716 476 c 0
 713 437 713 390 713 334 c 0
397 325 m 0
 397 369 397 468 428 528 c 1
 443 550 464 575 503 575 c 0
 539 575 556 555 570 541 c 0
 608 483 608 373 608 325 c 0
 608 277 608 175 572 117 c 0
 558 100 540 79 503 79 c 0
 465 79 444 100 431 120 c 0
 396 177 397 277 397 325 c 0
464 334 m 0
 464 294 464 213 466 175 c 0
 470 124 491 109 503 109 c 0
 512 109 534 116 539 186 c 0
 541 223 542 296 542 334 c 0
 542 400 542 484 536 508 c 0
 529 531 517 545 503 545 c 0
 495 545 469 538 466 476 c 0
 463 437 464 390 464 334 c 0
163 488 m 1
 163 527 l 1
 173 527 l 1
 180 527 220 525 262 569 c 0
 268 575 269 575 276 575 c 1
 290 575 289 566 289 550 c 2
 289 115 l 1
 289 122 357 124 348 124 c 1
 344 124 l 1
 344 85 l 1
 325 87 278 88 256 88 c 0
 235 88 187 87 168 85 c 1
 168 124 l 1
 164 124 l 1
 155 124 222 122 222 115 c 1
 222 503 l 1
 190 490 179 488 173 488 c 1
 163 488 l 1
50 300 m 0
 50 584 236 760 501 760 c 0
 758 760 949 589 950 300 c 0
 950 21 769 -160 499 -160 c 0
 230 -160 50 24 50 300 c 0
112 299 m 0
 112 55 269 -97 498 -97 c 0
 724 -97 887 47 887 301 c 0
 887 547 729 697 502 697 c 0
 276 697 112 553 112 299 c 0
EndSplineSet
EndChar
StartChar: uF284B
Encoding: 993355 993355 113
Width: 1000
Flags: MW
LayerCount: 2
Fore
SplineSet
329 273 m 0
 329 359 382 447 526 447 c 0
 550 447 594 448 625 434 c 0
 646 424 660 408 660 381 c 0
 660 347 634 330 610 330 c 0
 590 330 561 345 561 381 c 0
 561 387 560 401 570 415 c 1
 564 411 561 414 530 414 c 0
 419 414 434 300 434 278 c 0
 434 266 417 135 537 135 c 0
 577 135 610 152 630 193 c 0
 634 205 634 205 650 205 c 0
 660 205 671 204 671 194 c 0
 671 190 650 102 522 102 c 0
 399 102 329 172 329 273 c 0
50 300 m 0
 50 584 236 760 501 760 c 0
 758 760 949 589 950 300 c 0
 950 21 769 -160 499 -160 c 0
 230 -160 50 24 50 300 c 0
112 299 m 0
 112 55 269 -97 498 -97 c 0
 724 -97 887 47 887 301 c 0
 887 547 729 697 502 697 c 0
 276 697 112 553 112 299 c 0
EndSplineSet
EndChar
StartChar: uF284D
Encoding: 993357 993357 115
Width: 1000
Flags: MW
LayerCount: 2
Fore
SplineSet
320 276 m 0
 320 370 384 447 512 447 c 0
 568 447 609 433 639 404 c 0
 678 364 680 307 680 289 c 0
 680 268 671 267 655 267 c 2
 424 267 l 1
 424 244 423 197 450 166 c 0
 466 148 490 135 530 135 c 0
 589 135 624 165 638 191 c 0
 642 205 646 208 660 208 c 0
 664 208 680 210 680 194 c 0
 680 181 646 102 522 102 c 0
 392 102 320 176 320 276 c 0
424 294 m 1
 604 294 l 1
 603 319 603 418 512 418 c 0
 488 418 461 408 441 379 c 0
 424 353 426 320 424 294 c 1
50 300 m 0
 50 584 236 760 501 760 c 0
 758 760 949 589 950 300 c 0
 950 21 769 -160 499 -160 c 0
 230 -160 50 24 50 300 c 0
112 299 m 0
 112 55 269 -97 498 -97 c 0
 724 -97 887 47 887 301 c 0
 887 547 729 697 502 697 c 0
 276 697 112 553 112 299 c 0
EndSplineSet
EndChar
StartChar: uF284F
Encoding: 993359 993359 117
Width: 1000
Flags: MW
LayerCount: 2
Fore
SplineSet
296 127 m 0
 296 178 358 191 359 190 c 1
 327 216 326 255 326 263 c 0
 326 277 329 301 353 331 c 1
 328 348 313 379 313 409 c 0
 313 459 351 521 469 521 c 0
 535 521 564 501 574 496 c 1
 607 521 644 524 654 524 c 0
 689 524 704 497 704 479 c 0
 704 461 692 444 669 444 c 0
 647 444 634 459 634 479 c 0
 634 482 635 488 635 492 c 1
 633 492 632 492 630 492 c 0
 622 491 611 487 595 481 c 1
 604 470 625 447 625 410 c 0
 625 360 587 298 469 298 c 0
 449 298 407 300 372 317 c 1
 370 313 367 304 367 295 c 0
 367 283 373 255 408 249 c 0
 412 248 446 248 466 248 c 0
 544 248 591 247 633 226 c 0
 686 199 691 150 691 129 c 0
 691 79 638 32 494 32 c 0
 330 32 296 93 296 127 c 0
367 128 m 0
 367 96 400 62 494 62 c 0
 598 62 621 103 621 127 c 0
 621 169 536 168 523 168 c 2
 424 168 l 1
 420 168 367 176 367 128 c 0
403 410 m 0
 403 372 403 328 469 328 c 0
 499 328 516 336 526 351 c 0
 536 367 535 391 535 409 c 0
 535 447 535 491 469 491 c 0
 444 491 430 488 419 476 c 0
 403 460 403 430 403 410 c 0
50 300 m 0
 50 584 236 760 501 760 c 0
 758 760 949 589 950 300 c 0
 950 21 769 -160 499 -160 c 0
 230 -160 50 24 50 300 c 0
112 299 m 0
 112 55 269 -97 498 -97 c 0
 724 -97 887 47 887 301 c 0
 887 547 729 697 502 697 c 0
 276 697 112 553 112 299 c 0
EndSplineSet
EndChar
StartChar: uF2863
Encoding: 993379 993379 137
Width: 1000
Flags: MW
LayerCount: 2
Fore
SplineSet
195 36 m 1
 195 74 l 1
 193 74 211 74 209 74 c 1
 273 73 272 78 274 84 c 2
 468 536 l 2
 473 551 477 557 500 557 c 0
 513 557 524 558 533 536 c 2
 732 67 l 1
 730 73 819 74 808 74 c 1
 805 74 l 1
 805 36 l 1
 781 38 705 40 675 40 c 0
 642 40 565 38 537 36 c 1
 537 74 l 1
 532 74 612 75 612 69 c 1
 612 68 612 67 612 66 c 1
 566 175 l 1
 361 175 l 1
 322 86 l 2
 321 85 319 78 319 77 c 0
 319 69 395 74 388 74 c 1
 388 36 l 1
 359 38 316 40 286 40 c 0
 264 40 226 37 195 36 c 1
378 213 m 1
 549 213 l 1
 463 413 l 1
 378 213 l 1
50 300 m 0
 50 584 236 760 501 760 c 0
 758 760 949 589 950 300 c 0
 950 21 769 -160 499 -160 c 0
 230 -160 50 24 50 300 c 0
112 299 m 0
 112 55 269 -97 498 -97 c 0
 724 -97 887 47 887 301 c 0
 887 547 729 697 502 697 c 0
 276 697 112 553 112 299 c 0
EndSplineSet
EndChar
StartChar: uF2869
Encoding: 993385 993385 143
Width: 1000
Flags: MW
LayerCount: 2
Fore
SplineSet
199 293 m 0
 199 448 313 556 508 556 c 0
 538 556 595 559 658 510 c 1
 712 551 l 2
 718 555 717 556 725 556 c 0
 741 556 740 550 740 536 c 2
 740 378 l 2
 740 357 741 356 719 356 c 0
 700 356 698 358 696 373 c 0
 680 464 606 518 526 518 c 0
 443 518 388 488 362 454 c 1
 335 417 322 377 322 294 c 0
 322 229 330 175 364 133 c 0
 398 93 460 68 532 68 c 0
 558 68 574 72 592 76 c 0
 626 94 624 120 624 132 c 2
 624 215 l 1
 624 211 623 208 627 207 c 1
 629 206 499 206 506 206 c 1
 512 206 l 1
 512 244 l 1
 555 242 626 240 674 240 c 0
 705 240 775 242 801 244 c 1
 801 206 l 1
 807 206 736 206 738 208 c 1
 739 209 740 210 740 214 c 1
 740 58 l 2
 740 47 739 36 728 36 c 0
 724 36 674 53 648 74 c 1
 607 28 527 30 509 30 c 0
 302 30 199 145 199 293 c 0
50 300 m 0
 50 584 236 760 501 760 c 0
 758 760 949 589 950 300 c 0
 950 21 769 -160 499 -160 c 0
 230 -160 50 24 50 300 c 0
112 299 m 0
 112 55 269 -97 498 -97 c 0
 724 -97 887 47 887 301 c 0
 887 547 729 697 502 697 c 0
 276 697 112 553 112 299 c 0
EndSplineSet
EndChar
StartChar: uF286D
Encoding: 993389 993389 147
Width: 1000
Flags: MW
LayerCount: 2
Fore
SplineSet
186 36 m 1
 186 74 l 1
 182 74 l 1
 175 74 271 73 269 72 c 1
 267 71 266 69 266 65 c 1
 266 522 l 1
 266 518 267 515 269 514 c 1
 271 513 175 513 182 513 c 1
 186 513 l 1
 186 550 l 1
 214 548 291 549 324 549 c 0
 357 549 438 548 466 550 c 1
 466 513 l 1
 470 513 l 1
 478 513 380 513 382 515 c 1
 384 516 384 519 384 522 c 1
 384 281 l 1
 671 515 l 1
 661 516 670 513 655 514 c 0
 631 517 614 513 609 513 c 1
 609 550 l 1
 636 548 695 549 723 549 c 0
 723 549 770 548 802 550 c 1
 802 513 l 1
 804 513 790 513 792 513 c 1
 777 515 745 524 726 508 c 2
 534 352 l 1
 744 84 l 2
 750 76 751 74 793 74 c 1
 792 74 815 74 814 74 c 1
 814 36 l 1
 787 38 731 38 700 38 c 0
 664 38 593 38 561 36 c 1
 561 74 l 1
 590 74 601 74 619 76 c 1
 617 79 618 80 614 83 c 2
 456 287 l 1
 384 229 l 1
 384 65 l 1
 384 68 383 71 382 72 c 1
 380 74 478 74 470 74 c 1
 466 74 l 1
 466 36 l 1
 438 38 357 38 324 38 c 0
 291 38 214 38 186 36 c 1
50 300 m 0
 50 584 236 760 501 760 c 0
 758 760 949 589 950 300 c 0
 950 21 769 -160 499 -160 c 0
 230 -160 50 24 50 300 c 0
112 299 m 0
 112 55 269 -97 498 -97 c 0
 724 -97 887 47 887 301 c 0
 887 547 729 697 502 697 c 0
 276 697 112 553 112 299 c 0
EndSplineSet
EndChar
StartChar: uF287B
Encoding: 993403 993403 161
Width: 1000
Flags: MW
LayerCount: 2
Fore
SplineSet
180 513 m 1
 180 550 l 1
 204 548 279 549 309 549 c 0
 344 549 422 548 454 550 c 1
 454 513 l 1
 462 513 387 513 387 517 c 1
 387 518 386 518 385 520 c 1
 542 297 l 1
 686 504 l 2
 690 508 689 509 691 511 c 1
 666 517 645 513 631 513 c 1
 631 550 l 1
 661 548 702 549 732 549 c 0
 753 549 788 549 820 550 c 1
 820 513 l 1
 822 513 806 514 809 514 c 1
 797 515 783 515 770 516 c 0
 752 515 747 516 740 506 c 2
 556 241 l 1
 556 65 l 1
 556 72 657 74 643 74 c 1
 639 74 l 1
 639 36 l 1
 611 38 533 38 500 38 c 0
 467 38 389 38 362 36 c 1
 362 74 l 1
 358 74 l 1
 344 74 444 72 444 65 c 1
 444 241 l 1
 250 520 l 1
 252 518 254 515 256 514 c 1
 258 513 170 513 176 513 c 1
 180 513 l 1
50 300 m 0
 50 584 236 760 501 760 c 0
 758 760 949 589 950 300 c 0
 950 21 769 -160 499 -160 c 0
 230 -160 50 24 50 300 c 0
112 299 m 0
 112 55 269 -97 498 -97 c 0
 724 -97 887 47 887 301 c 0
 887 547 729 697 502 697 c 0
 276 697 112 553 112 299 c 0
EndSplineSet
EndChar
StartChar: uF2911
Encoding: 993553 993553 184
Width: 1000
Flags: MW
LayerCount: 2
Fore
SplineSet
626 414 m 0
 626 454 625 490 635 514 c 0
 643 530 655 542 689 542 c 0
 728 542 743 500 742 498 c 0
 750 473 749 432 749 408 c 0
 749 365 734 287 682 287 c 0
 650 287 637 303 633 316 c 0
 624 339 626 373 626 414 c 0
531 415 m 0
 531 309 596 258 675 258 c 0
 691 258 723 256 750 310 c 1
 750 296 l 2
 750 245 746 203 738 179 c 0
 731 154 704 114 654 114 c 0
 642 114 624 116 604 128 c 1
 606 130 635 139 635 178 c 0
 635 205 621 227 593 227 c 0
 563 227 550 204 550 176 c 0
 550 125 581 79 656 79 c 0
 738 79 843 132 843 332 c 0
 843 344 865 575 689 575 c 0
 644 575 606 562 579 539 c 1
 549 513 531 466 531 415 c 0
244 334 m 0
 244 390 243 437 248 476 c 0
 254 538 297 545 312 545 c 0
 336 545 357 531 370 508 c 0
 382 484 381 400 381 334 c 0
 381 296 381 223 378 186 c 0
 370 116 328 109 312 109 c 0
 290 109 255 124 249 175 c 0
 243 213 244 294 244 334 c 0
154 325 m 0
 154 277 155 177 206 120 c 0
 227 100 256 79 312 79 c 0
 367 79 397 100 417 117 c 0
 470 175 470 277 470 325 c 0
 470 373 471 483 414 541 c 0
 394 555 366 575 312 575 c 0
 253 575 222 550 201 528 c 1
 153 468 154 369 154 325 c 0
50 300 m 0
 50 584 236 760 501 760 c 0
 758 760 949 589 950 300 c 0
 950 21 769 -160 499 -160 c 0
 230 -160 50 24 50 300 c 0
EndSplineSet
EndChar
StartChar: uF2912
Encoding: 993554 993554 185
Width: 1000
Flags: MW
LayerCount: 2
Fore
SplineSet
50 300 m 0
 50 584 236 760 501 760 c 0
 758 760 949 589 950 300 c 0
 950 21 769 -160 499 -160 c 0
 230 -160 50 24 50 300 c 0
182 488 m 1
 198 488 l 1
 206 488 241 490 280 503 c 1
 280 115 l 1
 280 122 167 124 184 124 c 1
 190 124 l 1
 190 85 l 1
 218 87 290 88 322 88 c 0
 354 88 426 87 454 85 c 1
 454 124 l 1
 460 124 l 1
 477 124 362 122 362 115 c 1
 362 550 l 2
 362 566 363 575 346 575 c 1
 336 575 337 575 330 569 c 0
 278 525 209 527 198 527 c 1
 182 527 l 1
 182 488 l 1
534 325 m 0
 534 277 534 177 585 120 c 0
 606 100 636 79 692 79 c 0
 747 79 777 100 797 117 c 0
 850 175 850 277 850 325 c 0
 850 373 851 483 794 541 c 0
 774 555 746 575 692 575 c 0
 633 575 600 550 579 528 c 1
 531 468 534 369 534 325 c 0
623 334 m 0
 623 390 623 437 628 476 c 0
 634 538 677 545 692 545 c 0
 716 545 737 531 750 508 c 0
 762 484 760 400 760 334 c 0
 760 296 760 223 757 186 c 0
 749 116 708 109 692 109 c 0
 670 109 634 124 628 175 c 0
 622 213 623 294 623 334 c 0
EndSplineSet
EndChar
StartChar: uF2917
Encoding: 993559 993559 190
Width: 1000
Flags: MW
LayerCount: 2
Fore
SplineSet
50 300 m 0
 50 584 236 760 501 760 c 0
 758 760 949 589 950 300 c 0
 950 21 769 -160 499 -160 c 0
 230 -160 50 24 50 300 c 0
181 488 m 1
 196 488 l 1
 204 488 240 490 279 503 c 1
 279 115 l 1
 279 122 165 124 182 124 c 1
 188 124 l 1
 188 85 l 1
 216 87 289 88 321 88 c 0
 353 88 424 87 452 85 c 1
 452 124 l 1
 458 124 l 1
 475 124 361 122 361 115 c 1
 361 550 l 2
 361 566 361 575 344 575 c 1
 334 575 335 575 328 569 c 0
 276 525 207 527 196 527 c 1
 181 527 l 1
 181 488 l 1
540 205 m 0
 540 141 590 79 670 79 c 0
 778 79 840 145 840 236 c 0
 840 321 793 390 692 390 c 0
 677 390 641 391 609 367 c 1
 609 454 l 1
 628 450 631 450 653 450 c 0
 749 450 811 539 811 560 c 0
 811 565 810 575 801 575 c 0
 799 575 799 575 790 572 c 0
 746 554 714 551 692 551 c 0
 637 551 603 567 591 572 c 0
 585 574 582 575 580 575 c 0
 571 575 572 567 572 555 c 2
 572 335 l 2
 572 321 572 311 587 311 c 0
 596 311 598 315 602 321 c 0
 632 361 670 360 688 360 c 0
 706 360 719 357 727 342 c 0
 741 318 741 275 741 238 c 0
 741 201 742 158 720 132 c 1
 710 120 694 114 668 114 c 0
 662 114 623 109 591 152 c 1
 594 152 598 152 598 153 c 0
 616 159 631 176 631 205 c 0
 631 251 599 260 585 260 c 0
 575 260 540 254 540 205 c 0
EndSplineSet
EndChar
StartChar: uF291D
Encoding: 993565 993565 196
Width: 1000
Flags: MW
LayerCount: 2
Fore
SplineSet
50 300 m 0
 50 584 236 760 501 760 c 0
 758 760 949 589 950 300 c 0
 950 21 769 -160 499 -160 c 0
 230 -160 50 24 50 300 c 0
160 87 m 1
 441 87 l 1
 460 262 l 1
 426 262 l 1
 424 249 419 197 410 193 c 1
 401 189 353 190 345 190 c 2
 258 190 l 1
 297 226 320 247 356 278 c 1
 419 331 460 364 460 434 c 0
 460 520 392 576 300 576 c 0
 222 576 160 535 160 467 c 0
 160 423 188 409 208 409 c 0
 231 409 258 426 258 466 c 0
 258 501 240 512 230 520 c 0
 229 522 225 522 223 524 c 1
 243 534 265 538 283 538 c 0
 336 538 365 488 365 434 c 0
 365 384 344 336 297 281 c 2
 168 128 l 2
 160 118 160 117 160 100 c 2
 160 101 160 86 160 87 c 1
550 490 m 1
 567 490 l 1
 575 490 609 491 648 504 c 1
 648 116 l 1
 648 123 535 125 552 125 c 1
 558 125 l 1
 558 87 l 1
 586 89 658 88 690 88 c 0
 722 88 794 89 822 87 c 1
 822 125 l 1
 828 125 l 1
 845 125 731 123 731 116 c 1
 731 550 l 2
 731 566 732 576 715 576 c 1
 705 576 706 576 699 570 c 0
 647 526 578 528 567 528 c 1
 550 528 l 1
 550 490 l 1
EndSplineSet
EndChar
StartChar: uF292D
Encoding: 993581 993581 212
Width: 1000
Flags: MW
LayerCount: 2
Fore
SplineSet
50 300 m 0
 50 584 236 760 501 760 c 0
 758 760 949 589 950 300 c 0
 950 21 769 -160 499 -160 c 0
 230 -160 50 24 50 300 c 0
160 193 m 0
 160 125 223 82 307 82 c 0
 430 82 472 159 472 225 c 0
 472 261 460 327 362 352 c 1
 403 367 451 408 451 473 c 0
 451 530 405 577 308 577 c 0
 230 577 181 529 181 468 c 0
 181 434 202 412 228 412 c 0
 258 412 276 438 276 468 c 0
 276 514 240 523 240 524 c 1
 262 541 287 546 305 546 c 0
 365 546 357 490 357 476 c 0
 357 471 358 429 340 399 c 1
 333 385 320 368 294 366 c 0
 262 364 263 364 261 363 c 0
 254 362 254 352 254 349 c 0
 254 333 260 335 272 335 c 2
 300 335 l 2
 373 335 366 255 366 226 c 0
 366 208 380 117 303 117 c 0
 290 117 263 120 229 136 c 1
 250 146 264 163 264 195 c 0
 264 231 242 256 212 256 c 0
 182 256 160 232 160 193 c 0
546 396 m 1
 579 396 l 1
 587 464 597 464 597 464 c 0
 606 468 656 468 667 468 c 2
 766 468 l 1
 768 471 738 432 742 438 c 1
 680 358 629 257 629 137 c 0
 629 74 674 82 670 82 c 0
 674 82 713 78 713 138 c 2
 713 172 l 2
 713 207 715 242 719 276 c 0
 726 334 741 373 760 400 c 2
 861 533 l 2
 868 541 868 543 868 571 c 1
 746 571 l 2
 736 571 622 576 614 579 c 1
 602 582 604 587 602 595 c 1
 568 595 l 1
 546 396 l 1
EndSplineSet
EndChar
StartChar: uF2939
Encoding: 993593 993593 224
Width: 1000
Flags: MW
LayerCount: 2
Fore
SplineSet
50 300 m 0
 50 584 236 760 501 760 c 0
 758 760 949 589 950 300 c 0
 950 21 769 -160 499 -160 c 0
 230 -160 50 24 50 300 c 0
144 201 m 1
 329 201 l 1
 329 115 l 1
 329 122 238 124 252 124 c 1
 256 124 l 1
 256 86 l 1
 280 88 345 88 372 88 c 0
 396 88 458 88 478 86 c 1
 478 124 l 1
 482 124 l 1
 496 124 417 122 417 115 c 1
 417 201 l 1
 477 201 l 1
 477 239 l 1
 417 239 l 1
 417 549 l 2
 417 570 416 574 396 574 c 0
 380 574 380 573 372 561 c 2
 144 239 l 1
 144 201 l 1
181 239 m 1
 337 459 l 1
 337 239 l 1
 181 239 l 1
530 416 m 0
 530 310 593 258 672 258 c 0
 688 258 721 257 748 311 c 1
 748 296 l 2
 748 245 745 203 737 179 c 0
 730 154 703 115 653 115 c 0
 641 115 623 116 603 128 c 1
 605 130 633 139 633 178 c 0
 633 205 620 227 592 227 c 0
 562 227 548 204 548 176 c 0
 548 125 579 79 654 79 c 0
 736 79 842 132 842 332 c 0
 842 344 863 575 687 575 c 0
 642 575 605 562 578 539 c 1
 548 513 530 467 530 416 c 0
623 413 m 0
 623 453 624 490 634 514 c 0
 642 530 654 543 688 543 c 0
 727 543 741 500 740 498 c 0
 748 473 747 432 747 408 c 0
 747 365 732 287 680 287 c 0
 648 287 636 302 632 315 c 0
 623 338 623 372 623 413 c 0
EndSplineSet
EndChar
StartChar: uF293B
Encoding: 993595 993595 226
Width: 1000
Flags: MW
LayerCount: 2
Fore
SplineSet
50 300 m 0
 50 584 236 760 501 760 c 0
 758 760 949 589 950 300 c 0
 950 21 769 -160 499 -160 c 0
 230 -160 50 24 50 300 c 0
160 205 m 0
 160 141 212 79 292 79 c 0
 400 79 460 145 460 236 c 0
 460 321 412 390 311 390 c 0
 296 390 262 391 230 367 c 1
 230 454 l 1
 249 450 252 450 274 450 c 0
 370 450 432 539 432 560 c 0
 432 565 431 575 422 575 c 0
 420 575 420 575 411 572 c 0
 367 554 334 551 312 551 c 0
 257 551 222 567 210 572 c 0
 204 574 204 575 202 575 c 0
 193 575 192 567 192 555 c 2
 192 335 l 2
 192 321 192 311 207 311 c 0
 216 311 219 315 223 321 c 0
 253 361 290 360 308 360 c 0
 326 360 340 357 348 342 c 0
 362 318 362 275 362 238 c 0
 362 201 362 158 340 132 c 1
 330 120 314 114 288 114 c 0
 282 114 242 109 210 152 c 1
 213 152 219 152 219 153 c 0
 237 159 250 176 250 205 c 0
 250 251 220 260 206 260 c 0
 196 260 160 254 160 205 c 0
550 488 m 1
 567 488 l 1
 575 488 609 490 648 503 c 1
 648 115 l 1
 648 122 535 124 552 124 c 1
 558 124 l 1
 558 85 l 1
 586 87 658 88 690 88 c 0
 722 88 794 87 822 85 c 1
 822 124 l 1
 828 124 l 1
 845 124 731 122 731 115 c 1
 731 550 l 2
 731 566 732 575 715 575 c 1
 705 575 706 575 699 569 c 0
 647 525 578 527 567 527 c 1
 550 527 l 1
 550 488 l 1
EndSplineSet
EndChar
StartChar: uF2940
Encoding: 993600 993600 231
Width: 1000
Flags: MW
LayerCount: 2
Fore
SplineSet
50 300 m 0
 50 584 236 760 501 760 c 0
 758 760 949 589 950 300 c 0
 950 21 769 -160 499 -160 c 0
 230 -160 50 24 50 300 c 0
164 205 m 0
 164 141 215 79 295 79 c 0
 403 79 464 145 464 236 c 0
 464 321 416 390 315 390 c 0
 300 390 264 391 232 367 c 1
 232 454 l 1
 251 450 254 450 276 450 c 0
 372 450 434 539 434 560 c 0
 434 565 434 575 425 575 c 0
 423 575 424 575 415 572 c 0
 371 554 338 551 316 551 c 0
 261 551 225 567 213 572 c 0
 207 574 207 575 205 575 c 0
 196 575 194 567 194 555 c 2
 194 335 l 2
 194 321 196 311 211 311 c 0
 220 311 222 315 226 321 c 0
 256 361 294 360 312 360 c 0
 330 360 343 357 351 342 c 0
 365 318 365 275 365 238 c 0
 365 201 365 158 343 132 c 1
 333 120 316 114 290 114 c 0
 284 114 245 109 213 152 c 1
 216 152 222 152 222 153 c 0
 240 159 253 176 253 205 c 0
 253 251 223 260 209 260 c 0
 199 260 164 254 164 205 c 0
532 323 m 0
 532 269 536 208 565 153 c 1
 596 97 645 79 692 79 c 0
 785 79 844 139 844 239 c 0
 844 347 780 397 702 397 c 0
 697 397 657 407 626 345 c 1
 626 358 l 2
 626 446 641 473 641 479 c 0
 653 511 686 542 730 542 c 0
 740 542 759 541 774 526 c 1
 748 521 741 495 741 476 c 0
 741 449 754 427 782 427 c 0
 812 427 826 450 826 478 c 0
 826 524 800 575 729 575 c 0
 643 575 532 518 532 323 c 0
627 240 m 0
 627 343 666 368 694 368 c 0
 727 368 739 352 743 336 c 0
 751 314 751 282 751 242 c 0
 751 205 751 174 744 152 c 0
 740 132 728 114 690 114 c 0
 659 114 643 140 638 152 c 0
 629 173 627 226 627 240 c 0
EndSplineSet
EndChar
StartChar: uF2943
Encoding: 993603 993603 234
Width: 1000
Flags: MW
LayerCount: 2
Fore
SplineSet
50 300 m 0
 50 584 236 760 501 760 c 0
 758 760 949 589 950 300 c 0
 950 21 769 -160 499 -160 c 0
 230 -160 50 24 50 300 c 0
164 205 m 0
 164 141 215 79 295 79 c 0
 403 79 464 145 464 236 c 0
 464 321 416 390 315 390 c 0
 300 390 264 391 232 367 c 1
 232 454 l 1
 251 450 254 450 276 450 c 0
 372 450 434 539 434 560 c 0
 434 565 434 575 425 575 c 0
 423 575 424 575 415 572 c 0
 371 554 338 551 316 551 c 0
 261 551 225 567 213 572 c 0
 207 574 207 575 205 575 c 0
 196 575 194 567 194 555 c 2
 194 335 l 2
 194 321 196 311 211 311 c 0
 220 311 222 315 226 321 c 0
 256 361 294 360 312 360 c 0
 330 360 343 357 351 342 c 0
 365 318 365 275 365 238 c 0
 365 201 365 158 343 132 c 1
 333 120 316 114 290 114 c 0
 284 114 245 109 213 152 c 1
 216 152 222 152 222 153 c 0
 240 159 253 176 253 205 c 0
 253 251 223 260 209 260 c 0
 199 260 164 254 164 205 c 0
532 415 m 0
 532 309 597 258 676 258 c 0
 692 258 724 256 751 310 c 1
 751 296 l 2
 751 245 747 203 739 179 c 0
 732 154 706 114 656 114 c 0
 644 114 626 116 606 128 c 1
 608 130 636 139 636 178 c 0
 636 205 622 227 594 227 c 0
 564 227 551 204 551 176 c 0
 551 125 583 79 658 79 c 0
 740 79 844 132 844 332 c 0
 844 344 866 575 690 575 c 0
 645 575 607 562 580 539 c 1
 550 513 532 466 532 415 c 0
626 414 m 0
 626 454 626 490 636 514 c 0
 644 530 657 542 691 542 c 0
 730 542 744 500 743 498 c 0
 751 473 750 432 750 408 c 0
 750 365 735 287 683 287 c 0
 651 287 640 303 636 316 c 0
 627 339 626 373 626 414 c 0
EndSplineSet
EndChar
StartChar: uF2944
Encoding: 993604 993604 235
Width: 1000
Flags: MW
LayerCount: 2
Fore
SplineSet
50 300 m 0
 50 584 236 760 501 760 c 0
 758 760 949 589 950 300 c 0
 950 21 769 -160 499 -160 c 0
 230 -160 50 24 50 300 c 0
157 323 m 0
 157 269 160 208 189 153 c 1
 220 97 268 79 315 79 c 0
 408 79 469 139 469 239 c 0
 469 347 404 397 326 397 c 0
 321 397 281 407 250 345 c 1
 250 358 l 2
 250 446 265 473 265 479 c 0
 277 511 311 542 355 542 c 0
 365 542 385 541 400 526 c 1
 374 521 365 495 365 476 c 0
 365 449 380 427 408 427 c 0
 438 427 450 450 450 478 c 0
 450 524 424 575 353 575 c 0
 267 575 157 518 157 323 c 0
252 240 m 0
 252 343 290 368 318 368 c 0
 351 368 363 352 367 336 c 0
 375 314 375 282 375 242 c 0
 375 205 375 174 368 152 c 0
 364 132 352 114 314 114 c 0
 283 114 267 140 262 152 c 0
 253 173 252 226 252 240 c 0
530 325 m 0
 530 277 531 177 582 120 c 0
 603 100 632 79 688 79 c 0
 743 79 773 100 793 117 c 0
 846 175 846 277 846 325 c 0
 846 373 847 483 790 541 c 0
 770 555 742 575 688 575 c 0
 629 575 597 550 576 528 c 1
 528 468 530 369 530 325 c 0
620 334 m 0
 620 390 619 437 624 476 c 0
 630 538 673 545 688 545 c 0
 712 545 733 531 746 508 c 0
 758 484 757 400 757 334 c 0
 757 296 757 223 754 186 c 0
 746 116 704 109 688 109 c 0
 666 109 631 124 625 175 c 0
 619 213 620 294 620 334 c 0
EndSplineSet
EndChar
StartChar: uF2946
Encoding: 993606 993606 237
Width: 1000
Flags: MW
LayerCount: 2
Fore
SplineSet
50 300 m 0
 50 584 236 760 501 760 c 0
 758 760 949 589 950 300 c 0
 950 21 769 -160 499 -160 c 0
 230 -160 50 24 50 300 c 0
156 323 m 0
 156 269 159 208 188 153 c 1
 219 97 267 79 314 79 c 0
 407 79 468 139 468 239 c 0
 468 347 402 397 324 397 c 0
 319 397 280 407 249 345 c 1
 249 358 l 2
 249 446 264 473 264 479 c 0
 276 511 310 542 354 542 c 0
 364 542 383 541 398 526 c 1
 372 521 364 495 364 476 c 0
 364 449 379 427 407 427 c 0
 437 427 449 450 449 478 c 0
 449 524 423 575 352 575 c 0
 266 575 156 518 156 323 c 0
252 240 m 0
 252 343 289 368 317 368 c 0
 350 368 362 352 366 336 c 0
 374 314 374 282 374 242 c 0
 374 205 374 174 367 152 c 0
 363 132 351 114 313 114 c 0
 282 114 265 140 260 152 c 0
 251 173 252 226 252 240 c 0
536 85 m 1
 816 85 l 1
 836 261 l 1
 803 261 l 1
 801 248 795 197 786 193 c 1
 777 189 728 188 720 188 c 2
 634 188 l 1
 673 224 696 245 732 276 c 1
 795 329 836 364 836 434 c 0
 836 520 769 575 677 575 c 0
 599 575 536 534 536 466 c 0
 536 422 565 407 585 407 c 0
 608 407 634 424 634 464 c 0
 634 499 618 510 608 518 c 0
 607 520 602 520 600 522 c 1
 620 532 640 536 658 536 c 0
 711 536 741 487 741 433 c 0
 741 383 720 334 673 279 c 2
 545 128 l 2
 537 118 536 117 536 100 c 2
 536 101 536 84 536 85 c 1
EndSplineSet
EndChar
StartChar: uF294E
Encoding: 993614 993614 245
Width: 1000
Flags: MW
LayerCount: 2
Fore
SplineSet
50 300 m 0
 50 584 236 760 501 760 c 0
 758 760 949 589 950 300 c 0
 950 21 769 -160 499 -160 c 0
 230 -160 50 24 50 300 c 0
169 396 m 1
 203 396 l 1
 211 464 220 464 220 464 c 0
 229 468 279 468 290 468 c 2
 390 468 l 1
 392 471 362 432 366 438 c 1
 304 358 252 257 252 137 c 0
 252 74 298 82 294 82 c 0
 298 82 337 78 337 138 c 2
 337 172 l 2
 337 207 340 242 344 276 c 0
 351 334 365 373 384 400 c 2
 485 533 l 2
 492 541 492 543 492 571 c 1
 370 571 l 2
 360 571 246 576 238 579 c 1
 226 582 226 587 224 595 c 1
 192 595 l 1
 169 396 l 1
531 327 m 0
 531 279 531 179 582 122 c 0
 603 102 634 82 690 82 c 0
 745 82 775 103 795 120 c 0
 848 178 848 279 848 327 c 0
 848 375 849 485 792 543 c 0
 772 557 744 577 690 577 c 0
 631 577 599 554 578 532 c 1
 530 472 531 371 531 327 c 0
620 336 m 0
 620 392 621 440 626 479 c 0
 632 541 675 548 690 548 c 0
 714 548 734 534 747 511 c 0
 759 487 759 402 759 336 c 0
 759 298 758 225 755 188 c 0
 747 118 706 112 690 112 c 0
 668 112 632 127 626 178 c 0
 620 216 620 296 620 336 c 0
EndSplineSet
EndChar
StartChar: uF2977
Encoding: 993655 993655 286
Width: 1000
Flags: MW
LayerCount: 2
Fore
SplineSet
50 300 m 0
 50 584 236 760 501 760 c 0
 758 760 949 589 950 300 c 0
 950 21 769 -160 499 -160 c 0
 230 -160 50 24 50 300 c 0
288 37 m 1
 317 38 352 39 380 39 c 0
 410 39 446 38 472 37 c 1
 472 75 l 1
 479 75 419 75 421 74 c 1
 423 73 422 70 422 66 c 1
 422 166 l 1
 450 187 445 185 464 197 c 1
 455 209 546 94 539 105 c 1
 546 96 560 81 560 80 c 0
 560 75 547 75 538 75 c 1
 538 37 l 1
 560 39 630 39 631 39 c 0
 659 39 685 39 712 37 c 1
 712 75 l 1
 713 75 700 75 701 75 c 2
 666 75 666 77 659 84 c 2
 524 248 l 1
 525 246 l 1
 525 245 635 329 633 327 c 1
 634 327 636 333 694 333 c 1
 694 372 l 1
 674 370 654 370 634 370 c 0
 616 370 566 371 547 372 c 1
 547 333 l 1
 565 333 564 333 572 328 c 1
 572 332 575 334 577 335 c 1
 426 218 l 1
 426 557 l 1
 288 552 l 1
 288 514 l 1
 332 514 338 515 338 488 c 2
 338 66 l 1
 338 70 338 73 340 74 c 1
 342 75 282 75 288 75 c 1
 288 37 l 1
EndSplineSet
EndChar
StartChar: uF2978
Encoding: 993656 993656 287
Width: 1000
Flags: MW
LayerCount: 2
Fore
SplineSet
50 300 m 0
 50 584 236 760 501 760 c 0
 758 760 949 589 950 300 c 0
 950 21 769 -160 499 -160 c 0
 230 -160 50 24 50 300 c 0
406 37 m 1
 430 38 465 39 500 39 c 0
 535 39 568 38 594 37 c 1
 594 75 l 1
 600 75 540 75 542 74 c 1
 544 73 544 70 544 66 c 1
 544 557 l 1
 406 552 l 1
 406 514 l 1
 450 514 456 515 456 488 c 2
 456 66 l 1
 456 70 456 73 458 74 c 1
 460 75 399 75 406 75 c 1
 406 37 l 1
EndSplineSet
EndChar
StartChar: uF2980
Encoding: 993664 993664 295
Width: 1000
Flags: MW
LayerCount: 2
Fore
SplineSet
50 300 m 0
 50 584 236 760 501 760 c 0
 758 760 949 589 950 300 c 0
 950 21 769 -160 499 -160 c 0
 230 -160 50 24 50 300 c 0
380 376 m 1
 441 376 l 1
 441 172 l 2
 441 95 505 76 565 76 c 0
 623 76 660 116 660 173 c 2
 660 211 l 1
 620 211 l 1
 620 174 l 2
 620 124 597 108 578 108 c 0
 536 108 536 152 536 170 c 2
 536 376 l 1
 646 376 l 1
 646 415 l 1
 536 415 l 1
 536 560 l 1
 495 560 l 1
 494 482 454 408 380 406 c 1
 380 376 l 1
EndSplineSet
EndChar
StartChar: uF2983
Encoding: 993667 993667 298
Width: 1000
Flags: MW
LayerCount: 2
Fore
SplineSet
50 300 m 0
 50 584 236 760 501 760 c 0
 758 760 949 589 950 300 c 0
 950 21 769 -160 499 -160 c 0
 230 -160 50 24 50 300 c 0
199 403 m 1
 189 403 242 404 240 410 c 1
 359 125 l 2
 364 111 369 104 390 104 c 0
 411 104 414 111 419 125 c 2
 500 314 l 1
 581 126 l 2
 587 112 589 104 610 104 c 0
 631 104 635 112 641 126 c 2
 754 395 l 2
 756 398 753 403 801 403 c 1
 801 441 l 1
 784 439 761 439 743 439 c 0
 723 439 687 440 671 441 c 1
 671 403 l 1
 673 403 714 405 714 401 c 0
 714 399 711 394 711 394 c 2
 629 202 l 1
 541 412 l 1
 542 410 542 409 542 408 c 1
 542 403 588 403 584 403 c 1
 584 441 l 1
 560 440 520 439 497 439 c 0
 463 439 429 440 419 441 c 1
 419 403 l 1
 412 403 465 404 463 406 c 1
 482 360 479 364 478 366 c 1
 478 362 476 356 475 354 c 1
 416 219 l 1
 336 412 l 1
 337 410 338 409 338 408 c 1
 338 403 383 403 379 403 c 1
 379 441 l 1
 346 439 317 439 283 439 c 0
 255 439 225 440 199 441 c 1
 199 403 l 1
EndSplineSet
EndChar
StartChar: uF2986
Encoding: 993670 993670 301
Width: 1000
Flags: MW
LayerCount: 2
Fore
SplineSet
50 300 m 0
 50 584 236 760 501 760 c 0
 758 760 949 589 950 300 c 0
 950 21 769 -160 499 -160 c 0
 230 -160 50 24 50 300 c 0
334 124 m 0
 334 106 345 106 359 106 c 2
 653 106 l 1
 666 260 l 1
 627 260 l 1
 620 187 609 139 507 139 c 2
 449 139 l 1
 657 406 l 2
 663 414 664 416 664 424 c 0
 664 442 653 441 639 441 c 2
 356 441 l 1
 346 307 l 1
 385 307 l 1
 389 384 415 412 491 412 c 2
 550 412 l 1
 341 140 l 2
 334 132 334 132 334 124 c 0
EndSplineSet
EndChar
StartChar: uF2992
Encoding: 993682 993682 313
Width: 1000
Flags: MW
LayerCount: 2
Fore
SplineSet
50 300 m 0
 50 584 236 760 501 760 c 0
 758 760 949 589 950 300 c 0
 950 21 769 -160 499 -160 c 0
 230 -160 50 24 50 300 c 0
269 36 m 1
 708 36 l 1
 731 244 l 1
 692 244 l 1
 686 198 672 74 538 74 c 2
 458 74 l 1
 467 74 467 72 467 66 c 1
 467 522 l 1
 467 518 467 516 464 514 c 1
 462 513 583 513 575 513 c 1
 569 513 l 1
 569 550 l 1
 535 548 450 549 412 549 c 0
 378 549 297 548 269 550 c 1
 269 513 l 1
 264 513 l 1
 258 513 354 513 352 514 c 1
 350 515 350 518 350 522 c 1
 350 65 l 1
 350 69 350 71 352 72 c 1
 354 74 257 74 264 74 c 1
 269 74 l 1
 269 36 l 1
EndSplineSet
EndChar
StartChar: uF299C
Encoding: 993692 993692 323
Width: 1000
Flags: MW
LayerCount: 2
Fore
SplineSet
50 300 m 0
 50 584 236 760 501 760 c 0
 758 760 949 589 950 300 c 0
 950 21 769 -160 499 -160 c 0
 230 -160 50 24 50 300 c 0
184 512 m 1
 172 512 254 512 252 519 c 1
 468 52 l 2
 474 38 476 32 500 32 c 0
 512 32 524 31 533 51 c 2
 742 505 l 2
 744 511 743 513 802 512 c 1
 801 512 817 512 816 512 c 1
 816 550 l 1
 787 549 748 548 728 548 c 0
 696 548 658 548 627 550 c 1
 627 512 l 1
 626 512 695 517 695 510 c 0
 695 508 694 505 693 503 c 2
 537 167 l 1
 374 521 l 1
 375 519 375 518 375 518 c 1
 375 512 452 512 447 512 c 1
 447 550 l 1
 419 548 341 548 308 548 c 0
 281 548 210 548 184 550 c 1
 184 512 l 1
EndSplineSet
EndChar
StartChar: uF2A0D
Encoding: 993805 993805 330
Width: 1000
Flags: MW
LayerCount: 2
Fore
SplineSet
112 697 m 1
 112 -97 l 1
 887 -97 l 1
 887 697 l 1
 112 697 l 1
50 760 m 1
 950 760 l 1
 950 -160 l 1
 50 -160 l 1
 50 760 l 1
529 325 m 0
 529 369 528 468 576 528 c 1
 597 550 629 575 688 575 c 0
 742 575 770 555 790 541 c 0
 847 483 846 373 846 325 c 0
 846 277 846 175 793 117 c 0
 773 100 743 79 688 79 c 0
 632 79 601 100 580 120 c 0
 529 177 529 277 529 325 c 0
618 334 m 0
 618 294 618 213 624 175 c 0
 630 124 666 109 688 109 c 0
 704 109 745 116 753 186 c 0
 756 223 757 296 757 334 c 0
 757 400 757 484 745 508 c 0
 732 531 712 545 688 545 c 0
 673 545 629 538 623 476 c 0
 618 437 618 390 618 334 c 0
154 325 m 0
 154 369 153 468 201 528 c 1
 222 550 253 575 312 575 c 0
 366 575 395 555 415 541 c 0
 472 483 471 373 471 325 c 0
 471 277 471 175 418 117 c 0
 398 100 367 79 312 79 c 0
 256 79 227 100 206 120 c 0
 155 177 154 277 154 325 c 0
244 334 m 0
 244 294 243 213 249 175 c 0
 255 124 290 109 312 109 c 0
 328 109 370 116 378 186 c 0
 381 223 382 296 382 334 c 0
 382 400 382 484 370 508 c 0
 357 531 336 545 312 545 c 0
 297 545 256 538 250 476 c 0
 245 437 244 390 244 334 c 0
EndSplineSet
EndChar
StartChar: uF2A1B
Encoding: 993819 993819 344
Width: 1000
Flags: MW
LayerCount: 2
Fore
SplineSet
112 697 m 1
 112 -97 l 1
 887 -97 l 1
 887 697 l 1
 112 697 l 1
50 760 m 1
 950 760 l 1
 950 -160 l 1
 50 -160 l 1
 50 760 l 1
545 396 m 1
 568 595 l 1
 600 595 l 1
 602 587 602 582 614 579 c 1
 622 576 736 571 746 571 c 2
 868 571 l 1
 868 543 868 541 861 533 c 2
 760 400 l 2
 741 373 727 334 720 276 c 0
 716 242 713 207 713 172 c 2
 713 138 l 2
 713 78 674 82 670 82 c 0
 674 82 628 74 628 137 c 0
 628 257 680 358 742 438 c 1
 738 432 768 471 766 468 c 1
 666 468 l 2
 655 468 605 468 596 464 c 0
 596 464 587 464 579 396 c 1
 545 396 l 1
157 327 m 0
 157 371 156 472 204 532 c 1
 225 554 257 577 316 577 c 0
 370 577 398 557 418 543 c 0
 475 485 474 375 474 327 c 0
 474 279 474 178 421 120 c 0
 401 103 371 82 316 82 c 0
 260 82 229 102 208 122 c 0
 157 179 157 279 157 327 c 0
246 336 m 0
 246 296 246 216 252 178 c 0
 258 127 294 112 316 112 c 0
 332 112 373 118 381 188 c 0
 384 225 385 298 385 336 c 0
 385 402 385 487 373 511 c 0
 360 534 340 548 316 548 c 0
 301 548 258 541 252 479 c 0
 247 440 246 392 246 336 c 0
EndSplineSet
EndChar
StartChar: uF2A1C
Encoding: 993820 993820 345
Width: 1000
Flags: MW
LayerCount: 2
Fore
SplineSet
112 697 m 1
 112 -97 l 1
 887 -97 l 1
 887 697 l 1
 112 697 l 1
50 760 m 1
 950 760 l 1
 950 -160 l 1
 50 -160 l 1
 50 760 l 1
294 208 m 0
 294 260 317 301 388 331 c 1
 366 340 355 350 345 364 c 0
 327 389 318 417 318 441 c 0
 318 513 368 575 502 575 c 0
 609 575 682 544 682 466 c 0
 682 424 664 391 607 364 c 1
 617 359 646 346 666 325 c 0
 686 305 706 278 706 230 c 0
 706 148 652 79 498 79 c 0
 376 79 294 114 294 208 c 0
366 208 m 0
 366 151 411 114 502 114 c 0
 545 114 634 120 634 185 c 0
 634 219 605 232 562 252 c 1
 497 281 476 291 435 309 c 1
 418 299 366 270 366 208 c 0
384 490 m 0
 384 461 416 452 422 449 c 2
 562 386 l 1
 596 407 616 428 616 464 c 0
 616 514 576 542 498 542 c 0
 470 542 384 544 384 490 c 0
EndSplineSet
EndChar
StartChar: uF2A1F
Encoding: 993823 993823 348
Width: 1000
Flags: MW
LayerCount: 2
Fore
SplineSet
112 697 m 1
 112 -97 l 1
 887 -97 l 1
 887 697 l 1
 112 697 l 1
50 760 m 1
 950 760 l 1
 950 -160 l 1
 50 -160 l 1
 50 760 l 1
531 415 m 0
 531 466 549 513 579 539 c 1
 606 562 644 575 689 575 c 0
 865 575 843 344 843 332 c 0
 843 132 738 79 656 79 c 0
 581 79 550 125 550 176 c 0
 550 204 563 227 593 227 c 0
 621 227 635 205 635 178 c 0
 635 139 606 130 604 128 c 1
 624 116 642 114 654 114 c 0
 704 114 731 154 738 179 c 0
 746 203 750 245 750 296 c 2
 750 310 l 1
 723 256 691 258 675 258 c 0
 596 258 531 309 531 415 c 0
626 414 m 0
 626 373 624 339 633 316 c 0
 637 303 650 287 682 287 c 0
 734 287 749 365 749 408 c 0
 749 432 750 473 742 498 c 0
 743 500 728 542 689 542 c 0
 655 542 643 530 635 514 c 0
 625 490 626 454 626 414 c 0
154 325 m 0
 154 369 153 468 201 528 c 1
 222 550 253 575 312 575 c 0
 366 575 394 555 414 541 c 0
 471 483 470 373 470 325 c 0
 470 277 470 175 417 117 c 0
 397 100 367 79 312 79 c 0
 256 79 227 100 206 120 c 0
 155 177 154 277 154 325 c 0
244 334 m 0
 244 294 243 213 249 175 c 0
 255 124 290 109 312 109 c 0
 328 109 370 116 378 186 c 0
 381 223 381 296 381 334 c 0
 381 400 382 484 370 508 c 0
 357 531 336 545 312 545 c 0
 297 545 254 538 248 476 c 0
 243 437 244 390 244 334 c 0
EndSplineSet
EndChar
StartChar: uF2A22
Encoding: 993826 993826 351
Width: 1000
Flags: MW
LayerCount: 2
Fore
SplineSet
112 697 m 1
 112 -97 l 1
 887 -97 l 1
 887 697 l 1
 112 697 l 1
50 760 m 1
 950 760 l 1
 950 -160 l 1
 50 -160 l 1
 50 760 l 1
540 87 m 1
 540 86 540 101 540 100 c 2
 540 117 541 118 549 128 c 2
 676 281 l 2
 723 336 744 384 744 434 c 0
 744 488 715 538 662 538 c 0
 644 538 623 534 603 524 c 1
 605 522 610 522 611 520 c 0
 621 512 637 501 637 466 c 0
 637 426 611 409 588 409 c 0
 568 409 540 423 540 467 c 0
 540 535 603 576 681 576 c 0
 773 576 840 520 840 434 c 0
 840 364 798 331 735 278 c 1
 699 247 677 226 638 190 c 1
 724 190 l 2
 732 190 781 189 790 193 c 1
 799 197 805 249 807 262 c 1
 840 262 l 1
 820 87 l 1
 540 87 l 1
181 490 m 1
 181 528 l 1
 196 528 l 1
 207 528 276 526 328 570 c 0
 335 576 334 576 344 576 c 1
 361 576 361 566 361 550 c 2
 361 116 l 1
 361 123 475 125 458 125 c 1
 452 125 l 1
 452 87 l 1
 424 89 353 88 321 88 c 0
 289 88 216 89 188 87 c 1
 188 125 l 1
 182 125 l 1
 165 125 279 123 279 116 c 1
 279 504 l 1
 240 491 204 490 196 490 c 1
 181 490 l 1
EndSplineSet
EndChar
StartChar: uF2A27
Encoding: 993831 993831 356
Width: 1000
Flags: MW
LayerCount: 2
Fore
SplineSet
112 697 m 1
 112 -97 l 1
 887 -97 l 1
 887 697 l 1
 112 697 l 1
50 760 m 1
 950 760 l 1
 950 -160 l 1
 50 -160 l 1
 50 760 l 1
550 396 m 1
 571 595 l 1
 605 595 l 1
 607 587 606 582 618 579 c 1
 626 576 740 571 750 571 c 2
 872 571 l 1
 872 543 872 541 865 533 c 2
 764 400 l 2
 745 373 730 334 723 276 c 0
 719 242 716 207 716 172 c 2
 716 138 l 2
 716 78 678 82 674 82 c 0
 678 82 632 74 632 137 c 0
 632 257 683 358 745 438 c 1
 741 432 771 471 769 468 c 1
 671 468 l 2
 660 468 609 468 600 464 c 0
 600 464 590 464 582 396 c 1
 550 396 l 1
185 491 m 1
 185 529 l 1
 201 529 l 1
 212 529 281 528 333 572 c 0
 340 578 339 577 349 577 c 1
 366 577 366 568 366 552 c 2
 366 117 l 1
 366 124 480 126 463 126 c 1
 457 126 l 1
 457 88 l 1
 429 90 356 90 324 90 c 0
 292 90 222 90 194 88 c 1
 194 126 l 1
 188 126 l 1
 171 126 283 124 283 117 c 1
 283 505 l 1
 244 492 209 491 201 491 c 1
 185 491 l 1
EndSplineSet
EndChar
StartChar: uF2A2C
Encoding: 993836 993836 361
Width: 1000
Flags: MW
LayerCount: 2
Fore
SplineSet
112 697 m 1
 112 -97 l 1
 887 -97 l 1
 887 697 l 1
 112 697 l 1
50 760 m 1
 950 760 l 1
 950 -160 l 1
 50 -160 l 1
 50 760 l 1
538 87 m 1
 538 86 538 101 538 100 c 2
 538 117 538 118 546 128 c 2
 674 281 l 2
 721 336 743 384 743 434 c 0
 743 488 712 538 659 538 c 0
 641 538 621 534 601 524 c 1
 603 522 607 522 608 520 c 0
 618 512 635 501 635 466 c 0
 635 426 609 409 586 409 c 0
 566 409 538 423 538 467 c 0
 538 535 600 576 678 576 c 0
 770 576 838 520 838 434 c 0
 838 364 795 331 732 278 c 1
 696 247 675 226 636 190 c 1
 722 190 l 2
 730 190 778 189 787 193 c 1
 796 197 802 249 804 262 c 1
 838 262 l 1
 817 87 l 1
 538 87 l 1
162 87 m 1
 162 86 162 101 162 100 c 2
 162 117 163 118 171 128 c 2
 299 281 l 2
 346 336 367 384 367 434 c 0
 367 488 337 538 284 538 c 0
 266 538 246 534 226 524 c 1
 228 522 233 522 234 520 c 0
 244 512 260 501 260 466 c 0
 260 426 234 409 211 409 c 0
 191 409 162 423 162 467 c 0
 162 535 225 576 303 576 c 0
 395 576 462 520 462 434 c 0
 462 364 421 331 358 278 c 1
 322 247 299 226 260 190 c 1
 346 190 l 2
 354 190 403 189 412 193 c 1
 421 197 427 249 429 262 c 1
 462 262 l 1
 442 87 l 1
 162 87 l 1
EndSplineSet
EndChar
StartChar: uF2A34
Encoding: 993844 993844 369
Width: 1000
Flags: MW
LayerCount: 2
Fore
SplineSet
112 697 m 1
 112 -97 l 1
 887 -97 l 1
 887 697 l 1
 112 697 l 1
50 760 m 1
 950 760 l 1
 950 -160 l 1
 50 -160 l 1
 50 760 l 1
530 325 m 0
 530 369 528 468 576 528 c 1
 597 550 629 575 688 575 c 0
 742 575 770 555 790 541 c 0
 847 483 846 373 846 325 c 0
 846 277 846 175 793 117 c 0
 773 100 743 79 688 79 c 0
 632 79 603 100 582 120 c 0
 531 177 530 277 530 325 c 0
620 334 m 0
 620 294 619 213 625 175 c 0
 631 124 666 109 688 109 c 0
 704 109 746 116 754 186 c 0
 757 223 757 296 757 334 c 0
 757 400 758 484 746 508 c 0
 733 531 712 545 688 545 c 0
 673 545 630 538 624 476 c 0
 619 437 620 390 620 334 c 0
157 191 m 0
 157 230 179 252 209 252 c 0
 239 252 261 228 261 192 c 0
 261 160 247 142 226 132 c 1
 260 116 287 114 300 114 c 0
 377 114 364 205 364 223 c 0
 364 252 370 332 297 332 c 2
 269 332 l 2
 257 332 251 331 251 347 c 0
 251 350 251 359 258 360 c 0
 260 361 258 361 290 363 c 0
 316 365 330 382 337 396 c 1
 355 426 354 468 354 473 c 0
 354 487 361 542 301 542 c 0
 283 542 258 538 236 521 c 1
 236 520 273 510 273 464 c 0
 273 434 255 409 225 409 c 0
 199 409 178 432 178 466 c 0
 178 527 227 575 305 575 c 0
 402 575 448 528 448 471 c 0
 448 406 400 364 359 349 c 1
 457 324 469 259 469 223 c 0
 469 157 427 79 304 79 c 0
 220 79 157 123 157 191 c 0
EndSplineSet
EndChar
StartChar: uF2A39
Encoding: 993849 993849 374
Width: 1000
Flags: MW
LayerCount: 2
Fore
SplineSet
112 697 m 1
 112 -97 l 1
 887 -97 l 1
 887 697 l 1
 112 697 l 1
50 760 m 1
 950 760 l 1
 950 -160 l 1
 50 -160 l 1
 50 760 l 1
536 205 m 0
 536 254 572 260 582 260 c 0
 596 260 627 251 627 205 c 0
 627 176 612 159 594 153 c 0
 594 152 591 152 588 152 c 1
 620 109 659 114 665 114 c 0
 691 114 706 120 716 132 c 1
 738 158 738 201 738 238 c 0
 738 275 738 318 724 342 c 0
 716 357 702 360 684 360 c 0
 666 360 629 361 599 321 c 0
 595 315 593 311 584 311 c 0
 569 311 569 321 569 335 c 2
 569 555 l 2
 569 567 568 575 577 575 c 0
 579 575 581 574 587 572 c 0
 599 567 633 551 688 551 c 0
 710 551 743 554 787 572 c 0
 796 575 796 575 798 575 c 0
 807 575 807 565 807 560 c 0
 807 539 746 450 650 450 c 0
 628 450 625 450 606 454 c 1
 606 367 l 1
 638 391 673 390 688 390 c 0
 789 390 836 321 836 236 c 0
 836 145 775 79 667 79 c 0
 587 79 536 141 536 205 c 0
156 191 m 0
 156 230 178 252 208 252 c 0
 238 252 259 228 259 192 c 0
 259 160 246 142 225 132 c 1
 259 116 286 114 299 114 c 0
 376 114 363 205 363 223 c 0
 363 252 368 332 295 332 c 2
 268 332 l 2
 256 332 249 331 249 347 c 0
 249 350 251 359 258 360 c 0
 260 361 257 361 289 363 c 0
 315 365 328 382 335 396 c 1
 353 426 352 468 352 473 c 0
 352 487 360 542 300 542 c 0
 282 542 257 538 235 521 c 1
 235 520 271 510 271 464 c 0
 271 434 254 409 224 409 c 0
 198 409 176 432 176 466 c 0
 176 527 226 575 304 575 c 0
 401 575 446 528 446 471 c 0
 446 406 398 364 357 349 c 1
 455 324 468 259 468 223 c 0
 468 157 425 79 302 79 c 0
 218 79 156 123 156 191 c 0
EndSplineSet
EndChar
StartChar: uF2A42
Encoding: 993858 993858 383
Width: 1000
Flags: MW
LayerCount: 2
Fore
SplineSet
112 697 m 1
 112 -97 l 1
 887 -97 l 1
 887 697 l 1
 112 697 l 1
50 760 m 1
 950 760 l 1
 950 -160 l 1
 50 -160 l 1
 50 760 l 1
521 202 m 1
 521 240 l 1
 748 562 l 2
 756 574 758 574 774 574 c 0
 794 574 794 570 794 549 c 2
 794 240 l 1
 854 240 l 1
 854 202 l 1
 794 202 l 1
 794 116 l 1
 794 123 873 124 859 124 c 1
 855 124 l 1
 855 86 l 1
 835 88 772 88 748 88 c 0
 721 88 657 88 633 86 c 1
 633 124 l 1
 629 124 l 1
 615 124 706 123 706 116 c 1
 706 202 l 1
 521 202 l 1
558 240 m 1
 714 240 l 1
 714 461 l 1
 558 240 l 1
146 202 m 1
 146 240 l 1
 374 562 l 2
 382 574 381 574 397 574 c 0
 417 574 419 570 419 549 c 2
 419 240 l 1
 479 240 l 1
 479 202 l 1
 419 202 l 1
 419 116 l 1
 419 123 498 124 484 124 c 1
 480 124 l 1
 480 86 l 1
 460 88 397 88 373 88 c 0
 346 88 282 88 258 86 c 1
 258 124 l 1
 254 124 l 1
 240 124 331 123 331 116 c 1
 331 202 l 1
 146 202 l 1
183 240 m 1
 339 240 l 1
 339 461 l 1
 183 240 l 1
EndSplineSet
EndChar
StartChar: uF2A44
Encoding: 993860 993860 385
Width: 1000
Flags: MW
LayerCount: 2
Fore
SplineSet
112 697 m 1
 112 -97 l 1
 887 -97 l 1
 887 697 l 1
 112 697 l 1
50 760 m 1
 950 760 l 1
 950 -160 l 1
 50 -160 l 1
 50 760 l 1
530 323 m 0
 530 518 640 575 726 575 c 0
 797 575 823 524 823 478 c 0
 823 450 810 426 780 426 c 0
 752 426 738 449 738 476 c 0
 738 495 746 521 772 526 c 1
 757 541 738 543 728 543 c 0
 684 543 650 510 638 478 c 0
 638 472 623 445 623 357 c 2
 623 344 l 1
 654 406 693 397 698 397 c 0
 776 397 842 347 842 239 c 0
 842 139 781 79 688 79 c 0
 641 79 593 96 562 152 c 1
 533 207 530 269 530 323 c 0
625 240 m 0
 625 226 625 173 634 152 c 0
 639 140 656 115 687 115 c 0
 725 115 737 131 741 151 c 0
 748 173 748 204 748 241 c 0
 748 281 748 315 740 337 c 0
 736 353 724 368 691 368 c 0
 663 368 625 343 625 240 c 0
144 201 m 1
 144 239 l 1
 372 561 l 2
 380 573 380 574 396 574 c 0
 416 574 417 570 417 549 c 2
 417 239 l 1
 477 239 l 1
 477 201 l 1
 417 201 l 1
 417 115 l 1
 417 122 496 124 482 124 c 1
 478 124 l 1
 478 86 l 1
 458 88 396 88 372 88 c 0
 345 88 280 88 256 86 c 1
 256 124 l 1
 252 124 l 1
 238 124 329 122 329 115 c 1
 329 201 l 1
 144 201 l 1
181 239 m 1
 337 239 l 1
 337 459 l 1
 181 239 l 1
EndSplineSet
EndChar
StartChar: uF2A46
Encoding: 993862 993862 387
Width: 1000
Flags: MW
LayerCount: 2
Fore
SplineSet
112 697 m 1
 112 -97 l 1
 887 -97 l 1
 887 697 l 1
 112 697 l 1
50 760 m 1
 950 760 l 1
 950 -160 l 1
 50 -160 l 1
 50 760 l 1
530 208 m 0
 530 260 549 300 607 330 c 1
 592 339 583 351 574 365 c 0
 557 390 551 418 551 442 c 0
 551 514 592 575 687 575 c 0
 763 575 821 543 821 465 c 0
 821 423 805 391 761 364 c 1
 768 359 790 346 808 325 c 0
 826 305 842 277 842 229 c 0
 842 147 793 79 684 79 c 0
 599 79 530 114 530 208 c 0
591 208 m 0
 591 151 623 115 687 115 c 0
 719 115 782 120 782 185 c 0
 782 219 760 232 730 252 c 1
 685 281 668 290 640 308 c 1
 628 298 591 270 591 208 c 0
604 490 m 0
 604 461 626 452 630 449 c 2
 729 385 l 1
 753 406 768 428 768 464 c 0
 768 514 739 543 684 543 c 0
 665 543 604 544 604 490 c 0
144 201 m 1
 144 239 l 1
 372 561 l 2
 380 573 380 574 396 574 c 0
 416 574 417 570 417 549 c 2
 417 239 l 1
 477 239 l 1
 477 201 l 1
 417 201 l 1
 417 115 l 1
 417 122 496 124 482 124 c 1
 478 124 l 1
 478 86 l 1
 458 88 396 88 372 88 c 0
 345 88 280 88 256 86 c 1
 256 124 l 1
 252 124 l 1
 238 124 329 122 329 115 c 1
 329 201 l 1
 144 201 l 1
181 239 m 1
 337 239 l 1
 337 459 l 1
 181 239 l 1
EndSplineSet
EndChar
StartChar: uF2A4E
Encoding: 993870 993870 395
Width: 1000
Flags: MW
LayerCount: 2
Fore
SplineSet
112 697 m 1
 112 -97 l 1
 887 -97 l 1
 887 697 l 1
 112 697 l 1
50 760 m 1
 950 760 l 1
 950 -160 l 1
 50 -160 l 1
 50 760 l 1
532 323 m 0
 532 518 643 575 729 575 c 0
 800 575 826 524 826 478 c 0
 826 450 812 427 782 427 c 0
 754 427 741 449 741 476 c 0
 741 495 748 521 774 526 c 1
 759 541 740 542 730 542 c 0
 686 542 653 511 641 479 c 0
 641 473 626 446 626 358 c 2
 626 345 l 1
 657 407 697 397 702 397 c 0
 780 397 844 347 844 239 c 0
 844 139 785 79 692 79 c 0
 645 79 596 97 565 153 c 1
 536 208 532 269 532 323 c 0
627 240 m 0
 627 226 629 173 638 152 c 0
 643 140 659 114 690 114 c 0
 728 114 740 132 744 152 c 0
 751 174 751 205 751 242 c 0
 751 282 751 314 743 336 c 0
 739 352 727 368 694 368 c 0
 666 368 627 343 627 240 c 0
164 205 m 0
 164 254 199 260 209 260 c 0
 223 260 253 251 253 205 c 0
 253 176 240 159 222 153 c 0
 222 152 216 152 213 152 c 1
 245 109 284 114 290 114 c 0
 316 114 333 120 343 132 c 1
 365 158 365 201 365 238 c 0
 365 275 365 318 351 342 c 0
 343 357 330 360 312 360 c 0
 294 360 256 361 226 321 c 0
 222 315 220 311 211 311 c 0
 196 311 194 321 194 335 c 2
 194 555 l 2
 194 567 196 575 205 575 c 0
 207 575 207 574 213 572 c 0
 225 567 261 551 316 551 c 0
 338 551 371 554 415 572 c 0
 424 575 423 575 425 575 c 0
 434 575 434 565 434 560 c 0
 434 539 372 450 276 450 c 0
 254 450 251 450 232 454 c 1
 232 367 l 1
 264 391 300 390 315 390 c 0
 416 390 464 321 464 236 c 0
 464 145 403 79 295 79 c 0
 215 79 164 141 164 205 c 0
EndSplineSet
EndChar
StartChar: uF2A4F
Encoding: 993871 993871 396
Width: 1000
Flags: MW
LayerCount: 2
Fore
SplineSet
112 697 m 1
 112 -97 l 1
 887 -97 l 1
 887 697 l 1
 112 697 l 1
50 760 m 1
 950 760 l 1
 950 -160 l 1
 50 -160 l 1
 50 760 l 1
546 396 m 1
 568 595 l 1
 602 595 l 1
 604 587 604 582 616 579 c 1
 624 576 738 571 748 571 c 2
 869 571 l 1
 869 543 869 541 862 533 c 2
 761 400 l 2
 742 373 727 334 720 276 c 0
 716 242 714 207 714 172 c 2
 714 138 l 2
 714 78 675 82 671 82 c 0
 675 82 628 74 628 137 c 0
 628 257 681 358 743 438 c 1
 739 432 769 471 767 468 c 1
 668 468 l 2
 657 468 605 468 596 464 c 0
 596 464 588 464 580 396 c 1
 546 396 l 1
167 207 m 0
 167 256 202 263 212 263 c 0
 226 263 257 254 257 208 c 0
 257 179 243 162 225 156 c 0
 225 155 220 155 217 155 c 1
 249 112 289 117 295 117 c 0
 321 117 337 123 347 135 c 1
 369 161 369 205 369 242 c 0
 369 279 368 320 354 344 c 0
 346 359 332 364 314 364 c 0
 296 364 259 364 229 324 c 0
 225 318 223 315 214 315 c 0
 199 315 199 325 199 339 c 2
 199 557 l 2
 199 569 199 578 208 578 c 0
 210 578 211 576 217 574 c 0
 229 569 263 553 318 553 c 0
 340 553 374 556 418 574 c 0
 427 577 427 577 429 577 c 0
 438 577 438 568 438 563 c 0
 438 542 376 452 280 452 c 0
 258 452 255 454 236 458 c 1
 236 370 l 1
 268 394 303 393 318 393 c 0
 419 393 467 325 467 240 c 0
 467 149 406 82 298 82 c 0
 218 82 167 143 167 207 c 0
EndSplineSet
EndChar
StartChar: uF2A50
Encoding: 993872 993872 397
Width: 1000
Flags: MW
LayerCount: 2
Fore
SplineSet
112 697 m 1
 112 -97 l 1
 887 -97 l 1
 887 697 l 1
 112 697 l 1
50 760 m 1
 950 760 l 1
 950 -160 l 1
 50 -160 l 1
 50 760 l 1
532 208 m 0
 532 260 552 301 610 331 c 1
 595 340 585 350 576 364 c 0
 559 389 554 417 554 441 c 0
 554 513 595 575 690 575 c 0
 766 575 824 544 824 466 c 0
 824 424 808 391 764 364 c 1
 771 359 793 346 811 325 c 0
 829 305 844 278 844 230 c 0
 844 148 796 79 687 79 c 0
 602 79 532 114 532 208 c 0
594 208 m 0
 594 151 626 114 690 114 c 0
 722 114 784 120 784 185 c 0
 784 219 762 232 732 252 c 1
 687 281 671 291 643 309 c 1
 631 299 594 270 594 208 c 0
606 490 m 0
 606 461 629 452 633 449 c 2
 732 386 l 1
 756 407 771 428 771 464 c 0
 771 514 742 542 687 542 c 0
 668 542 606 544 606 490 c 0
164 205 m 0
 164 254 199 260 209 260 c 0
 223 260 253 251 253 205 c 0
 253 176 240 159 222 153 c 0
 222 152 216 152 213 152 c 1
 245 109 284 114 290 114 c 0
 316 114 333 120 343 132 c 1
 365 158 365 201 365 238 c 0
 365 275 365 318 351 342 c 0
 343 357 330 360 312 360 c 0
 294 360 256 361 226 321 c 0
 222 315 220 311 211 311 c 0
 196 311 194 321 194 335 c 2
 194 555 l 2
 194 567 196 575 205 575 c 0
 207 575 207 574 213 572 c 0
 225 567 261 551 316 551 c 0
 338 551 371 554 415 572 c 0
 424 575 423 575 425 575 c 0
 434 575 434 565 434 560 c 0
 434 539 372 450 276 450 c 0
 254 450 251 450 232 454 c 1
 232 367 l 1
 264 391 300 390 315 390 c 0
 416 390 464 321 464 236 c 0
 464 145 403 79 295 79 c 0
 215 79 164 141 164 205 c 0
EndSplineSet
EndChar
StartChar: uF2A52
Encoding: 993874 993874 399
Width: 1000
Flags: MW
LayerCount: 2
Fore
SplineSet
112 697 m 1
 112 -97 l 1
 887 -97 l 1
 887 697 l 1
 112 697 l 1
50 760 m 1
 950 760 l 1
 950 -160 l 1
 50 -160 l 1
 50 760 l 1
530 325 m 0
 530 369 528 468 576 528 c 1
 597 550 629 575 688 575 c 0
 742 575 770 555 790 541 c 0
 847 483 846 373 846 325 c 0
 846 277 846 175 793 117 c 0
 773 100 743 79 688 79 c 0
 632 79 603 100 582 120 c 0
 531 177 530 277 530 325 c 0
620 334 m 0
 620 294 619 213 625 175 c 0
 631 124 666 109 688 109 c 0
 704 109 746 116 754 186 c 0
 757 223 757 296 757 334 c 0
 757 400 758 484 746 508 c 0
 733 531 712 545 688 545 c 0
 673 545 630 538 624 476 c 0
 619 437 620 390 620 334 c 0
157 323 m 0
 157 518 267 575 353 575 c 0
 424 575 450 524 450 478 c 0
 450 450 438 427 408 427 c 0
 380 427 365 449 365 476 c 0
 365 495 374 521 400 526 c 1
 385 541 365 542 355 542 c 0
 311 542 277 511 265 479 c 0
 265 473 250 446 250 358 c 2
 250 345 l 1
 281 407 321 397 326 397 c 0
 404 397 469 347 469 239 c 0
 469 139 408 79 315 79 c 0
 268 79 220 97 189 153 c 1
 160 208 157 269 157 323 c 0
252 240 m 0
 252 226 253 173 262 152 c 0
 267 140 283 114 314 114 c 0
 352 114 364 132 368 152 c 0
 375 174 375 205 375 242 c 0
 375 282 375 314 367 336 c 0
 363 352 351 368 318 368 c 0
 290 368 252 343 252 240 c 0
EndSplineSet
EndChar
StartChar: uF2A57
Encoding: 993879 993879 404
Width: 1000
Flags: MW
LayerCount: 2
Fore
SplineSet
112 697 m 1
 112 -97 l 1
 887 -97 l 1
 887 697 l 1
 112 697 l 1
50 760 m 1
 950 760 l 1
 950 -160 l 1
 50 -160 l 1
 50 760 l 1
536 205 m 0
 536 254 572 260 582 260 c 0
 596 260 627 251 627 205 c 0
 627 176 612 159 594 153 c 0
 594 152 591 152 588 152 c 1
 620 109 659 114 665 114 c 0
 691 114 706 120 716 132 c 1
 738 158 738 201 738 238 c 0
 738 275 738 318 724 342 c 0
 716 357 702 360 684 360 c 0
 666 360 629 361 599 321 c 0
 595 315 593 311 584 311 c 0
 569 311 569 321 569 335 c 2
 569 555 l 2
 569 567 568 575 577 575 c 0
 579 575 581 574 587 572 c 0
 599 567 633 551 688 551 c 0
 710 551 743 554 787 572 c 0
 796 575 796 575 798 575 c 0
 807 575 807 565 807 560 c 0
 807 539 746 450 650 450 c 0
 628 450 625 450 606 454 c 1
 606 367 l 1
 638 391 673 390 688 390 c 0
 789 390 836 321 836 236 c 0
 836 145 775 79 667 79 c 0
 587 79 536 141 536 205 c 0
156 323 m 0
 156 518 266 575 352 575 c 0
 423 575 449 524 449 478 c 0
 449 450 437 427 407 427 c 0
 379 427 364 449 364 476 c 0
 364 495 372 521 398 526 c 1
 383 541 364 542 354 542 c 0
 310 542 276 511 264 479 c 0
 264 473 249 446 249 358 c 2
 249 345 l 1
 280 407 319 397 324 397 c 0
 402 397 468 347 468 239 c 0
 468 139 407 79 314 79 c 0
 267 79 219 97 188 153 c 1
 159 208 156 269 156 323 c 0
252 240 m 0
 252 226 251 173 260 152 c 0
 265 140 282 114 313 114 c 0
 351 114 363 132 367 152 c 0
 374 174 374 205 374 242 c 0
 374 282 374 314 366 336 c 0
 362 352 350 368 317 368 c 0
 289 368 252 343 252 240 c 0
EndSplineSet
EndChar
StartChar: uF2A5A
Encoding: 993882 993882 407
Width: 1000
Flags: MW
LayerCount: 2
Fore
SplineSet
112 697 m 1
 112 -97 l 1
 887 -97 l 1
 887 697 l 1
 112 697 l 1
50 760 m 1
 950 760 l 1
 950 -160 l 1
 50 -160 l 1
 50 760 l 1
532 208 m 0
 532 260 551 301 609 331 c 1
 594 340 584 350 575 364 c 0
 558 389 552 417 552 441 c 0
 552 513 595 575 690 575 c 0
 766 575 822 544 822 466 c 0
 822 424 806 391 762 364 c 1
 769 359 792 346 810 325 c 0
 828 305 844 278 844 230 c 0
 844 148 795 79 686 79 c 0
 601 79 532 114 532 208 c 0
593 208 m 0
 593 151 626 114 690 114 c 0
 722 114 782 120 782 185 c 0
 782 219 762 232 732 252 c 1
 687 281 670 291 642 309 c 1
 630 299 593 270 593 208 c 0
605 490 m 0
 605 461 628 452 632 449 c 2
 731 386 l 1
 755 407 770 428 770 464 c 0
 770 514 741 542 686 542 c 0
 667 542 605 544 605 490 c 0
156 323 m 0
 156 518 267 575 353 575 c 0
 424 575 450 524 450 478 c 0
 450 450 436 427 406 427 c 0
 378 427 365 449 365 476 c 0
 365 495 372 521 398 526 c 1
 383 541 364 542 354 542 c 0
 310 542 277 511 265 479 c 0
 265 473 250 446 250 358 c 2
 250 345 l 1
 281 407 321 397 326 397 c 0
 404 397 468 347 468 239 c 0
 468 139 409 79 316 79 c 0
 269 79 220 97 189 153 c 1
 160 208 156 269 156 323 c 0
251 240 m 0
 251 226 253 173 262 152 c 0
 267 140 283 114 314 114 c 0
 352 114 364 132 368 152 c 0
 375 174 375 205 375 242 c 0
 375 282 375 314 367 336 c 0
 363 352 351 368 318 368 c 0
 290 368 251 343 251 240 c 0
EndSplineSet
EndChar
StartChar: uF2A5D
Encoding: 993885 993885 410
Width: 1000
Flags: MW
LayerCount: 2
Fore
SplineSet
112 697 m 1
 112 -97 l 1
 887 -97 l 1
 887 697 l 1
 112 697 l 1
50 760 m 1
 950 760 l 1
 950 -160 l 1
 50 -160 l 1
 50 760 l 1
552 491 m 1
 552 529 l 1
 566 529 l 1
 577 529 647 528 699 572 c 0
 706 578 706 577 716 577 c 1
 733 577 732 568 732 552 c 2
 732 117 l 1
 732 124 847 126 830 126 c 1
 824 126 l 1
 824 88 l 1
 796 90 723 90 691 90 c 0
 659 90 587 90 559 88 c 1
 559 126 l 1
 553 126 l 1
 536 126 650 124 650 117 c 1
 650 505 l 1
 611 492 574 491 566 491 c 1
 552 491 l 1
165 396 m 1
 188 595 l 1
 221 595 l 1
 223 587 222 582 234 579 c 1
 242 576 357 571 367 571 c 2
 488 571 l 1
 488 543 489 541 482 533 c 2
 380 400 l 2
 361 373 347 334 340 276 c 0
 336 242 333 207 333 172 c 2
 333 138 l 2
 333 78 294 82 290 82 c 0
 294 82 248 74 248 137 c 0
 248 257 300 358 362 438 c 1
 358 432 388 471 386 468 c 1
 286 468 l 2
 275 468 225 468 216 464 c 0
 216 464 207 464 199 396 c 1
 165 396 l 1
EndSplineSet
EndChar
StartChar: uF2A5E
Encoding: 993886 993886 411
Width: 1000
Flags: MW
LayerCount: 2
Fore
SplineSet
112 697 m 1
 112 -97 l 1
 887 -97 l 1
 887 697 l 1
 112 697 l 1
50 760 m 1
 950 760 l 1
 950 -160 l 1
 50 -160 l 1
 50 760 l 1
538 88 m 1
 538 87 538 104 538 103 c 2
 538 120 538 120 546 130 c 2
 675 282 l 2
 722 337 743 386 743 436 c 0
 743 490 713 539 660 539 c 0
 642 539 621 536 601 526 c 1
 603 524 609 524 610 522 c 0
 620 514 636 503 636 468 c 0
 636 428 610 410 587 410 c 0
 567 410 538 424 538 468 c 0
 538 536 600 577 678 577 c 0
 770 577 838 523 838 437 c 0
 838 367 797 333 734 280 c 1
 698 249 675 227 636 191 c 1
 722 191 l 2
 730 191 779 191 788 195 c 1
 797 199 803 251 805 264 c 1
 838 264 l 1
 818 88 l 1
 538 88 l 1
168 396 m 1
 190 595 l 1
 224 595 l 1
 226 587 225 582 237 579 c 1
 245 576 360 571 370 571 c 2
 490 571 l 1
 490 543 491 541 484 533 c 2
 382 400 l 2
 363 373 348 334 341 276 c 0
 337 242 336 207 336 172 c 2
 336 138 l 2
 336 78 296 82 292 82 c 0
 296 82 250 74 250 137 c 0
 250 257 302 358 364 438 c 1
 360 432 390 471 388 468 c 1
 289 468 l 2
 278 468 228 468 219 464 c 0
 219 464 209 464 201 396 c 1
 168 396 l 1
EndSplineSet
EndChar
StartChar: uF2A64
Encoding: 993892 993892 417
Width: 1000
Flags: MW
LayerCount: 2
Fore
SplineSet
112 697 m 1
 112 -97 l 1
 887 -97 l 1
 887 697 l 1
 112 697 l 1
50 760 m 1
 950 760 l 1
 950 -160 l 1
 50 -160 l 1
 50 760 l 1
533 211 m 0
 533 263 552 304 610 334 c 1
 595 343 586 354 577 368 c 0
 560 393 554 421 554 445 c 0
 554 517 597 577 692 577 c 0
 768 577 824 546 824 468 c 0
 824 426 808 395 764 368 c 1
 771 363 794 350 812 329 c 0
 830 309 845 280 845 232 c 0
 845 150 797 82 688 82 c 0
 603 82 533 117 533 211 c 0
595 211 m 0
 595 154 628 117 692 117 c 0
 724 117 784 122 784 187 c 0
 784 221 762 236 732 256 c 1
 687 285 671 294 643 312 c 1
 631 302 595 273 595 211 c 0
607 492 m 0
 607 463 630 455 634 452 c 2
 733 388 l 1
 757 409 772 430 772 466 c 0
 772 516 743 546 688 546 c 0
 669 546 607 546 607 492 c 0
169 396 m 1
 190 595 l 1
 224 595 l 1
 226 587 226 582 238 579 c 1
 246 576 360 571 370 571 c 2
 491 571 l 1
 491 543 491 541 484 533 c 2
 383 400 l 2
 364 373 349 334 342 276 c 0
 338 242 336 207 336 172 c 2
 336 138 l 2
 336 78 297 82 293 82 c 0
 297 82 252 74 252 137 c 0
 252 257 303 358 365 438 c 1
 361 432 391 471 389 468 c 1
 290 468 l 2
 279 468 229 468 220 464 c 0
 220 464 211 464 203 396 c 1
 169 396 l 1
EndSplineSet
EndChar
StartChar: uF2A75
Encoding: 993909 993909 434
Width: 1000
Flags: MW
LayerCount: 2
Fore
SplineSet
112 697 m 1
 112 -97 l 1
 887 -97 l 1
 887 697 l 1
 112 697 l 1
50 760 m 1
 950 760 l 1
 950 -160 l 1
 50 -160 l 1
 50 760 l 1
536 205 m 0
 536 254 572 260 582 260 c 0
 596 260 627 251 627 205 c 0
 627 176 612 159 594 153 c 0
 594 152 591 152 588 152 c 1
 620 109 659 114 665 114 c 0
 691 114 706 120 716 132 c 1
 738 158 738 201 738 238 c 0
 738 275 738 318 724 342 c 0
 716 357 702 360 684 360 c 0
 666 360 629 361 599 321 c 0
 595 315 593 311 584 311 c 0
 569 311 569 321 569 335 c 2
 569 555 l 2
 569 567 568 575 577 575 c 0
 579 575 581 574 587 572 c 0
 599 567 633 551 688 551 c 0
 710 551 743 554 787 572 c 0
 796 575 796 575 798 575 c 0
 807 575 807 565 807 560 c 0
 807 539 746 450 650 450 c 0
 628 450 625 450 606 454 c 1
 606 367 l 1
 638 391 673 390 688 390 c 0
 789 390 836 321 836 236 c 0
 836 145 775 79 667 79 c 0
 587 79 536 141 536 205 c 0
156 415 m 0
 156 466 174 513 204 539 c 1
 231 562 268 575 313 575 c 0
 489 575 468 344 468 332 c 0
 468 132 362 79 280 79 c 0
 205 79 174 125 174 176 c 0
 174 204 188 227 218 227 c 0
 246 227 259 205 259 178 c 0
 259 139 231 130 229 128 c 1
 249 116 266 114 278 114 c 0
 328 114 355 154 362 179 c 0
 370 203 374 245 374 296 c 2
 374 310 l 1
 347 256 315 258 299 258 c 0
 220 258 156 309 156 415 c 0
249 414 m 0
 249 373 249 339 258 316 c 0
 262 303 274 287 306 287 c 0
 358 287 373 365 373 408 c 0
 373 432 374 473 366 498 c 0
 367 500 353 542 314 542 c 0
 280 542 267 530 259 514 c 0
 249 490 249 454 249 414 c 0
EndSplineSet
EndChar
StartChar: uF2A78
Encoding: 993912 993912 437
Width: 1000
Flags: MW
LayerCount: 2
Fore
SplineSet
112 697 m 1
 112 -97 l 1
 887 -97 l 1
 887 697 l 1
 112 697 l 1
50 760 m 1
 950 760 l 1
 950 -160 l 1
 50 -160 l 1
 50 760 l 1
532 208 m 0
 532 260 551 301 609 331 c 1
 594 340 584 350 575 364 c 0
 558 389 552 417 552 441 c 0
 552 513 595 575 690 575 c 0
 766 575 822 544 822 466 c 0
 822 424 806 391 762 364 c 1
 769 359 792 346 810 325 c 0
 828 305 844 278 844 230 c 0
 844 148 795 79 686 79 c 0
 601 79 532 114 532 208 c 0
593 208 m 0
 593 151 626 114 690 114 c 0
 722 114 782 120 782 185 c 0
 782 219 762 232 732 252 c 1
 687 281 670 291 642 309 c 1
 630 299 593 270 593 208 c 0
605 490 m 0
 605 461 628 452 632 449 c 2
 731 386 l 1
 755 407 770 428 770 464 c 0
 770 514 741 542 686 542 c 0
 667 542 605 544 605 490 c 0
156 415 m 0
 156 466 174 513 204 539 c 1
 231 562 269 575 314 575 c 0
 490 575 468 344 468 332 c 0
 468 132 364 79 282 79 c 0
 207 79 175 125 175 176 c 0
 175 204 188 227 218 227 c 0
 246 227 260 205 260 178 c 0
 260 139 232 130 230 128 c 1
 250 116 268 114 280 114 c 0
 330 114 356 154 363 179 c 0
 371 203 375 245 375 296 c 2
 375 310 l 1
 348 256 316 258 300 258 c 0
 221 258 156 309 156 415 c 0
250 414 m 0
 250 373 251 339 260 316 c 0
 264 303 275 287 307 287 c 0
 359 287 374 365 374 408 c 0
 374 432 375 473 367 498 c 0
 368 500 354 542 315 542 c 0
 281 542 268 530 260 514 c 0
 250 490 250 454 250 414 c 0
EndSplineSet
EndChar
StartChar: uF2A79
Encoding: 993913 993913 438
Width: 1000
Flags: MW
LayerCount: 2
Fore
SplineSet
112 697 m 1
 112 -97 l 1
 887 -97 l 1
 887 697 l 1
 112 697 l 1
50 760 m 1
 950 760 l 1
 950 -160 l 1
 50 -160 l 1
 50 760 l 1
532 415 m 0
 532 466 550 513 580 539 c 1
 607 562 644 575 689 575 c 0
 865 575 844 344 844 332 c 0
 844 132 738 79 656 79 c 0
 581 79 550 125 550 176 c 0
 550 204 564 227 594 227 c 0
 622 227 635 205 635 178 c 0
 635 139 607 130 605 128 c 1
 625 116 642 114 654 114 c 0
 704 114 731 154 738 179 c 0
 746 203 750 245 750 296 c 2
 750 310 l 1
 723 256 691 258 675 258 c 0
 596 258 532 309 532 415 c 0
625 414 m 0
 625 373 625 339 634 316 c 0
 638 303 650 287 682 287 c 0
 734 287 749 365 749 408 c 0
 749 432 750 473 742 498 c 0
 743 500 729 542 690 542 c 0
 656 542 643 530 635 514 c 0
 625 490 625 454 625 414 c 0
156 415 m 0
 156 466 174 513 204 539 c 1
 231 562 269 575 314 575 c 0
 490 575 468 344 468 332 c 0
 468 132 364 79 282 79 c 0
 207 79 175 125 175 176 c 0
 175 204 188 227 218 227 c 0
 246 227 260 205 260 178 c 0
 260 139 232 130 230 128 c 1
 250 116 268 114 280 114 c 0
 330 114 356 154 363 179 c 0
 371 203 375 245 375 296 c 2
 375 310 l 1
 348 256 316 258 300 258 c 0
 221 258 156 309 156 415 c 0
250 414 m 0
 250 373 251 339 260 316 c 0
 264 303 275 287 307 287 c 0
 359 287 374 365 374 408 c 0
 374 432 375 473 367 498 c 0
 368 500 354 542 315 542 c 0
 281 542 268 530 260 514 c 0
 250 490 250 454 250 414 c 0
EndSplineSet
EndChar
StartChar: uF2A81
Encoding: 993921 993921 446
Width: 1000
Flags: MW
LayerCount: 2
Fore
SplineSet
112 697 m 1
 112 -97 l 1
 887 -97 l 1
 887 697 l 1
 112 697 l 1
50 760 m 1
 950 760 l 1
 950 -160 l 1
 50 -160 l 1
 50 760 l 1
296 127 m 0
 296 178 358 191 359 190 c 1
 327 216 326 255 326 263 c 0
 326 277 329 301 353 331 c 1
 328 348 313 379 313 409 c 0
 313 459 351 521 469 521 c 0
 535 521 564 501 574 496 c 1
 607 521 644 524 654 524 c 0
 689 524 704 497 704 479 c 0
 704 461 692 444 669 444 c 0
 647 444 634 459 634 479 c 0
 634 482 635 488 635 492 c 1
 633 492 632 492 630 492 c 0
 622 491 611 487 595 481 c 1
 604 470 625 447 625 410 c 0
 625 360 587 298 469 298 c 0
 449 298 407 300 372 317 c 1
 370 313 367 304 367 295 c 0
 367 283 373 255 408 249 c 0
 412 248 446 248 466 248 c 0
 544 248 591 247 633 226 c 0
 686 199 691 150 691 129 c 0
 691 79 638 32 494 32 c 0
 330 32 296 93 296 127 c 0
367 128 m 0
 367 96 400 62 494 62 c 0
 598 62 621 103 621 127 c 0
 621 169 536 168 523 168 c 2
 424 168 l 1
 420 168 367 176 367 128 c 0
403 410 m 0
 403 372 403 328 469 328 c 0
 499 328 516 336 526 351 c 0
 536 367 535 391 535 409 c 0
 535 447 535 491 469 491 c 0
 444 491 430 488 419 476 c 0
 403 460 403 430 403 410 c 0
EndSplineSet
EndChar
StartChar: uF2A83
Encoding: 993923 993923 448
Width: 1000
Flags: MW
LayerCount: 2
Fore
SplineSet
112 697 m 1
 112 -97 l 1
 887 -97 l 1
 887 697 l 1
 112 697 l 1
50 760 m 1
 950 760 l 1
 950 -160 l 1
 50 -160 l 1
 50 760 l 1
408 38 m 1
 408 76 l 1
 401 76 462 76 460 74 c 1
 458 73 458 71 458 67 c 1
 458 307 l 2
 458 334 453 333 410 333 c 1
 410 371 l 1
 548 376 l 1
 548 68 l 1
 548 72 547 73 546 74 c 1
 544 76 599 76 592 76 c 1
 592 38 l 1
 565 39 523 40 502 40 c 0
 466 40 431 39 408 38 c 1
430 501 m 0
 430 536 458 564 492 564 c 0
 527 564 556 536 556 501 c 0
 556 466 527 437 492 437 c 0
 458 437 430 466 430 501 c 0
EndSplineSet
EndChar
StartChar: uF2A84
Encoding: 993924 993924 449
Width: 1000
Flags: MW
LayerCount: 2
Fore
SplineSet
112 697 m 1
 112 -97 l 1
 887 -97 l 1
 887 697 l 1
 112 697 l 1
50 760 m 1
 950 760 l 1
 950 -160 l 1
 50 -160 l 1
 50 760 l 1
334 34 m 0
 334 63 355 84 385 84 c 0
 413 84 435 63 435 35 c 0
 435 26 434 8 419 -4 c 1
 428 -5 431 -6 445 -6 c 0
 489 -6 502 44 502 83 c 2
 502 381 l 2
 502 395 502 405 486 408 c 0
 475 410 459 408 448 408 c 1
 448 446 l 1
 592 451 l 1
 592 82 l 2
 592 -1 512 -36 446 -36 c 0
 379 -36 334 -10 334 34 c 0
464 576 m 0
 464 610 494 639 528 639 c 0
 562 639 592 610 592 576 c 0
 592 542 562 512 528 512 c 0
 494 512 464 542 464 576 c 0
EndSplineSet
EndChar
StartChar: uF2A85
Encoding: 993925 993925 450
Width: 1000
Flags: MW
LayerCount: 2
Fore
SplineSet
112 697 m 1
 112 -97 l 1
 887 -97 l 1
 887 697 l 1
 112 697 l 1
50 760 m 1
 950 760 l 1
 950 -160 l 1
 50 -160 l 1
 50 760 l 1
288 37 m 1
 288 75 l 1
 282 75 342 75 340 74 c 1
 338 73 338 70 338 66 c 1
 338 488 l 2
 338 515 332 514 288 514 c 1
 288 552 l 1
 426 557 l 1
 426 218 l 1
 577 335 l 1
 575 334 572 332 572 328 c 1
 564 333 565 333 547 333 c 1
 547 372 l 1
 566 371 616 370 634 370 c 0
 654 370 674 370 694 372 c 1
 694 333 l 1
 636 333 634 327 633 327 c 1
 635 329 525 245 525 246 c 1
 524 248 l 1
 659 84 l 2
 666 77 666 75 701 75 c 2
 700 75 713 75 712 75 c 1
 712 37 l 1
 685 39 659 39 631 39 c 0
 630 39 560 39 538 37 c 1
 538 75 l 1
 547 75 560 75 560 80 c 0
 560 81 546 96 539 105 c 1
 546 94 455 209 464 197 c 1
 445 185 450 187 422 166 c 1
 422 66 l 1
 422 70 423 73 421 74 c 1
 419 75 479 75 472 75 c 1
 472 37 l 1
 446 38 410 39 380 39 c 0
 352 39 317 38 288 37 c 1
EndSplineSet
EndChar
StartChar: uF2A8B
Encoding: 993931 993931 456
Width: 1000
Flags: MW
LayerCount: 2
Fore
SplineSet
112 697 m 1
 112 -97 l 1
 887 -97 l 1
 887 697 l 1
 112 697 l 1
50 760 m 1
 950 760 l 1
 950 -160 l 1
 50 -160 l 1
 50 760 l 1
281 350 m 0
 281 456 359 522 475 522 c 0
 516 522 560 505 590 464 c 1
 634 522 l 1
 667 522 l 1
 667 67 l 1
 667 71 666 73 664 74 c 1
 662 75 725 75 719 75 c 1
 719 36 l 1
 699 37 652 39 621 39 c 0
 591 39 544 37 524 36 c 1
 524 75 l 1
 518 75 578 75 576 74 c 1
 574 73 574 71 574 67 c 1
 574 216 l 1
 536 184 499 179 466 179 c 0
 358 179 281 241 281 350 c 0
386 350 m 0
 386 246 432 208 476 208 c 0
 495 208 539 214 574 266 c 0
 584 282 578 277 578 289 c 2
 578 394 l 2
 578 432 541 489 485 489 c 0
 443 489 386 460 386 350 c 0
EndSplineSet
EndChar
